<?xml version="1.0" encoding="UTF-8"?>
<svg width="1440px" height="232px" viewBox="0 0 1440 232" version="1.1" xmlns="http://www.w3.org/2000/svg" xmlns:xlink="http://www.w3.org/1999/xlink">
    <!-- Generator: Sketch 39 (31667) - http://www.bohemiancoding.com/sketch -->
    <title>Footer/Sity</title>
    <desc>Created with Sketch.</desc>
    <defs>
        <polygon id="path-1" points="32.1517959 0.35870303 0.361591837 0.35870303 0.361591837 10.6068364 32.1517959 10.6068364 32.1517959 0.35870303"></polygon>
        <polygon id="path-3" points="131.379738 47.2416363 131.379738 0.21526115 0.826669523 0.21526115 0.826669523 47.2416363 131.379738 47.2416363"></polygon>
    </defs>
    <g id="Page-1" stroke="none" stroke-width="1" fill="none" fill-rule="evenodd">
        <g id="Главная" transform="translate(0.000000, -3789.000000)">
            <g id="футер" transform="translate(0.000000, 3530.000000)">
                <g id="Group-45" transform="translate(0.000000, 40.000000)">
                    <g id="Footer/Sity" transform="translate(0.000000, 219.000000)">
                        <polygon id="Fill-1" fill="#EBBD0E" points="306.858477 226.433706 340.151472 226.433706 340.151472 74.8536041 306.858477 74.8536041"></polygon>
                        <g id="Group-37" transform="translate(21.000000, 16.980711)">
                            <path d="M294.299777,209.452751 L294.299777,57.8726497 L269.645563,57.8726497 C263.047391,57.8726497 257.697949,63.2220914 257.697949,69.8214822 L257.697949,209.452751 L294.299777,209.452751 L294.299777,209.452751 Z" id="Fill-2" fill="#FBD133"></path>
                            <path d="M270.862863,209.452751 L270.862863,71.7524467 C270.862863,70.9617868 270.222051,70.3209746 269.432609,70.3209746 C268.641949,70.3209746 268.001137,70.9617868 268.001137,71.7524467 L268.001137,209.452751 L270.862863,209.452751 Z" id="Fill-4" fill="#FFFFFF"></path>
                            <path d="M277.38197,209.452751 L277.38197,71.7524467 C277.38197,70.9617868 276.741157,70.3209746 275.951716,70.3209746 C275.161056,70.3209746 274.520244,70.9617868 274.520244,71.7524467 L274.520244,209.452751 L277.38197,209.452751 Z" id="Fill-6" fill="#FFFFFF"></path>
                            <path d="M284.143756,209.452751 L284.143756,71.7524467 C284.143756,70.9617868 283.502944,70.3209746 282.713503,70.3209746 C281.922843,70.3209746 281.28203,70.9617868 281.28203,71.7524467 L281.28203,209.452751 L284.143756,209.452751 Z" id="Fill-8" fill="#FFFFFF"></path>
                            <path d="M319.15135,51.7861523 L274.500386,51.7861523 C272.491452,51.7861523 270.862619,53.4149848 270.862619,55.4239188 L270.862619,57.8726497 L319.15135,57.8726497 L319.15135,51.7861523 Z" id="Fill-10" fill="#FBD133"></path>
                            <polygon id="Fill-12" fill="#A9A9A9" points="175.141726 209.452995 203.69198 209.452995 203.69198 63.6207107 175.141726 63.6207107"></polygon>
                            <polygon id="Fill-14" fill="#DBDBDB" points="200.312487 209.452995 228.862741 209.452995 228.862741 63.6207107 200.312487 63.6207107"></polygon>
                            <polygon id="Fill-15" fill="#FFFFFF" points="208.677157 209.410355 210.896853 209.410355 210.896853 63.6194924 208.677157 63.6194924"></polygon>
                            <polygon id="Fill-16" fill="#FFFFFF" points="214.588223 209.410355 216.807919 209.410355 216.807919 63.6194924 214.588223 63.6194924"></polygon>
                            <polygon id="Fill-17" fill="#FFFFFF" points="220.621117 209.410355 222.840812 209.410355 222.840812 63.6194924 220.621117 63.6194924"></polygon>
                            <polygon id="Fill-18" fill="#FBD133" points="114.901726 211.310863 146.28934 211.310863 146.28934 64.675736 114.901726 64.675736"></polygon>
                            <polygon id="Fill-19" fill="#FDEDAD" points="146.290558 211.310863 177.678173 211.310863 177.678173 49.2085279 146.290558 49.2085279"></polygon>
                            <polygon id="Fill-20" fill="#FBD133" points="114.901726 64.675736 146.28934 64.675736 146.28934 59.52 114.901726 59.52"></polygon>
                            <polygon id="Fill-21" fill="#EBBD0E" points="120.745787 59.52 146.28934 59.52 146.28934 54.364264 120.745787 54.364264"></polygon>
                            <polygon id="Fill-22" fill="#FBD133" points="127.42802 54.364264 146.28934 54.364264 146.28934 49.2085279 127.42802 49.2085279"></polygon>
                            <polygon id="Fill-23" fill="#FFFFFF" points="155.06335 58.8036548 170.704772 58.8036548 170.704772 56.942132 155.06335 56.942132"></polygon>
                            <polygon id="Fill-24" fill="#FFFFFF" points="155.06335 64.5514721 170.704772 64.5514721 170.704772 62.6899492 155.06335 62.6899492"></polygon>
                            <polygon id="Fill-25" fill="#FFFFFF" points="155.06335 70.2980711 170.704772 70.2980711 170.704772 68.4365482 155.06335 68.4365482"></polygon>
                            <polygon id="Fill-26" fill="#FFFFFF" points="155.06335 76.0458883 170.704772 76.0458883 170.704772 74.1843655 155.06335 74.1843655"></polygon>
                            <polygon id="Fill-27" fill="#FFFFFF" points="155.06335 81.7924873 170.704772 81.7924873 170.704772 79.9309645 155.06335 79.9309645"></polygon>
                            <polygon id="Fill-28" fill="#FFFFFF" points="155.06335 87.5403046 170.704772 87.5403046 170.704772 85.6787817 155.06335 85.6787817"></polygon>
                            <polygon id="Fill-29" fill="#FFFFFF" points="155.06335 93.2869036 170.704772 93.2869036 170.704772 91.4253807 155.06335 91.4253807"></polygon>
                            <polygon id="Fill-30" fill="#FFFFFF" points="155.06335 99.0347208 170.704772 99.0347208 170.704772 97.173198 155.06335 97.173198"></polygon>
                            <path d="M225.823797,4.13372589 L222.826843,4.13372589 C222.589279,4.13372589 222.361462,4.16418274 222.138518,4.21413198 C221.871716,2.00296447 219.996792,0.268142132 217.716183,0.268142132 L213.480244,0.268142132 C211.445726,0.268142132 209.736487,1.65210152 209.19801,3.51971574 C209.098112,3.50753299 209.00065,3.48925888 208.898315,3.48925888 L206.411817,3.48925888 C204.966944,3.48925888 203.785218,4.67098477 203.785218,6.11585787 C203.785218,6.43382741 203.851005,6.73595939 203.955777,7.01859898 L199.085117,7.01859898 C198.137299,7.01859898 197.361259,7.79463959 197.361259,8.74245685 C197.361259,9.69027411 198.137299,10.4663147 199.085117,10.4663147 L222.826843,10.4663147 L223.963492,10.4663147 L225.823797,10.4663147 C227.564711,10.4663147 228.990091,9.04093401 228.990091,7.3000203 C228.990091,5.5591066 227.564711,4.13372589 225.823797,4.13372589" id="Fill-32" fill="#FFFFFF"></path>
                            <path d="M307.757685,29.9087513 L299.656162,29.9087513 C299.815756,29.4787005 299.915655,29.0206294 299.915655,28.5369746 C299.915655,26.3404264 298.119919,24.5446904 295.924589,24.5446904 L293.12134,24.5446904 C292.291695,21.7243858 289.677279,19.6484467 286.597482,19.6484467 L280.160122,19.6484467 C277.064487,19.6484467 274.441543,21.7463147 273.625299,24.5885482 C273.482761,24.5727107 273.34266,24.5446904 273.195249,24.5446904 L269.417381,24.5446904 C267.220832,24.5446904 265.425096,26.3404264 265.425096,28.5369746 C265.425096,29.0206294 265.524995,29.4787005 265.684589,29.9087513 L258.282355,29.9087513 C256.842355,29.9087513 255.663066,31.0880406 255.663066,32.5280406 C255.663066,33.9692589 256.842355,35.1485482 258.282355,35.1485482 L269.94733,35.1485482 L296.092711,35.1485482 L307.757685,35.1485482 C309.198904,35.1485482 310.376975,33.9692589 310.376975,32.5280406 C310.376975,31.0880406 309.198904,29.9087513 307.757685,29.9087513" id="Fill-33" fill="#FDEDAD"></path>
                            <path d="M56.2372792,33.1400203 L47.6289543,33.1400203 C47.7982944,32.6831675 47.9055025,32.1958579 47.9055025,31.6817462 C47.9055025,29.3487513 45.996467,27.4397157 43.6634721,27.4397157 L40.6847919,27.4397157 C39.8039797,24.4439797 37.0263147,22.2376853 33.7540305,22.2376853 L26.9134213,22.2376853 C23.6240812,22.2376853 20.8366701,24.4671269 19.9704772,27.4860102 C19.8181929,27.4701726 19.6695635,27.4397157 19.5136244,27.4397157 L15.4981929,27.4397157 C13.165198,27.4397157 11.2561624,29.3487513 11.2561624,31.6817462 C11.2561624,32.1958579 11.3633706,32.6831675 11.5327107,33.1400203 L3.66753299,33.1400203 C2.13616244,33.1400203 0.88377665,34.3924061 0.88377665,35.9237766 C0.88377665,37.4539289 2.13616244,38.7063147 3.66753299,38.7063147 L16.0622538,38.7063147 L43.8425584,38.7063147 L56.2372792,38.7063147 C57.7686497,38.7063147 59.0210355,37.4539289 59.0210355,35.9237766 C59.0210355,34.3924061 57.7686497,33.1400203 56.2372792,33.1400203" id="Fill-34" fill="#FFFFFF"></path>
                            <path d="M171.452426,32.3071675 L167.824406,32.3071675 C167.962071,31.9770152 168.040041,31.6164061 168.040041,31.2375228 C168.040041,29.7024975 166.784,28.4464569 165.248975,28.4464569 L162.607756,28.4464569 C162.473746,28.4464569 162.347046,28.4683858 162.217909,28.4866599 C161.506437,26.8273706 159.854457,25.6553909 157.941766,25.6553909 L153.538924,25.6553909 C150.980548,25.6553909 148.886335,27.7496041 148.886335,30.3079797 C148.886335,31.0255431 149.065421,31.6980305 149.359025,32.3071675 L146.047756,32.3071675 C145.081665,32.3071675 144.292223,33.0966091 144.292223,34.0627005 L144.292223,34.3952893 C144.292223,35.3601624 145.081665,36.1496041 146.047756,36.1496041 L171.452426,36.1496041 C172.417299,36.1496041 173.206741,35.3601624 173.206741,34.3952893 L173.206741,34.0627005 C173.206741,33.0966091 172.417299,32.3071675 171.452426,32.3071675" id="Fill-36" fill="#FDEDAD"></path>
                        </g>
                        <polygon id="Fill-1" fill="#EBBD0E" points="534.733822 227.748272 558.364398 227.748272 558.364398 80.9675393 534.733822 80.9675393"></polygon>
                        <polygon id="Fill-2" fill="#FBD133" points="511.104503 227.748272 534.733822 227.748272 534.733822 70.5432461 511.104503 70.5432461"></polygon>
                        <polygon id="Fill-3" fill="#FBD133" points="534.733822 83.0508901 558.364398 83.0508901 558.364398 78.8816754 534.733822 78.8816754"></polygon>
                        <polygon id="Fill-4" fill="#EBBD0E" points="534.733822 78.8816754 553.963979 78.8816754 553.963979 74.7124607 534.733822 74.7124607"></polygon>
                        <polygon id="Fill-5" fill="#FBD133" points="534.733822 74.7124607 548.934031 74.7124607 548.934031 70.5432461 534.733822 70.5432461"></polygon>
                        <polygon id="Fill-6" fill="#FFFFFF" points="516.354346 82.7794764 528.130681 82.7794764 528.130681 81.2741361 516.354346 81.2741361"></polygon>
                        <polygon id="Fill-7" fill="#FFFFFF" points="516.354346 87.4274346 528.130681 87.4274346 528.130681 85.9220942 516.354346 85.9220942"></polygon>
                        <polygon id="Fill-8" fill="#FFFFFF" points="516.354346 92.0753927 528.130681 92.0753927 528.130681 90.5700524 516.354346 90.5700524"></polygon>
                        <polygon id="Fill-9" fill="#FFFFFF" points="516.354346 96.7220942 528.130681 96.7220942 528.130681 95.2167539 516.354346 95.2167539"></polygon>
                        <polygon id="Fill-10" fill="#FFFFFF" points="516.354346 106.01801 528.130681 106.01801 528.130681 104.51267 516.354346 104.51267"></polygon>
                        <polygon id="Fill-11" fill="#FFFFFF" points="516.354346 110.665969 528.130681 110.665969 528.130681 109.160628 516.354346 109.160628"></polygon>
                        <polygon id="Fill-12" fill="#FFFFFF" points="516.354346 115.313927 528.130681 115.313927 528.130681 113.808586 516.354346 113.808586"></polygon>
                        <polygon id="Fill-13" fill="#FFFFFF" points="516.354346 157.770052 528.130681 157.770052 528.130681 156.264712 516.354346 156.264712"></polygon>
                        <polygon id="Fill-14" fill="#FFFFFF" points="516.354346 162.41801 528.130681 162.41801 528.130681 160.91267 516.354346 160.91267"></polygon>
                        <polygon id="Fill-15" fill="#FFFFFF" points="516.354346 167.065969 528.130681 167.065969 528.130681 165.560628 516.354346 165.560628"></polygon>
                        <polygon id="Fill-16" fill="#FFFFFF" points="516.354346 171.713927 528.130681 171.713927 528.130681 170.208586 516.354346 170.208586"></polygon>
                        <polygon id="Fill-17" fill="#FFFFFF" points="516.354346 176.360628 528.130681 176.360628 528.130681 174.855288 516.354346 174.855288"></polygon>
                        <polygon id="Fill-18" fill="#FFFFFF" points="516.354346 181.008586 528.130681 181.008586 528.130681 179.503246 516.354346 179.503246"></polygon>
                        <polygon id="Fill-19" fill="#FFFFFF" points="516.354346 185.656545 528.130681 185.656545 528.130681 184.151204 516.354346 184.151204"></polygon>
                        <polygon id="Fill-20" fill="#FFFFFF" points="516.354346 190.304503 528.130681 190.304503 528.130681 188.799162 516.354346 188.799162"></polygon>
                        <polygon id="Fill-21" fill="#FFFFFF" points="516.354346 120.18178 528.130681 120.18178 528.130681 118.67644 516.354346 118.67644"></polygon>
                        <polygon id="Fill-22" fill="#FFFFFF" points="516.354346 129.477696 528.130681 129.477696 528.130681 127.972356 516.354346 127.972356"></polygon>
                        <polygon id="Fill-23" fill="#FFFFFF" points="516.354346 134.125654 528.130681 134.125654 528.130681 132.620314 516.354346 132.620314"></polygon>
                        <polygon id="Fill-24" fill="#FFFFFF" points="516.354346 138.773613 528.130681 138.773613 528.130681 137.268272 516.354346 137.268272"></polygon>
                        <polygon id="Fill-25" fill="#FFFFFF" points="516.354346 143.421571 528.130681 143.421571 528.130681 141.91623 516.354346 141.91623"></polygon>
                        <polygon id="Fill-26" fill="#FFFFFF" points="516.354346 148.069529 528.130681 148.069529 528.130681 146.564188 516.354346 146.564188"></polygon>
                        <polygon id="Fill-27" fill="#EBBD0E" points="427.398534 227.747016 452.918953 227.747016 452.918953 112.931518 427.398534 112.931518"></polygon>
                        <polygon id="Fill-28" fill="#FDEDAD" points="449.677068 227.747016 486.88712 227.747016 486.88712 112.931518 449.677068 112.931518"></polygon>
                        <polygon id="Fill-29" fill="#FFFFFF" points="455.249843 119.126283 465.079791 119.126283 465.079791 117.721466 455.249843 117.721466"></polygon>
                        <polygon id="Fill-30" fill="#FFFFFF" points="455.249843 122.904712 465.079791 122.904712 465.079791 121.499895 455.249843 121.499895"></polygon>
                        <polygon id="Fill-31" fill="#FFFFFF" points="455.249843 126.681885 465.079791 126.681885 465.079791 125.277068 455.249843 125.277068"></polygon>
                        <polygon id="Fill-32" fill="#FFFFFF" points="455.249843 130.460314 465.079791 130.460314 465.079791 129.055497 455.249843 129.055497"></polygon>
                        <polygon id="Fill-33" fill="#FFFFFF" points="455.249843 134.237487 465.079791 134.237487 465.079791 132.83267 455.249843 132.83267"></polygon>
                        <polygon id="Fill-34" fill="#FFFFFF" points="455.249843 138.015916 465.079791 138.015916 465.079791 136.611099 455.249843 136.611099"></polygon>
                        <polygon id="Fill-35" fill="#FFFFFF" points="455.249843 141.793089 465.079791 141.793089 465.079791 140.388272 455.249843 140.388272"></polygon>
                        <polygon id="Fill-36" fill="#FFFFFF" points="455.249843 145.571518 465.079791 145.571518 465.079791 144.166702 455.249843 144.166702"></polygon>
                        <polygon id="Fill-37" fill="#FFFFFF" points="455.249843 149.348691 465.079791 149.348691 465.079791 147.943874 455.249843 147.943874"></polygon>
                        <polygon id="Fill-38" fill="#FFFFFF" points="455.249843 153.12712 465.079791 153.12712 465.079791 151.722304 455.249843 151.722304"></polygon>
                        <polygon id="Fill-39" fill="#FFFFFF" points="455.249843 156.904293 465.079791 156.904293 465.079791 155.499476 455.249843 155.499476"></polygon>
                        <polygon id="Fill-40" fill="#FFFFFF" points="455.249843 160.682723 465.079791 160.682723 465.079791 159.277906 455.249843 159.277906"></polygon>
                        <polygon id="Fill-41" fill="#FFFFFF" points="455.249843 164.461152 465.079791 164.461152 465.079791 163.056335 455.249843 163.056335"></polygon>
                        <polygon id="Fill-42" fill="#FFFFFF" points="455.249843 168.238325 465.079791 168.238325 465.079791 166.833508 455.249843 166.833508"></polygon>
                        <polygon id="Fill-43" fill="#FFFFFF" points="473.415707 119.126283 483.245654 119.126283 483.245654 117.721466 473.415707 117.721466"></polygon>
                        <polygon id="Fill-44" fill="#FFFFFF" points="473.415707 122.904712 483.245654 122.904712 483.245654 121.499895 473.415707 121.499895"></polygon>
                        <polygon id="Fill-45" fill="#FFFFFF" points="473.415707 126.681885 483.245654 126.681885 483.245654 125.277068 473.415707 125.277068"></polygon>
                        <polygon id="Fill-46" fill="#FFFFFF" points="473.415707 130.460314 483.245654 130.460314 483.245654 129.055497 473.415707 129.055497"></polygon>
                        <polygon id="Fill-47" fill="#FFFFFF" points="473.415707 134.237487 483.245654 134.237487 483.245654 132.83267 473.415707 132.83267"></polygon>
                        <polygon id="Fill-48" fill="#FFFFFF" points="473.415707 138.015916 483.245654 138.015916 483.245654 136.611099 473.415707 136.611099"></polygon>
                        <polygon id="Fill-49" fill="#FFFFFF" points="473.415707 141.793089 483.245654 141.793089 483.245654 140.388272 473.415707 140.388272"></polygon>
                        <polygon id="Fill-50" fill="#FFFFFF" points="473.415707 145.571518 483.245654 145.571518 483.245654 144.166702 473.415707 144.166702"></polygon>
                        <polygon id="Fill-51" fill="#FFFFFF" points="473.415707 149.348691 483.245654 149.348691 483.245654 147.943874 473.415707 147.943874"></polygon>
                        <polygon id="Fill-52" fill="#FFFFFF" points="473.415707 153.12712 483.245654 153.12712 483.245654 151.722304 473.415707 151.722304"></polygon>
                        <polygon id="Fill-53" fill="#FFFFFF" points="473.415707 156.904293 483.245654 156.904293 483.245654 155.499476 473.415707 155.499476"></polygon>
                        <polygon id="Fill-54" fill="#FFFFFF" points="473.415707 160.682723 483.245654 160.682723 483.245654 159.277906 473.415707 159.277906"></polygon>
                        <polygon id="Fill-55" fill="#FFFFFF" points="473.415707 164.461152 483.245654 164.461152 483.245654 163.056335 473.415707 163.056335"></polygon>
                        <polygon id="Fill-56" fill="#FFFFFF" points="473.415707 168.238325 483.245654 168.238325 483.245654 166.833508 473.415707 166.833508"></polygon>
                        <polygon id="Fill-57" fill="#EBBD0E" points="433.243979 112.931518 482.552042 112.931518 482.552042 108.174241 433.243979 108.174241"></polygon>
                        <polygon id="Fill-58" fill="#FBD133" points="437.517487 108.174241 478.337592 108.174241 478.337592 103.416963 437.517487 103.416963"></polygon>
                        <polygon id="Fill-59" fill="#FBD133" points="408.875812 225.991623 429.956859 225.991623 429.956859 92.7991623 408.875812 92.7991623"></polygon>
                        <polygon id="Fill-60" fill="#EBBD0E" points="370.216963 227.747016 411.277068 227.747016 411.277068 92.7991623 370.216963 92.7991623"></polygon>
                        <polygon id="Fill-61" fill="#FFFFFF" points="375.182827 225.991623 377.150576 225.991623 377.150576 92.7991623 375.182827 92.7991623"></polygon>
                        <polygon id="Fill-62" fill="#FFFFFF" points="380.23288 225.991623 382.200628 225.991623 382.200628 92.7991623 380.23288 92.7991623"></polygon>
                        <polygon id="Fill-63" fill="#FFFFFF" points="385.57445 225.991623 387.542199 225.991623 387.542199 92.7991623 385.57445 92.7991623"></polygon>
                        <polygon id="Fill-64" fill="#FFFFFF" points="390.624503 225.991623 392.592251 225.991623 392.592251 92.7991623 390.624503 92.7991623"></polygon>
                        <polygon id="Fill-65" fill="#FFFFFF" points="395.966073 225.991623 397.933822 225.991623 397.933822 92.7991623 395.966073 92.7991623"></polygon>
                        <polygon id="Fill-66" fill="#FFFFFF" points="401.016126 225.991623 402.983874 225.991623 402.983874 92.7991623 401.016126 92.7991623"></polygon>
                        <path d="M429.957613,85.9721047 L375.716356,85.9721047 C372.679288,85.9721047 370.217717,88.4336754 370.217717,91.4707435 L370.217717,92.8001675 L429.957613,92.8001675 L429.957613,85.9721047 L429.957613,85.9721047 Z" id="Fill-67" fill="#EBBD0E"></path>
                        <path d="M413.341948,30.789445 L416.433047,30.789445 C416.676817,30.789445 416.913047,30.8208586 417.142995,30.872377 C417.416921,28.5917487 419.352,26.8011728 421.702995,26.8011728 L426.073257,26.8011728 C428.171686,26.8011728 429.934618,28.2298639 430.49001,30.1561466 C430.593047,30.1435812 430.693571,30.124733 430.79912,30.124733 L433.363728,30.124733 C434.85399,30.124733 436.072838,31.3435812 436.072838,32.8338429 C436.072838,33.161801 436.004984,33.4734241 435.896921,33.7649424 L440.920586,33.7649424 C441.898178,33.7649424 442.698597,34.5653613 442.698597,35.5429529 C442.698597,36.5205445 441.898178,37.3209634 440.920586,37.3209634 L416.433047,37.3209634 L415.260691,37.3209634 L413.341948,37.3209634 C411.546346,37.3209634 410.076188,35.8508063 410.076188,34.0552042 C410.076188,32.2583455 411.546346,30.789445 413.341948,30.789445" id="Fill-71" fill="#FFFFFF"></path>
                        <path d="M513.133738,5.24368586 L510.042639,5.24368586 C509.798869,5.24368586 509.562639,5.27509948 509.332691,5.3266178 C509.057508,3.04598953 507.123686,1.25541361 504.771435,1.25541361 L500.402429,1.25541361 C498.304,1.25541361 496.541068,2.68410471 495.985675,4.61038743 C495.882639,4.59782199 495.782115,4.57897382 495.676565,4.57897382 L493.111958,4.57897382 C491.621696,4.57897382 490.402848,5.79782199 490.402848,7.28808377 C490.402848,7.61604188 490.470702,7.92766492 490.578764,8.21918325 L485.555099,8.21918325 C484.577508,8.21918325 483.777089,9.01960209 483.777089,9.99719372 C483.777089,10.9747853 484.577508,11.7752042 485.555099,11.7752042 L510.042639,11.7752042 L511.216251,11.7752042 L513.133738,11.7752042 C514.92934,11.7752042 516.399497,10.3050471 516.399497,8.50944503 C516.399497,6.71384293 514.92934,5.24368586 513.133738,5.24368586" id="Fill-72" fill="#FFFFFF"></path>
                        <path d="M546.070785,19.4514346 L537.714764,19.4514346 C537.879372,19.0078743 537.982408,18.5354136 537.982408,18.0365654 C537.982408,15.7710157 536.130262,13.9188691 533.865969,13.9188691 L530.97466,13.9188691 C530.118953,11.0099686 527.422408,8.86881675 524.245864,8.86881675 L517.606283,8.86881675 C514.413403,8.86881675 511.708063,11.0325864 510.866178,13.9641047 C510.719162,13.9477696 510.57466,13.9188691 510.422618,13.9188691 L506.526073,13.9188691 C504.260524,13.9188691 502.408377,15.7710157 502.408377,18.0365654 C502.408377,18.5354136 502.511414,19.0078743 502.676021,19.4514346 L495.041257,19.4514346 C493.554764,19.4514346 492.339686,20.6677696 492.339686,22.1530052 C492.339686,23.6394974 493.554764,24.8558325 495.041257,24.8558325 L507.07267,24.8558325 L534.039372,24.8558325 L546.070785,24.8558325 C547.557277,24.8558325 548.772356,23.6394974 548.772356,22.1530052 C548.772356,20.6677696 547.557277,19.4514346 546.070785,19.4514346" id="Fill-73" fill="#FDEDAD"></path>
                        <path d="M386.426262,17.3408586 L377.547518,17.3408586 C377.723435,16.8696545 377.832754,16.3670366 377.832754,15.8367749 C377.832754,13.4304921 375.863749,11.4614869 373.457466,11.4614869 L370.385215,11.4614869 C369.476733,8.37164398 366.611812,6.09604188 363.236733,6.09604188 L356.181236,6.09604188 C352.789822,6.09604188 349.913592,8.39551832 349.020188,11.5104921 C348.86312,11.4929005 348.709822,11.4614869 348.548984,11.4614869 L344.407414,11.4614869 C342.001131,11.4614869 340.033382,13.4304921 340.033382,15.8367749 C340.033382,16.3670366 340.142702,16.8696545 340.317361,17.3408586 L332.20511,17.3408586 C330.625634,17.3408586 329.333906,18.6325864 329.333906,20.2120628 C329.333906,21.7902827 330.625634,23.083267 332.20511,23.083267 L344.989194,23.083267 L373.642178,23.083267 L386.426262,23.083267 C388.005738,23.083267 389.297466,21.7902827 389.297466,20.2120628 C389.297466,18.6325864 388.005738,17.3408586 386.426262,17.3408586" id="Fill-74" fill="#FFFFFF"></path>
                        <path d="M495.384628,68.6284817 L492.100021,68.6284817 C491.841173,68.6284817 491.589864,68.6624084 491.346094,68.7176963 C491.053319,66.2925654 488.998869,64.3914136 486.499602,64.3914136 L481.857927,64.3914136 C479.62756,64.3914136 477.754052,65.9080628 477.163476,67.9549738 C477.054157,67.9424084 476.947351,67.9223037 476.835518,67.9223037 L474.110073,67.9223037 C472.526827,67.9223037 471.23133,69.217801 471.23133,70.8010471 C471.23133,71.1491099 471.304209,71.4795812 471.418555,71.7899476 L466.080754,71.7899476 C465.041592,71.7899476 464.192168,72.6406283 464.192168,73.6797906 C464.192168,74.7176963 465.041592,75.568377 466.080754,75.568377 L492.100021,75.568377 L493.346513,75.568377 L495.384628,75.568377 C497.293319,75.568377 498.855204,74.0064921 498.855204,72.097801 C498.855204,70.1903665 497.293319,68.6284817 495.384628,68.6284817" id="Fill-75" fill="#FDEDAD"></path>
                        <path d="M126.070785,19.4514346 L117.714764,19.4514346 C117.879372,19.0078743 117.982408,18.5354136 117.982408,18.0365654 C117.982408,15.7710157 116.130262,13.9188691 113.865969,13.9188691 L110.97466,13.9188691 C110.118953,11.0099686 107.422408,8.86881675 104.245864,8.86881675 L97.6062827,8.86881675 C94.4134031,8.86881675 91.7080628,11.0325864 90.866178,13.9641047 C90.7191623,13.9477696 90.5746597,13.9188691 90.4226178,13.9188691 L86.5260733,13.9188691 C84.2605236,13.9188691 82.408377,15.7710157 82.408377,18.0365654 C82.408377,18.5354136 82.5114136,19.0078743 82.6760209,19.4514346 L75.0412565,19.4514346 C73.5547644,19.4514346 72.3396859,20.6677696 72.3396859,22.1530052 C72.3396859,23.6394974 73.5547644,24.8558325 75.0412565,24.8558325 L87.0726702,24.8558325 L114.039372,24.8558325 L126.070785,24.8558325 C127.557277,24.8558325 128.772356,23.6394974 128.772356,22.1530052 C128.772356,20.6677696 127.557277,19.4514346 126.070785,19.4514346" id="Fill-73-Copy" fill="#FDEDAD"></path>
                        <polygon id="Fill-1" fill="#EBBD0E" points="1269.85848 227.433706 1303.15147 227.433706 1303.15147 75.8536041 1269.85848 75.8536041"></polygon>
                        <path d="M1278.29978,227.433462 L1278.29978,75.8533604 L1253.64556,75.8533604 C1247.04739,75.8533604 1241.69795,81.202802 1241.69795,87.8021929 L1241.69795,227.433462 L1278.29978,227.433462 L1278.29978,227.433462 Z" id="Fill-2" fill="#FDEDAD"></path>
                        <path d="M1254.86286,227.433462 L1254.86286,89.7331574 C1254.86286,88.9424975 1254.22205,88.3016853 1253.43261,88.3016853 C1252.64195,88.3016853 1252.00114,88.9424975 1252.00114,89.7331574 L1252.00114,227.433462 L1254.86286,227.433462 Z" id="Fill-4" fill="#FFFFFF"></path>
                        <path d="M1261.38197,227.433462 L1261.38197,89.7331574 C1261.38197,88.9424975 1260.74116,88.3016853 1259.95172,88.3016853 C1259.16106,88.3016853 1258.52024,88.9424975 1258.52024,89.7331574 L1258.52024,227.433462 L1261.38197,227.433462 Z" id="Fill-6" fill="#FFFFFF"></path>
                        <path d="M1268.14376,227.433462 L1268.14376,89.7331574 C1268.14376,88.9424975 1267.50294,88.3016853 1266.7135,88.3016853 C1265.92284,88.3016853 1265.28203,88.9424975 1265.28203,89.7331574 L1265.28203,227.433462 L1268.14376,227.433462 Z" id="Fill-8" fill="#FFFFFF"></path>
                        <path d="M1303.15135,69.7668629 L1258.50039,69.7668629 C1256.49145,69.7668629 1254.86262,71.3956954 1254.86262,73.4046294 L1254.86262,75.8533604 L1303.15135,75.8533604 L1303.15135,69.7668629 Z" id="Fill-10" fill="#EBBD0E"></path>
                        <polygon id="Fill-12" fill="#A9A9A9" points="1159.14173 227.433706 1187.69198 227.433706 1187.69198 81.6014213 1159.14173 81.6014213"></polygon>
                        <polygon id="Fill-14" fill="#DBDBDB" points="1184.31249 227.433706 1212.86274 227.433706 1212.86274 81.6014213 1184.31249 81.6014213"></polygon>
                        <polygon id="Fill-15" fill="#FFFFFF" points="1192.67716 227.391066 1194.89685 227.391066 1194.89685 81.600203 1192.67716 81.600203"></polygon>
                        <polygon id="Fill-16" fill="#FFFFFF" points="1198.58822 227.391066 1200.80792 227.391066 1200.80792 81.600203 1198.58822 81.600203"></polygon>
                        <polygon id="Fill-17" fill="#FFFFFF" points="1204.62112 227.391066 1206.84081 227.391066 1206.84081 81.600203 1204.62112 81.600203"></polygon>
                        <polygon id="Fill-18" fill="#EBBD0E" points="1098.90173 229.291574 1130.28934 229.291574 1130.28934 82.6564467 1098.90173 82.6564467"></polygon>
                        <polygon id="Fill-19" fill="#FDEDAD" points="1130.29056 229.291574 1161.67817 229.291574 1161.67817 67.1892386 1130.29056 67.1892386"></polygon>
                        <polygon id="Fill-20" fill="#FBD133" points="1098.90173 82.6564467 1130.28934 82.6564467 1130.28934 77.5007107 1098.90173 77.5007107"></polygon>
                        <polygon id="Fill-21" fill="#EBBD0E" points="1104.74579 77.5007107 1130.28934 77.5007107 1130.28934 72.3449746 1104.74579 72.3449746"></polygon>
                        <polygon id="Fill-22" fill="#FBD133" points="1111.42802 72.3449746 1130.28934 72.3449746 1130.28934 67.1892386 1111.42802 67.1892386"></polygon>
                        <polygon id="Fill-23" fill="#FFFFFF" points="1139.06335 76.7843655 1154.70477 76.7843655 1154.70477 74.9228426 1139.06335 74.9228426"></polygon>
                        <polygon id="Fill-24" fill="#FFFFFF" points="1139.06335 82.5321827 1154.70477 82.5321827 1154.70477 80.6706599 1139.06335 80.6706599"></polygon>
                        <polygon id="Fill-25" fill="#FFFFFF" points="1139.06335 88.2787817 1154.70477 88.2787817 1154.70477 86.4172589 1139.06335 86.4172589"></polygon>
                        <polygon id="Fill-26" fill="#FFFFFF" points="1139.06335 94.026599 1154.70477 94.026599 1154.70477 92.1650761 1139.06335 92.1650761"></polygon>
                        <polygon id="Fill-27" fill="#FFFFFF" points="1139.06335 99.773198 1154.70477 99.773198 1154.70477 97.9116751 1139.06335 97.9116751"></polygon>
                        <polygon id="Fill-28" fill="#FFFFFF" points="1139.06335 105.521015 1154.70477 105.521015 1154.70477 103.659492 1139.06335 103.659492"></polygon>
                        <polygon id="Fill-29" fill="#FFFFFF" points="1139.06335 111.267614 1154.70477 111.267614 1154.70477 109.406091 1139.06335 109.406091"></polygon>
                        <polygon id="Fill-30" fill="#FFFFFF" points="1139.06335 117.015431 1154.70477 117.015431 1154.70477 115.153909 1139.06335 115.153909"></polygon>
                        <path d="M1259.8238,14.1144365 L1256.82684,14.1144365 C1256.58928,14.1144365 1256.36146,14.1448934 1256.13852,14.1948426 C1255.87172,11.9836751 1253.99679,10.2488528 1251.71618,10.2488528 L1247.48024,10.2488528 C1245.44573,10.2488528 1243.73649,11.6328122 1243.19801,13.5004264 C1243.09811,13.4882437 1243.00065,13.4699695 1242.89831,13.4699695 L1240.41182,13.4699695 C1238.96694,13.4699695 1237.78522,14.6516954 1237.78522,16.0965685 C1237.78522,16.4145381 1237.85101,16.7166701 1237.95578,16.9993096 L1233.08512,16.9993096 C1232.1373,16.9993096 1231.36126,17.7753503 1231.36126,18.7231675 C1231.36126,19.6709848 1232.1373,20.4470254 1233.08512,20.4470254 L1256.82684,20.4470254 L1257.96349,20.4470254 L1259.8238,20.4470254 C1261.56471,20.4470254 1262.99009,19.0216447 1262.99009,17.280731 C1262.99009,15.5398173 1261.56471,14.1144365 1259.8238,14.1144365" id="Fill-32" fill="#FFFFFF"></path>
                        <path d="M1291.75769,47.8894619 L1283.65616,47.8894619 C1283.81576,47.4594112 1283.91565,47.0013401 1283.91565,46.5176853 C1283.91565,44.3211371 1282.11992,42.525401 1279.92459,42.525401 L1277.12134,42.525401 C1276.2917,39.7050964 1273.67728,37.6291574 1270.59748,37.6291574 L1264.16012,37.6291574 C1261.06449,37.6291574 1258.44154,39.7270254 1257.6253,42.5692589 C1257.48276,42.5534213 1257.34266,42.525401 1257.19525,42.525401 L1253.41738,42.525401 C1251.22083,42.525401 1249.4251,44.3211371 1249.4251,46.5176853 C1249.4251,47.0013401 1249.52499,47.4594112 1249.68459,47.8894619 L1242.28236,47.8894619 C1240.84236,47.8894619 1239.66307,49.0687513 1239.66307,50.5087513 C1239.66307,51.9499695 1240.84236,53.1292589 1242.28236,53.1292589 L1253.94733,53.1292589 L1280.09271,53.1292589 L1291.75769,53.1292589 C1293.1989,53.1292589 1294.37697,51.9499695 1294.37697,50.5087513 C1294.37697,49.0687513 1293.1989,47.8894619 1291.75769,47.8894619" id="Fill-33" fill="#FDEDAD"></path>
                        <path d="M1150.23728,41.120731 L1141.62895,41.120731 C1141.79829,40.6638782 1141.9055,40.1765685 1141.9055,39.6624569 C1141.9055,37.3294619 1139.99647,35.4204264 1137.66347,35.4204264 L1134.68479,35.4204264 C1133.80398,32.4246904 1131.02631,30.2183959 1127.75403,30.2183959 L1120.91342,30.2183959 C1117.62408,30.2183959 1114.83667,32.4478376 1113.97048,35.4667208 C1113.81819,35.4508832 1113.66956,35.4204264 1113.51362,35.4204264 L1109.49819,35.4204264 C1107.1652,35.4204264 1105.25616,37.3294619 1105.25616,39.6624569 C1105.25616,40.1765685 1105.36337,40.6638782 1105.53271,41.120731 L1097.66753,41.120731 C1096.13616,41.120731 1094.88378,42.3731168 1094.88378,43.9044873 C1094.88378,45.4346396 1096.13616,46.6870254 1097.66753,46.6870254 L1110.06225,46.6870254 L1137.84256,46.6870254 L1150.23728,46.6870254 C1151.76865,46.6870254 1153.02104,45.4346396 1153.02104,43.9044873 C1153.02104,42.3731168 1151.76865,41.120731 1150.23728,41.120731" id="Fill-34" fill="#FFFFFF"></path>
                        <path d="M1224.89503,34.4079594 L1221.71046,34.4079594 C1221.45949,34.4079594 1221.21584,34.4408528 1220.97949,34.4944569 C1220.69685,32.1431878 1218.70376,30.2999391 1216.28061,30.2999391 L1211.7803,30.2999391 C1209.61787,30.2999391 1207.80142,31.7703959 1207.22883,33.7549645 C1207.12284,33.7427817 1207.01929,33.7232893 1206.91086,33.7232893 L1204.26843,33.7232893 C1202.7334,33.7232893 1201.47736,34.9793299 1201.47736,36.5143553 C1201.47736,36.8518173 1201.54802,37.1722234 1201.65888,37.4731371 L1196.48365,37.4731371 C1195.47614,37.4731371 1194.65259,38.2979086 1194.65259,39.3054213 C1194.65259,40.3117157 1195.47614,41.1364873 1196.48365,41.1364873 L1221.71046,41.1364873 L1222.91898,41.1364873 L1224.89503,41.1364873 C1226.74558,41.1364873 1228.2599,39.6221726 1228.2599,37.7716142 C1228.2599,35.9222741 1226.74558,34.4079594 1224.89503,34.4079594" id="Fill-35" fill="#FDEDAD"></path>
                        <path d="M1165.45243,50.2878782 L1161.82441,50.2878782 C1161.96207,49.9577259 1162.04004,49.5971168 1162.04004,49.2182335 C1162.04004,47.6832081 1160.784,46.4271675 1159.24897,46.4271675 L1156.60776,46.4271675 C1156.47375,46.4271675 1156.34705,46.4490964 1156.21791,46.4673706 C1155.50644,44.8080812 1153.85446,43.6361015 1151.94177,43.6361015 L1147.53892,43.6361015 C1144.98055,43.6361015 1142.88634,45.7303147 1142.88634,48.2886904 C1142.88634,49.0062538 1143.06542,49.6787411 1143.35903,50.2878782 L1140.04776,50.2878782 C1139.08166,50.2878782 1138.29222,51.0773198 1138.29222,52.0434112 L1138.29222,52.376 C1138.29222,53.3408731 1139.08166,54.1303147 1140.04776,54.1303147 L1165.45243,54.1303147 C1166.4173,54.1303147 1167.20674,53.3408731 1167.20674,52.376 L1167.20674,52.0434112 C1167.20674,51.0773198 1166.4173,50.2878782 1165.45243,50.2878782" id="Fill-36" fill="#FDEDAD"></path>
                        <path d="M1371.04306,34.3537143 L1367.84224,34.3537143 C1367.59,34.3537143 1367.3451,34.3867755 1367.10755,34.4406531 C1366.82224,32.0773878 1364.8202,30.2247347 1362.38469,30.2247347 L1357.86143,30.2247347 C1355.68796,30.2247347 1353.86224,31.7026939 1353.28673,33.6973878 C1353.1802,33.6851429 1353.07612,33.665551 1352.96714,33.665551 L1350.31122,33.665551 C1348.76837,33.665551 1347.50592,34.928 1347.50592,36.4708571 C1347.50592,36.8100408 1347.57694,37.1320816 1347.68837,37.4345306 L1342.48673,37.4345306 C1341.47408,37.4345306 1340.64633,38.2635102 1340.64633,39.2761633 C1340.64633,40.2875918 1341.47408,41.1165714 1342.48673,41.1165714 L1367.84224,41.1165714 L1369.05694,41.1165714 L1371.04306,41.1165714 C1372.90306,41.1165714 1374.42388,39.5945306 1374.42388,37.7345306 C1374.42388,35.8757551 1372.90306,34.3537143 1371.04306,34.3537143" id="Fill-108" fill="#FDEDAD"></path>
                        <polygon id="Fill-1" fill="#FDEDAD" points="783.854286 228.285714 812.566122 228.285714 812.566122 114.928571 783.854286 114.928571"></polygon>
                        <polygon id="Fill-2" fill="#FFFFFF" points="786.283673 124.32898 806.133878 124.32898 806.133878 122.498367 786.283673 122.498367"></polygon>
                        <polygon id="Fill-3" fill="#FFFFFF" points="786.283673 129.977551 806.133878 129.977551 806.133878 128.146939 786.283673 128.146939"></polygon>
                        <polygon id="Fill-4" fill="#FFFFFF" points="786.283673 135.650612 806.133878 135.650612 806.133878 133.82 786.283673 133.82"></polygon>
                        <polygon id="Fill-5" fill="#FFFFFF" points="786.283673 141.299184 806.133878 141.299184 806.133878 139.468571 786.283673 139.468571"></polygon>
                        <polygon id="Fill-6" fill="#FFFFFF" points="786.283673 151.753878 806.133878 151.753878 806.133878 149.923265 786.283673 149.923265"></polygon>
                        <polygon id="Fill-7" fill="#FFFFFF" points="786.283673 157.403673 806.133878 157.403673 806.133878 155.573061 786.283673 155.573061"></polygon>
                        <polygon id="Fill-8" fill="#FFFFFF" points="786.283673 163.076735 806.133878 163.076735 806.133878 161.246122 786.283673 161.246122"></polygon>
                        <polygon id="Fill-9" fill="#FFFFFF" points="786.283673 168.725306 806.133878 168.725306 806.133878 166.894694 786.283673 166.894694"></polygon>
                        <polygon id="Fill-10" fill="#FFFFFF" points="786.283673 179.18 806.133878 179.18 806.133878 177.349388 786.283673 177.349388"></polygon>
                        <polygon id="Fill-11" fill="#FFFFFF" points="786.283673 184.828571 806.133878 184.828571 806.133878 182.997959 786.283673 182.997959"></polygon>
                        <polygon id="Fill-12" fill="#FFFFFF" points="786.283673 190.501633 806.133878 190.501633 806.133878 188.67102 786.283673 188.67102"></polygon>
                        <polygon id="Fill-13" fill="#FFFFFF" points="786.283673 196.150204 806.133878 196.150204 806.133878 194.319592 786.283673 194.319592"></polygon>
                        <polygon id="Fill-14" fill="#EBBD0E" points="812.566122 228.285714 826.415102 228.285714 826.415102 107.385714 812.566122 107.385714"></polygon>
                        <polygon id="Fill-15" fill="#FBD133" points="794.71 107.385714 826.41449 107.385714 812.566735 114.928571 780.908776 114.928571"></polygon>
                        <polygon id="Fill-16" fill="#A9A9A9" points="728.82449 228.60898 760.825306 228.60898 760.825306 85.1942857 728.82449 85.1942857"></polygon>
                        <polygon id="Fill-17" fill="#929292" points="728.82449 85.1942857 754.052653 85.1942857 754.052653 79.3008163 728.82449 79.3008163"></polygon>
                        <polygon id="Fill-18" fill="#929292" points="734.15102 79.3020408 754.052653 79.3020408 754.052653 73.4085714 734.15102 73.4085714"></polygon>
                        <path d="M789.44849,228.60898 L754.052163,228.60898 L754.052163,73.4085714 L770.913388,73.4085714 C781.150122,73.4085714 789.44849,81.7069388 789.44849,91.942449 L789.44849,228.60898 L789.44849,228.60898 Z" id="Fill-19" fill="#DBDBDB"></path>
                        <polygon id="Fill-21" fill="#FFFFFF" points="758.62 85.4195918 761.564898 85.4195918 761.564898 79.3020408 758.62 79.3020408"></polygon>
                        <polygon id="Fill-23" fill="#FFFFFF" points="766.367347 85.4195918 769.312245 85.4195918 769.312245 79.3020408 766.367347 79.3020408"></polygon>
                        <polygon id="Fill-24" fill="#FFFFFF" points="758.62 96.0493878 761.564898 96.0493878 761.564898 89.9318367 758.62 89.9318367"></polygon>
                        <polygon id="Fill-25" fill="#FFFFFF" points="766.367347 96.0493878 769.312245 96.0493878 769.312245 89.9318367 766.367347 89.9318367"></polygon>
                        <polygon id="Fill-26" fill="#FFFFFF" points="773.777959 96.0493878 776.722857 96.0493878 776.722857 89.9318367 773.777959 89.9318367"></polygon>
                        <polygon id="Fill-27" fill="#FFFFFF" points="758.62 107.385714 761.564898 107.385714 761.564898 101.268163 758.62 101.268163"></polygon>
                        <polygon id="Fill-28" fill="#FFFFFF" points="766.367347 107.385714 769.312245 107.385714 769.312245 101.268163 766.367347 101.268163"></polygon>
                        <polygon id="Fill-29" fill="#FFFFFF" points="773.777959 107.385714 776.722857 107.385714 776.722857 101.268163 773.777959 101.268163"></polygon>
                        <polygon id="Fill-30" fill="#FFFFFF" points="780.909388 107.385714 783.854286 107.385714 783.854286 101.268163 780.909388 101.268163"></polygon>
                        <polygon id="Fill-31" fill="#FFFFFF" points="758.62 129.290612 761.564898 129.290612 761.564898 123.173061 758.62 123.173061"></polygon>
                        <polygon id="Fill-32" fill="#FFFFFF" points="766.367347 129.290612 769.312245 129.290612 769.312245 123.173061 766.367347 123.173061"></polygon>
                        <polygon id="Fill-33" fill="#FFFFFF" points="773.777959 129.290612 776.722857 129.290612 776.722857 123.173061 773.777959 123.173061"></polygon>
                        <polygon id="Fill-34" fill="#FFFFFF" points="780.909388 129.290612 783.854286 129.290612 783.854286 123.173061 780.909388 123.173061"></polygon>
                        <polygon id="Fill-35" fill="#FFFFFF" points="758.62 139.995102 761.564898 139.995102 761.564898 133.877551 758.62 133.877551"></polygon>
                        <polygon id="Fill-36" fill="#FFFFFF" points="766.367347 139.995102 769.312245 139.995102 769.312245 133.877551 766.367347 133.877551"></polygon>
                        <polygon id="Fill-37" fill="#FFFFFF" points="773.777959 139.995102 776.722857 139.995102 776.722857 133.877551 773.777959 133.877551"></polygon>
                        <polygon id="Fill-38" fill="#FFFFFF" points="780.909388 139.995102 783.854286 139.995102 783.854286 133.877551 780.909388 133.877551"></polygon>
                        <polygon id="Fill-39" fill="#FFFFFF" points="758.62 151.108571 761.564898 151.108571 761.564898 144.99102 758.62 144.99102"></polygon>
                        <polygon id="Fill-40" fill="#FFFFFF" points="766.367347 151.108571 769.312245 151.108571 769.312245 144.99102 766.367347 144.99102"></polygon>
                        <polygon id="Fill-41" fill="#FFFFFF" points="773.777959 151.108571 776.722857 151.108571 776.722857 144.99102 773.777959 144.99102"></polygon>
                        <polygon id="Fill-42" fill="#FFFFFF" points="780.909388 151.108571 783.854286 151.108571 783.854286 144.99102 780.909388 144.99102"></polygon>
                        <polygon id="Fill-43" fill="#FFFFFF" points="758.62 161.813061 761.564898 161.813061 761.564898 155.69551 758.62 155.69551"></polygon>
                        <polygon id="Fill-44" fill="#FFFFFF" points="766.367347 161.813061 769.312245 161.813061 769.312245 155.69551 766.367347 155.69551"></polygon>
                        <polygon id="Fill-45" fill="#FFFFFF" points="773.777959 161.813061 776.722857 161.813061 776.722857 155.69551 773.777959 155.69551"></polygon>
                        <polygon id="Fill-46" fill="#FFFFFF" points="780.909388 161.813061 783.854286 161.813061 783.854286 155.69551 780.909388 155.69551"></polygon>
                        <polygon id="Fill-47" fill="#FFFFFF" points="758.62 182.40898 761.564898 182.40898 761.564898 176.291429 758.62 176.291429"></polygon>
                        <polygon id="Fill-48" fill="#FFFFFF" points="766.367347 182.40898 769.312245 182.40898 769.312245 176.291429 766.367347 176.291429"></polygon>
                        <polygon id="Fill-49" fill="#FFFFFF" points="773.777959 182.40898 776.722857 182.40898 776.722857 176.291429 773.777959 176.291429"></polygon>
                        <polygon id="Fill-50" fill="#FFFFFF" points="780.909388 182.40898 783.854286 182.40898 783.854286 176.291429 780.909388 176.291429"></polygon>
                        <polygon id="Fill-51" fill="#FFFFFF" points="758.62 193.113469 761.564898 193.113469 761.564898 186.995918 758.62 186.995918"></polygon>
                        <polygon id="Fill-52" fill="#FFFFFF" points="766.367347 193.113469 769.312245 193.113469 769.312245 186.995918 766.367347 186.995918"></polygon>
                        <polygon id="Fill-53" fill="#FFFFFF" points="773.777959 193.113469 776.722857 193.113469 776.722857 186.995918 773.777959 186.995918"></polygon>
                        <polygon id="Fill-54" fill="#FFFFFF" points="780.909388 193.113469 783.854286 193.113469 783.854286 186.995918 780.909388 186.995918"></polygon>
                        <polygon id="Fill-55" fill="#FFFFFF" points="758.62 204.757143 761.564898 204.757143 761.564898 198.639592 758.62 198.639592"></polygon>
                        <polygon id="Fill-56" fill="#FFFFFF" points="766.367347 204.757143 769.312245 204.757143 769.312245 198.639592 766.367347 198.639592"></polygon>
                        <polygon id="Fill-57" fill="#FFFFFF" points="773.777959 204.757143 776.722857 204.757143 776.722857 198.639592 773.777959 198.639592"></polygon>
                        <polygon id="Fill-58" fill="#FFFFFF" points="780.909388 204.757143 783.854286 204.757143 783.854286 198.639592 780.909388 198.639592"></polygon>
                        <polygon id="Fill-59" fill="#FFFFFF" points="758.62 215.461633 761.564898 215.461633 761.564898 209.344082 758.62 209.344082"></polygon>
                        <polygon id="Fill-60" fill="#FFFFFF" points="766.367347 215.461633 769.312245 215.461633 769.312245 209.344082 766.367347 209.344082"></polygon>
                        <polygon id="Fill-61" fill="#FFFFFF" points="773.777959 215.461633 776.722857 215.461633 776.722857 209.344082 773.777959 209.344082"></polygon>
                        <polygon id="Fill-62" fill="#FFFFFF" points="780.909388 215.461633 783.854286 215.461633 783.854286 209.344082 780.909388 209.344082"></polygon>
                        <polygon id="Fill-63" fill="#A9A9A9" points="633.602041 226.859184 662.15102 226.859184 662.15102 106.829796 633.602041 106.829796"></polygon>
                        <polygon id="Fill-64" fill="#DBDBDB" points="658.525306 226.859184 700.150612 226.859184 700.150612 106.829796 658.525306 106.829796"></polygon>
                        <polygon id="Fill-65" fill="#FFFFFF" points="664.757959 113.759184 675.753878 113.759184 675.753878 112.186939 664.757959 112.186939"></polygon>
                        <polygon id="Fill-66" fill="#FFFFFF" points="664.757959 117.984898 675.753878 117.984898 675.753878 116.412653 664.757959 116.412653"></polygon>
                        <polygon id="Fill-67" fill="#FFFFFF" points="664.757959 122.211837 675.753878 122.211837 675.753878 120.639592 664.757959 120.639592"></polygon>
                        <polygon id="Fill-68" fill="#FFFFFF" points="664.757959 126.437551 675.753878 126.437551 675.753878 124.865306 664.757959 124.865306"></polygon>
                        <polygon id="Fill-69" fill="#FFFFFF" points="664.757959 130.663265 675.753878 130.663265 675.753878 129.09102 664.757959 129.09102"></polygon>
                        <polygon id="Fill-70" fill="#FFFFFF" points="664.757959 134.890204 675.753878 134.890204 675.753878 133.317959 664.757959 133.317959"></polygon>
                        <polygon id="Fill-71" fill="#FFFFFF" points="664.757959 139.115918 675.753878 139.115918 675.753878 137.543673 664.757959 137.543673"></polygon>
                        <polygon id="Fill-72" fill="#FFFFFF" points="664.757959 143.341633 675.753878 143.341633 675.753878 141.769388 664.757959 141.769388"></polygon>
                        <polygon id="Fill-73" fill="#FFFFFF" points="664.757959 147.568571 675.753878 147.568571 675.753878 145.996327 664.757959 145.996327"></polygon>
                        <polygon id="Fill-74" fill="#FFFFFF" points="664.757959 151.794286 675.753878 151.794286 675.753878 150.222041 664.757959 150.222041"></polygon>
                        <polygon id="Fill-75" fill="#FFFFFF" points="664.757959 156.021224 675.753878 156.021224 675.753878 154.44898 664.757959 154.44898"></polygon>
                        <polygon id="Fill-76" fill="#FFFFFF" points="664.757959 160.246939 675.753878 160.246939 675.753878 158.674694 664.757959 158.674694"></polygon>
                        <polygon id="Fill-77" fill="#FFFFFF" points="664.757959 164.472653 675.753878 164.472653 675.753878 162.900408 664.757959 162.900408"></polygon>
                        <polygon id="Fill-78" fill="#FFFFFF" points="664.757959 168.698367 675.753878 168.698367 675.753878 167.126122 664.757959 167.126122"></polygon>
                        <polygon id="Fill-79" fill="#FFFFFF" points="685.079592 113.759184 696.07551 113.759184 696.07551 112.186939 685.079592 112.186939"></polygon>
                        <polygon id="Fill-80" fill="#FFFFFF" points="685.079592 117.984898 696.07551 117.984898 696.07551 116.412653 685.079592 116.412653"></polygon>
                        <polygon id="Fill-81" fill="#FFFFFF" points="685.079592 122.211837 696.07551 122.211837 696.07551 120.639592 685.079592 120.639592"></polygon>
                        <polygon id="Fill-82" fill="#FFFFFF" points="685.079592 126.437551 696.07551 126.437551 696.07551 124.865306 685.079592 124.865306"></polygon>
                        <polygon id="Fill-83" fill="#FFFFFF" points="685.079592 130.663265 696.07551 130.663265 696.07551 129.09102 685.079592 129.09102"></polygon>
                        <polygon id="Fill-84" fill="#FFFFFF" points="685.079592 134.890204 696.07551 134.890204 696.07551 133.317959 685.079592 133.317959"></polygon>
                        <polygon id="Fill-85" fill="#FFFFFF" points="685.079592 139.115918 696.07551 139.115918 696.07551 137.543673 685.079592 137.543673"></polygon>
                        <polygon id="Fill-86" fill="#FFFFFF" points="685.079592 143.341633 696.07551 143.341633 696.07551 141.769388 685.079592 141.769388"></polygon>
                        <polygon id="Fill-87" fill="#FFFFFF" points="685.079592 147.568571 696.07551 147.568571 696.07551 145.996327 685.079592 145.996327"></polygon>
                        <polygon id="Fill-88" fill="#FFFFFF" points="685.079592 151.794286 696.07551 151.794286 696.07551 150.222041 685.079592 150.222041"></polygon>
                        <polygon id="Fill-89" fill="#FFFFFF" points="685.079592 156.021224 696.07551 156.021224 696.07551 154.44898 685.079592 154.44898"></polygon>
                        <polygon id="Fill-90" fill="#FFFFFF" points="685.079592 160.246939 696.07551 160.246939 696.07551 158.674694 685.079592 158.674694"></polygon>
                        <polygon id="Fill-91" fill="#FFFFFF" points="685.079592 164.472653 696.07551 164.472653 696.07551 162.900408 685.079592 162.900408"></polygon>
                        <polygon id="Fill-92" fill="#FFFFFF" points="685.079592 168.698367 696.07551 168.698367 696.07551 167.126122 685.079592 167.126122"></polygon>
                        <polygon id="Fill-93" fill="#929292" points="640.140816 106.829796 695.300408 106.829796 695.300408 101.508163 640.140816 101.508163"></polygon>
                        <polygon id="Fill-94" fill="#929292" points="644.922449 101.508163 690.586122 101.508163 690.586122 96.1865306 644.922449 96.1865306"></polygon>
                        <polygon id="Fill-95" fill="#FBD133" points="603.88 126.460816 637.729796 126.460816 637.729796 117.198776 603.88 117.198776"></polygon>
                        <polygon id="Fill-96" fill="#FDEDAD" points="609.13551 226.859184 645.660816 226.859184 645.660816 125.890204 609.13551 125.890204"></polygon>
                        <polygon id="Fill-97" fill="#EBBD0E" points="593.720408 226.859184 614.038367 226.859184 614.038367 125.890204 593.720408 125.890204"></polygon>
                        <polygon id="Fill-98" fill="#FFFFFF" points="620.716735 226.659592 622.206939 226.659592 622.206939 125.891429 620.716735 125.891429"></polygon>
                        <polygon id="Fill-99" fill="#FFFFFF" points="625.172653 226.659592 626.662857 226.659592 626.662857 125.891429 625.172653 125.891429"></polygon>
                        <polygon id="Fill-100" fill="#FFFFFF" points="629.403265 226.659592 630.893469 226.659592 630.893469 125.891429 629.403265 125.891429"></polygon>
                        <polygon id="Fill-101" fill="#FFFFFF" points="633.859184 226.659592 635.349388 226.659592 635.349388 125.891429 633.859184 125.891429"></polygon>
                        <polygon id="Fill-102" fill="#FFFFFF" points="638.002857 226.659592 639.493061 226.659592 639.493061 125.891429 638.002857 125.891429"></polygon>
                        <path d="M607.175102,80.4329796 L610.187347,80.4329796 C610.424898,80.4329796 610.655102,80.4635918 610.879184,80.5137959 C611.146122,78.2913469 613.031837,76.546449 615.322857,76.546449 L619.581633,76.546449 C621.626531,76.546449 623.34449,77.9386939 623.885714,79.8158367 C623.986122,79.8035918 624.084082,79.7852245 624.186939,79.7852245 L626.686122,79.7852245 C628.138367,79.7852245 629.326122,80.9729796 629.326122,82.4252245 C629.326122,82.7448163 629.26,83.0484898 629.154694,83.3325714 L634.050204,83.3325714 C635.002857,83.3325714 635.782857,84.1125714 635.782857,85.0652245 C635.782857,86.0178776 635.002857,86.7978776 634.050204,86.7978776 L610.187347,86.7978776 L609.044898,86.7978776 L607.175102,86.7978776 C605.425306,86.7978776 603.992653,85.3652245 603.992653,83.6154286 C603.992653,81.8644082 605.425306,80.4329796 607.175102,80.4329796" id="Fill-104" fill="#FFFFFF"></path>
                        <path d="M783.996939,36.8438776 L780.984694,36.8438776 C780.747143,36.8438776 780.516939,36.8757143 780.292857,36.9259184 C780.024694,34.7022449 778.140204,32.9585714 775.847959,32.9585714 L771.590408,32.9585714 C769.54551,32.9585714 767.827551,34.3495918 767.286327,36.2267347 C767.185918,36.2144898 767.087959,36.1961224 766.985102,36.1961224 L764.485918,36.1961224 C763.033673,36.1961224 761.845918,37.3838776 761.845918,38.8361224 C761.845918,39.1557143 761.912041,39.4593878 762.017347,39.7434694 L757.121837,39.7434694 C756.169184,39.7434694 755.389184,40.5234694 755.389184,41.4761224 C755.389184,42.4287755 756.169184,43.2087755 757.121837,43.2087755 L780.984694,43.2087755 L782.127143,43.2087755 L783.996939,43.2087755 C785.746735,43.2087755 787.179388,41.7761224 787.179388,40.0263265 C787.179388,38.2765306 785.746735,36.8438776 783.996939,36.8438776" id="Fill-105" fill="#FFFFFF"></path>
                        <path d="M816.093755,50.6891837 L807.950898,50.6891837 C808.111306,50.2569388 808.211714,49.7965306 808.211714,49.3104082 C808.211714,47.1026531 806.406816,45.2977551 804.200286,45.2977551 L801.382735,45.2977551 C800.548857,42.4630612 797.921102,40.3765306 794.825592,40.3765306 L788.355388,40.3765306 C785.243959,40.3765306 782.607633,42.485102 781.787224,45.3418367 C781.643959,45.3259184 781.503143,45.2977551 781.35498,45.2977551 L777.557837,45.2977551 C775.350082,45.2977551 773.545184,47.1026531 773.545184,49.3104082 C773.545184,49.7965306 773.645592,50.2569388 773.806,50.6891837 L766.366,50.6891837 C764.917429,50.6891837 763.733347,51.8744898 763.733347,53.3218367 C763.733347,54.7704082 764.917429,55.9557143 766.366,55.9557143 L778.09049,55.9557143 L804.369265,55.9557143 L816.093755,55.9557143 C817.542327,55.9557143 818.726408,54.7704082 818.726408,53.3218367 C818.726408,51.8744898 817.542327,50.6891837 816.093755,50.6891837" id="Fill-106" fill="#FDEDAD"></path>
                        <path d="M668.802367,37.4102449 L660.150122,37.4102449 C660.321551,36.9510612 660.428082,36.4612653 660.428082,35.9445306 C660.428082,33.5996327 658.509306,31.6808571 656.164408,31.6808571 L653.170531,31.6808571 C652.285224,28.6698367 649.493388,26.4522857 646.204408,26.4522857 L639.328898,26.4522857 C636.024,26.4522857 633.221143,28.693102 632.350531,31.7273878 C632.197469,31.7114694 632.048082,31.6808571 631.891347,31.6808571 L627.855429,31.6808571 C625.510531,31.6808571 623.591755,33.5996327 623.591755,35.9445306 C623.591755,36.4612653 623.69951,36.9510612 623.869714,37.4102449 L615.964408,37.4102449 C614.425224,37.4102449 613.166449,38.6690204 613.166449,40.2082041 C613.166449,41.7461633 614.425224,43.0049388 615.964408,43.0049388 L628.422367,43.0049388 L656.344408,43.0049388 L668.802367,43.0049388 C670.341551,43.0049388 671.600327,41.7461633 671.600327,40.2082041 C671.600327,38.6690204 670.341551,37.4102449 668.802367,37.4102449" id="Fill-107" fill="#FFFFFF"></path>
                        <path d="M684.095143,46.6242857 L680.448612,46.6242857 C680.588204,46.292449 680.665347,45.93 680.665347,45.5491837 C680.665347,44.0063265 679.402898,42.7438776 677.860041,42.7438776 L675.205347,42.7438776 C675.071878,42.7438776 674.943306,42.7659184 674.81351,42.7842857 C674.098408,41.1153061 672.438,39.9385714 670.515551,39.9385714 L666.090245,39.9385714 C663.518816,39.9385714 661.415143,42.0434694 661.415143,44.614898 C661.415143,45.3361224 661.593918,46.0120408 661.88902,46.6242857 L658.560857,46.6242857 C657.591061,46.6242857 656.796367,47.4177551 656.796367,48.3887755 L656.796367,48.7230612 C656.796367,49.6928571 657.591061,50.4863265 658.560857,50.4863265 L684.095143,50.4863265 C685.064939,50.4863265 685.859633,49.6928571 685.859633,48.7230612 L685.859633,48.3887755 C685.859633,47.4177551 685.064939,46.6242857 684.095143,46.6242857" id="Fill-109" fill="#FDEDAD"></path>
                        <polygon id="Fill-1" fill="#DBDBDB" points="992.27551 228.268509 1016.95755 228.268509 1016.95755 113.779806 992.27551 113.779806"></polygon>
                        <polygon id="Fill-2" fill="#FDEDAD" points="1010.9698 228.268509 1039.01551 228.268509 1039.01551 98.3029333 1010.9698 98.3029333"></polygon>
                        <polygon id="Fill-3" fill="#EBBD0E" points="1036.82612 228.268509 1062.68245 228.268509 1062.68245 98.3029333 1036.82612 98.3029333"></polygon>
                        <polygon id="Fill-4" fill="#FBD133" points="1010.9698 98.5245212 1062.68245 98.5245212 1062.68245 94.4808485 1010.9698 94.4808485"></polygon>
                        <polygon id="Fill-5" fill="#FFFFFF" points="1018.03878 227.019782 1019.42735 227.019782 1019.42735 102.902412 1018.03878 102.902412"></polygon>
                        <polygon id="Fill-6" fill="#FFFFFF" points="1021.72327 227.019782 1023.11184 227.019782 1023.11184 102.902412 1021.72327 102.902412"></polygon>
                        <polygon id="Fill-7" fill="#FFFFFF" points="1025.40776 227.019782 1026.79633 227.019782 1026.79633 102.902412 1025.40776 102.902412"></polygon>
                        <polygon id="Fill-8" fill="#FFFFFF" points="1029.09102 227.019782 1030.47959 227.019782 1030.47959 102.902412 1029.09102 102.902412"></polygon>
                        <polygon id="Fill-9" fill="#FBD133" points="955.216327 47.0916485 958.080408 47.0916485 958.080408 38.3481091 955.216327 38.3481091"></polygon>
                        <polygon id="Fill-10" fill="#EBBD0E" points="939.165714 227.019782 961.249388 227.019782 961.249388 62.4901697 939.165714 62.4901697"></polygon>
                        <polygon id="Fill-11" fill="#FDEDAD" points="958.71102 227.019782 974.132245 227.019782 974.132245 62.4901697 958.71102 62.4901697"></polygon>
                        <polygon id="Fill-12" fill="#FFFFFF" points="961.653469 66.7321697 972.012653 66.7321697 972.012653 65.5960727 961.653469 65.5960727"></polygon>
                        <polygon id="Fill-13" fill="#FFFFFF" points="961.653469 69.8894909 972.012653 69.8894909 972.012653 68.7546182 961.653469 68.7546182"></polygon>
                        <polygon id="Fill-14" fill="#FFFFFF" points="961.653469 73.0468121 972.012653 73.0468121 972.012653 71.9107152 961.653469 71.9107152"></polygon>
                        <polygon id="Fill-15" fill="#FFFFFF" points="961.653469 78.9550061 972.012653 78.9550061 972.012653 77.8201333 961.653469 77.8201333"></polygon>
                        <polygon id="Fill-16" fill="#FFFFFF" points="961.653469 82.1123273 972.012653 82.1123273 972.012653 80.9762303 961.653469 80.9762303"></polygon>
                        <polygon id="Fill-17" fill="#FFFFFF" points="961.653469 85.2696485 972.012653 85.2696485 972.012653 84.1335515 961.653469 84.1335515"></polygon>
                        <polygon id="Fill-18" fill="#FFFFFF" points="961.653469 91.1778424 972.012653 91.1778424 972.012653 90.0417455 961.653469 90.0417455"></polygon>
                        <polygon id="Fill-19" fill="#FFFFFF" points="961.653469 94.3351636 972.012653 94.3351636 972.012653 93.1990667 961.653469 93.1990667"></polygon>
                        <polygon id="Fill-20" fill="#FFFFFF" points="961.653469 97.4924848 972.012653 97.4924848 972.012653 96.3563879 961.653469 96.3563879"></polygon>
                        <polygon id="Fill-21" fill="#FFFFFF" points="961.653469 103.400679 972.012653 103.400679 972.012653 102.265806 961.653469 102.265806"></polygon>
                        <polygon id="Fill-22" fill="#FFFFFF" points="961.653469 106.558 972.012653 106.558 972.012653 105.421903 961.653469 105.421903"></polygon>
                        <polygon id="Fill-23" fill="#FFFFFF" points="961.653469 109.715321 972.012653 109.715321 972.012653 108.579224 961.653469 108.579224"></polygon>
                        <polygon id="Fill-24" fill="#FFFFFF" points="961.653469 116.290727 972.012653 116.290727 972.012653 115.155855 961.653469 115.155855"></polygon>
                        <polygon id="Fill-25" fill="#FFFFFF" points="961.653469 119.448048 972.012653 119.448048 972.012653 118.311952 961.653469 118.311952"></polygon>
                        <polygon id="Fill-26" fill="#FFFFFF" points="961.653469 122.60537 972.012653 122.60537 972.012653 121.469273 961.653469 121.469273"></polygon>
                        <polygon id="Fill-27" fill="#FFFFFF" points="961.653469 128.514788 972.012653 128.514788 972.012653 127.378691 961.653469 127.378691"></polygon>
                        <polygon id="Fill-28" fill="#FFFFFF" points="961.653469 131.670885 972.012653 131.670885 972.012653 130.534788 961.653469 130.534788"></polygon>
                        <polygon id="Fill-29" fill="#FFFFFF" points="961.653469 134.82943 972.012653 134.82943 972.012653 133.693333 961.653469 133.693333"></polygon>
                        <polygon id="Fill-30" fill="#FFFFFF" points="961.653469 140.7364 972.012653 140.7364 972.012653 139.601527 961.653469 139.601527"></polygon>
                        <polygon id="Fill-31" fill="#FFFFFF" points="961.653469 143.894945 972.012653 143.894945 972.012653 142.758848 961.653469 142.758848"></polygon>
                        <polygon id="Fill-32" fill="#FFFFFF" points="961.653469 147.051042 972.012653 147.051042 972.012653 145.914945 961.653469 145.914945"></polygon>
                        <polygon id="Fill-33" fill="#FFFFFF" points="961.653469 152.960461 972.012653 152.960461 972.012653 151.824364 961.653469 151.824364"></polygon>
                        <polygon id="Fill-34" fill="#FFFFFF" points="961.653469 156.116558 972.012653 156.116558 972.012653 154.980461 961.653469 154.980461"></polygon>
                        <polygon id="Fill-35" fill="#FFFFFF" points="961.653469 159.275103 972.012653 159.275103 972.012653 158.139006 961.653469 158.139006"></polygon>
                        <polygon id="Fill-36" fill="#FBD133" points="964.221469 49.8965103 959.141061 49.8965103 954.156163 49.8965103 949.075755 49.8965103 939.164735 62.4902921 954.156163 62.4902921 959.141061 62.4902921 974.13249 62.4902921"></polygon>
                        <polygon id="Fill-37" fill="#EBBD0E" points="949.076735 49.8963879 964.191837 49.8963879 964.191837 47.0916485 949.076735 47.0916485"></polygon>
                        <polygon id="Fill-38" fill="#A9A9A9" points="900.544082 225.892255 942.593061 225.892255 942.593061 115.253794 900.544082 115.253794"></polygon>
                        <polygon id="Fill-39" fill="#DBDBDB" points="925.237143 225.892255 951.089796 225.892255 951.089796 115.253794 925.237143 115.253794"></polygon>
                        <polygon id="Fill-40" fill="#FFFFFF" points="928.736735 121.825527 947.315918 121.825527 947.315918 120.197285 928.736735 120.197285"></polygon>
                        <polygon id="Fill-41" fill="#FFFFFF" points="928.736735 127.2832 947.315918 127.2832 947.315918 125.654958 928.736735 125.654958"></polygon>
                        <polygon id="Fill-42" fill="#FFFFFF" points="928.736735 133.386048 947.315918 133.386048 947.315918 131.757806 928.736735 131.757806"></polygon>
                        <polygon id="Fill-43" fill="#FFFFFF" points="928.736735 138.843721 947.315918 138.843721 947.315918 137.215479 928.736735 137.215479"></polygon>
                        <polygon id="Fill-44" fill="#FFFFFF" points="928.736735 144.607455 947.315918 144.607455 947.315918 142.979212 928.736735 142.979212"></polygon>
                        <polygon id="Fill-45" fill="#FFFFFF" points="928.736735 150.065127 947.315918 150.065127 947.315918 148.436885 928.736735 148.436885"></polygon>
                        <polygon id="Fill-46" fill="#FFFFFF" points="928.736735 156.167976 947.315918 156.167976 947.315918 154.539733 928.736735 154.539733"></polygon>
                        <polygon id="Fill-47" fill="#FFFFFF" points="928.736735 161.624424 947.315918 161.624424 947.315918 159.996182 928.736735 159.996182"></polygon>
                        <polygon id="Fill-48" fill="#A9A9A9" points="843.086122 228.654145 880.892245 228.654145 880.892245 96.1017455 843.086122 96.1017455"></polygon>
                        <polygon id="Fill-49" fill="#DBDBDB" points="877.845714 228.654145 912.650612 228.654145 912.650612 96.1017455 877.845714 96.1017455"></polygon>
                        <polygon id="Fill-50" fill="#FFFFFF" points="883.576327 112.087903 885.17551 112.087903 885.17551 101.061152 883.576327 101.061152"></polygon>
                        <polygon id="Fill-51" fill="#FFFFFF" points="887.925714 112.087903 889.524898 112.087903 889.524898 101.061152 887.925714 101.061152"></polygon>
                        <polygon id="Fill-52" fill="#FFFFFF" points="892.273878 112.087903 893.873061 112.087903 893.873061 101.061152 892.273878 101.061152"></polygon>
                        <polygon id="Fill-53" fill="#FFFFFF" points="896.623265 112.087903 898.222449 112.087903 898.222449 101.061152 896.623265 101.061152"></polygon>
                        <polygon id="Fill-54" fill="#FFFFFF" points="900.972653 112.087903 902.571837 112.087903 902.571837 101.061152 900.972653 101.061152"></polygon>
                        <polygon id="Fill-55" fill="#FFFFFF" points="905.322041 112.087903 906.921224 112.087903 906.921224 101.061152 905.322041 101.061152"></polygon>
                        <polygon id="Fill-56" fill="#FFFFFF" points="883.576327 136.13937 885.17551 136.13937 885.17551 125.112618 883.576327 125.112618"></polygon>
                        <polygon id="Fill-57" fill="#FFFFFF" points="887.925714 136.13937 889.524898 136.13937 889.524898 125.112618 887.925714 125.112618"></polygon>
                        <polygon id="Fill-58" fill="#FFFFFF" points="892.273878 136.13937 893.873061 136.13937 893.873061 125.112618 892.273878 125.112618"></polygon>
                        <polygon id="Fill-59" fill="#FFFFFF" points="896.623265 136.13937 898.222449 136.13937 898.222449 125.112618 896.623265 125.112618"></polygon>
                        <polygon id="Fill-60" fill="#FFFFFF" points="900.972653 136.13937 902.571837 136.13937 902.571837 125.112618 900.972653 125.112618"></polygon>
                        <polygon id="Fill-61" fill="#FFFFFF" points="905.322041 136.13937 906.921224 136.13937 906.921224 125.112618 905.322041 125.112618"></polygon>
                        <polygon id="Fill-62" fill="#FFFFFF" points="883.576327 159.472206 885.17551 159.472206 885.17551 148.445455 883.576327 148.445455"></polygon>
                        <polygon id="Fill-63" fill="#FFFFFF" points="887.925714 159.472206 889.524898 159.472206 889.524898 148.445455 887.925714 148.445455"></polygon>
                        <polygon id="Fill-64" fill="#FFFFFF" points="892.273878 159.472206 893.873061 159.472206 893.873061 148.445455 892.273878 148.445455"></polygon>
                        <polygon id="Fill-65" fill="#FFFFFF" points="896.623265 159.472206 898.222449 159.472206 898.222449 148.445455 896.623265 148.445455"></polygon>
                        <polygon id="Fill-66" fill="#FFFFFF" points="900.972653 159.472206 902.571837 159.472206 902.571837 148.445455 900.972653 148.445455"></polygon>
                        <polygon id="Fill-67" fill="#FFFFFF" points="905.322041 159.472206 906.921224 159.472206 906.921224 148.445455 905.322041 148.445455"></polygon>
                        <polygon id="Fill-68" fill="#FFFFFF" points="852.611429 213.846933 854.333061 213.846933 854.333061 96.1005212 852.611429 96.1005212"></polygon>
                        <polygon id="Fill-69" fill="#FFFFFF" points="857.884082 213.846933 859.605714 213.846933 859.605714 96.1005212 857.884082 96.1005212"></polygon>
                        <polygon id="Fill-70" fill="#FFFFFF" points="863.710204 213.846933 865.431837 213.846933 865.431837 96.1005212 863.710204 96.1005212"></polygon>
                        <polygon id="Fill-71" fill-opacity="0.54" fill="#363636" points="843.086122 96.1005212 904.038776 96.1005212 904.038776 90.8166909 843.086122 90.8166909"></polygon>
                        <polygon id="Fill-72" fill-opacity="0.54" fill="#363636" points="843.084898 91.0150182 895.248163 91.0150182 895.248163 85.7311879 843.084898 85.7311879"></polygon>
                        <path d="M897.870653,39.2779212 L900.882898,39.2779212 C901.120449,39.2779212 901.350653,39.3085273 901.574735,39.3587212 C901.841673,37.1367212 903.727388,35.3921758 906.018408,35.3921758 L910.277184,35.3921758 C912.322082,35.3921758 914.040041,36.7841394 914.581265,38.660903 C914.681673,38.6486606 914.779633,38.630297 914.88249,38.630297 L917.381673,38.630297 C918.833918,38.630297 920.021673,39.8178121 920.021673,41.2697636 C920.021673,41.5892909 919.955551,41.892903 919.850245,42.1769273 L924.745755,42.1769273 C925.698408,42.1769273 926.478408,42.9567697 926.478408,43.9092303 C926.478408,44.8616909 925.698408,45.6415333 924.745755,45.6415333 L900.882898,45.6415333 L899.740449,45.6415333 L897.870653,45.6415333 C896.120857,45.6415333 894.688204,44.2091697 894.688204,42.4597273 C894.688204,40.7090606 896.120857,39.2779212 897.870653,39.2779212" id="Fill-74" fill="#FFFFFF"></path>
                        <g id="Group-78" transform="translate(1017.755102, 0.865539)">
                            <mask id="mask-2" fill="white">
                                <use xlink:href="#path-1"></use>
                            </mask>
                            <g id="Clip-77"></g>
                            <path d="M28.9693469,4.24322424 L25.957102,4.24322424 C25.719551,4.24322424 25.4893469,4.2738303 25.2652653,4.32402424 C24.997102,2.10202424 23.1126122,0.357478788 20.8203673,0.357478788 L16.5628163,0.357478788 C14.5179184,0.357478788 12.7999592,1.74944242 12.2587347,3.62620606 C12.1583265,3.61396364 12.0603673,3.5956 11.9575102,3.5956 L9.45832653,3.5956 C8.00608163,3.5956 6.81832653,4.78311515 6.81832653,6.23506667 C6.81832653,6.55459394 6.88444898,6.85820606 6.9897551,7.1422303 L2.0942449,7.1422303 C1.14159184,7.1422303 0.361591837,7.92207273 0.361591837,8.87453333 C0.361591837,9.82699394 1.14159184,10.6068364 2.0942449,10.6068364 L25.957102,10.6068364 L27.099551,10.6068364 L28.9693469,10.6068364 C30.7191429,10.6068364 32.1517959,9.17447273 32.1517959,7.4250303 C32.1517959,5.67558788 30.7191429,4.24322424 28.9693469,4.24322424" id="Fill-76" fill="#FFFFFF" mask="url(#mask-2)"></path>
                        </g>
                        <path d="M1078.82127,18.9512727 L1070.67841,18.9512727 C1070.83882,18.5191152 1070.93922,18.0588 1070.93922,17.5727758 C1070.93922,15.3654667 1069.13433,13.5609333 1066.9278,13.5609333 L1064.11024,13.5609333 C1063.27637,10.7268121 1060.64861,8.64070303 1057.5531,8.64070303 L1051.0829,8.64070303 C1047.97147,8.64070303 1045.33514,10.7488485 1044.51473,13.6050061 C1044.37147,13.5890909 1044.23065,13.5609333 1044.08249,13.5609333 L1040.28535,13.5609333 C1038.07759,13.5609333 1036.27269,15.3654667 1036.27269,17.5727758 C1036.27269,18.0588 1036.3731,18.5191152 1036.53351,18.9512727 L1029.09351,18.9512727 C1027.64494,18.9512727 1026.46086,20.1363394 1026.46086,21.5833939 C1026.46086,23.0316727 1027.64494,24.2167394 1029.09351,24.2167394 L1040.818,24.2167394 L1067.09678,24.2167394 L1078.82127,24.2167394 C1080.26984,24.2167394 1081.45392,23.0316727 1081.45392,21.5833939 C1081.45392,20.1363394 1080.26984,18.9512727 1078.82127,18.9512727" id="Fill-79" fill="#FDEDAD"></path>
                        <path d="M894.893796,11.4310776 L886.241551,11.4310776 C886.41298,10.9719867 886.51951,10.4822897 886.51951,9.96565939 C886.51951,7.62123515 884.600735,5.70284727 882.255837,5.70284727 L879.261959,5.70284727 C878.376653,2.69243515 875.584816,0.475332121 872.295837,0.475332121 L865.420327,0.475332121 C862.115429,0.475332121 859.312571,2.71569576 858.441959,5.75059273 C858.288898,5.73345333 858.13951,5.70284727 857.982776,5.70284727 L853.946857,5.70284727 C851.601959,5.70284727 849.684408,7.62123515 849.684408,9.96565939 C849.684408,10.4822897 849.790939,10.9719867 849.961143,11.4310776 L842.055837,11.4310776 C840.516653,11.4310776 839.257878,12.6895988 839.257878,14.2284715 C839.257878,15.76612 840.516653,17.0258655 842.055837,17.0258655 L854.513796,17.0258655 L882.435837,17.0258655 L894.893796,17.0258655 C896.43298,17.0258655 897.691755,15.76612 897.691755,14.2284715 C897.691755,12.6895988 896.43298,11.4310776 894.893796,11.4310776" id="Fill-81" fill="#FFFFFF"></path>
                        <path d="M1425.8938,21.4310776 L1417.24155,21.4310776 C1417.41298,20.9719867 1417.51951,20.4822897 1417.51951,19.9656594 C1417.51951,17.6212352 1415.60073,15.7028473 1413.25584,15.7028473 L1410.26196,15.7028473 C1409.37665,12.6924352 1406.58482,10.4753321 1403.29584,10.4753321 L1396.42033,10.4753321 C1393.11543,10.4753321 1390.31257,12.7156958 1389.44196,15.7505927 C1389.2889,15.7334533 1389.13951,15.7028473 1388.98278,15.7028473 L1384.94686,15.7028473 C1382.60196,15.7028473 1380.68441,17.6212352 1380.68441,19.9656594 C1380.68441,20.4822897 1380.79094,20.9719867 1380.96114,21.4310776 L1373.05584,21.4310776 C1371.51665,21.4310776 1370.25788,22.6895988 1370.25788,24.2284715 C1370.25788,25.76612 1371.51665,27.0258655 1373.05584,27.0258655 L1385.5138,27.0258655 L1413.43584,27.0258655 L1425.8938,27.0258655 C1427.43298,27.0258655 1428.69176,25.76612 1428.69176,24.2284715 C1428.69176,22.6895988 1427.43298,21.4310776 1425.8938,21.4310776" id="Fill-81-Copy" fill="#FFFFFF"></path>
                        <path d="M1034.99592,50.3338909 L1031.7951,50.3338909 C1031.54286,50.3338909 1031.29796,50.3669455 1031.06041,50.4208121 C1030.7751,48.0580242 1028.77306,46.2057455 1026.33755,46.2057455 L1021.81429,46.2057455 C1019.64082,46.2057455 1017.8151,47.6834061 1017.23959,49.677697 C1017.13306,49.6654545 1017.02898,49.6458667 1016.92,49.6458667 L1014.26408,49.6458667 C1012.72122,49.6458667 1011.45878,50.9080606 1011.45878,52.4506061 C1011.45878,52.7897212 1011.5298,53.111697 1011.64122,53.4140848 L1006.43959,53.4140848 C1005.42694,53.4140848 1004.59918,54.242897 1004.59918,55.2553455 C1004.59918,56.2665697 1005.42694,57.0953818 1006.43959,57.0953818 L1031.7951,57.0953818 L1033.0098,57.0953818 L1034.99592,57.0953818 C1036.85592,57.0953818 1038.37673,55.5736485 1038.37673,53.7152485 C1038.37673,51.8556242 1036.85592,50.3338909 1034.99592,50.3338909" id="Fill-83" fill="#FDEDAD"></path>
                        <path d="M910.186571,70.643257 L906.540041,70.643257 C906.678408,70.3114873 906.756776,69.9491115 906.756776,69.5683721 C906.756776,68.0258267 905.494327,66.7636327 903.951469,66.7636327 L901.296776,66.7636327 C901.162082,66.7636327 901.034735,66.7856691 900.904939,66.8040327 C900.189837,65.1353903 898.529429,63.9588933 896.60698,63.9588933 L892.181673,63.9588933 C889.610245,63.9588933 887.505347,66.0633661 887.505347,68.6342752 C887.505347,69.3553539 887.685347,70.0311358 887.980449,70.643257 L884.652286,70.643257 C883.681265,70.643257 882.887796,71.4365661 882.887796,72.4073903 L882.887796,72.7416085 C882.887796,73.7112085 883.681265,74.5045176 884.652286,74.5045176 L910.186571,74.5045176 C911.156367,74.5045176 911.951061,73.7112085 911.951061,72.7416085 L911.951061,72.4073903 C911.951061,71.4365661 911.156367,70.643257 910.186571,70.643257" id="Fill-85" fill="#FDEDAD"></path>
                        <polygon id="Fill-31" fill="#9B9B9B" points="0 231.845279 1440 231.845279 1440 226 0 226"></polygon>
                        <g id="Page-1" transform="translate(635.052653, 167.009132)">
                            <path d="M51.7128554,4.99170046 C51.7128554,4.99170046 52.3970131,2.99476782 52.7693868,1.74763163 C53.1417605,0.49923316 54.0569161,0.000631141795 55.9389809,0.000631141795 L63.3334382,0.000631141795 C65.0968483,0.000631141795 65.8201368,0.747903027 66.2013465,1.83977833 C66.8337506,3.65367985 67.1657311,4.99170046 67.1657311,4.99170046 L51.7128554,4.99170046 L51.7128554,4.99170046 Z" id="Fill-1" fill="#222222"></path>
                            <path d="M135.823481,51.0778006 C135.823481,56.4311453 131.6327,60.769614 126.462386,60.769614 C121.293335,60.769614 117.101291,56.4311453 117.101291,51.0778006 C117.101291,45.7257181 121.293335,41.3859871 126.462386,41.3859871 C131.6327,41.3859871 135.823481,45.7257181 135.823481,51.0778006" id="Fill-3" fill="#222222"></path>
                            <path d="M68.8000097,51.0778006 C68.8000097,56.4311453 64.6092282,60.769614 59.4389146,60.769614 C54.268601,60.769614 50.0778195,56.4311453 50.0778195,51.0778006 C50.0778195,45.7257181 54.268601,41.3859871 59.4389146,41.3859871 C64.6092282,41.3859871 68.8000097,45.7257181 68.8000097,51.0778006" id="Fill-5" fill="#222222"></path>
                            <polygon id="Fill-7" fill="#FDEDAD" points="9.69509534 17.1368882 6.92564514 11.8706411 20.9231079 7.94493914"></polygon>
                            <g id="Group-11" transform="translate(11.360552, 3.806627)">
                                <mask id="mask-4" fill="white">
                                    <use xlink:href="#path-3"></use>
                                </mask>
                                <g id="Clip-10"></g>
                                <path d="M126.832867,26.2953024 C120.325795,19.0763026 107.033948,17.8859691 103.157476,15.5204497 C99.2810027,13.1561925 88.0492033,0.21526115 67.1584099,0.21526115 C60.5137491,0.21526115 43.6218701,0.573749689 30.8841664,0.573749689 C21.8575764,0.573749689 14.9251149,2.08217858 9.56167197,4.13843855 C6.01339279,5.49918026 3.1517959,7.09849357 0.826669523,8.65867608 C6.51830623,6.65543203 13.8420756,5.01698793 22.0532304,5.21642873 C39.1533862,5.63045775 49.7944368,15.1165189 49.7944368,15.1165189 L57.0361578,23.4286564 C57.0361578,23.4286564 69.4305204,23.8666688 79.1879725,29.0054253 C85.6824216,32.4262138 87.3397999,42.3767953 87.7639272,47.2416363 C110.726128,47.2075546 128.70862,46.9361637 129.862347,46.1914163 C133.18594,44.0455342 130.540194,30.4090846 126.832867,26.2953024" id="Fill-9" fill="#FDEDAD" mask="url(#mask-4)"></path>
                            </g>
                            <path d="M90.5487773,32.8126832 C80.7913251,27.6739267 68.3957003,27.2359143 68.3957003,27.2359143 L61.1552416,18.9237769 C61.1552416,18.9237769 50.5129286,9.43771572 33.4140351,9.02242442 C25.2016181,8.82298361 17.8778487,10.4614277 12.1874743,12.465934 C10.5553416,13.5615962 9.1870262,14.6370618 8.02951214,15.5963974 C3.89300882,19.031071 3.87659913,21.8636354 3.32245664,27.6789759 C3.16467119,29.3325674 2.24320417,33.5788894 0.268992633,37.9072598 C-0.461869566,39.5116222 0.444450052,43.2656536 1.24600013,45.0909157 C2.38205536,47.6798594 5.48727299,50.4493096 8.03203671,50.4493096 C27.4232372,50.4493096 67.2419731,51.0955988 99.124732,51.047632 C98.7006047,46.1840533 97.0419641,36.2334718 90.5487773,32.8126832" id="Fill-12" fill="#FBD133"></path>
                            <path d="M4.54747351e-13,41.9297789 C4.54747351e-13,41.9297789 4.54747351e-13,45.5525328 2.07645651,48.0215595 C4.15291301,50.4905862 4.56820431,51.5748878 8.51410281,51.5748878 L137.900695,51.5748878 C140.60072,51.5748878 142.577456,49.2371386 142.649406,46.7517022 L5.19177241,46.7517022 C5.19177241,46.7517022 1.869442,44.583099 4.54747351e-13,41.9297789" id="Fill-14" fill="#222222"></path>
                            <path d="M64.5192274,18.9236507 L50.1203585,18.9236507 C44.5814581,18.9236507 42.3661504,27.5374739 49.0120735,27.6611777 C55.6579966,27.7848815 71.9250452,27.5349493 71.9250452,27.5349493 L64.5192274,18.9236507 Z" id="Fill-16" fill="#FDEDAD"></path>
                            <polygon id="Fill-18" fill="#FDEDAD" points="33.4140351 9.0228031 21.5940116 7.69614305 11.1460903 10.6877552 11.1460903 15.2963525"></polygon>
                            <polygon id="Fill-20" fill="#000000" points="3.9383248 22.3546637 8.79937891 17.9480317 10.0970064 20.9863483 3.32233041 27.6789759"></polygon>
                            <path d="M29.8684068,51.2268762 C29.8684068,56.5789587 25.6776252,60.9186896 20.5073117,60.9186896 C15.3369981,60.9186896 11.1462166,56.5789587 11.1462166,51.2268762 C11.1462166,45.8747938 15.3369981,41.5350628 20.5073117,41.5350628 C25.6776252,41.5350628 29.8684068,45.8747938 29.8684068,51.2268762" id="Fill-22" fill="#222222"></path>
                            <path d="M26.8144378,51.2268762 C26.8144378,54.7095167 23.9907095,57.5332451 20.508069,57.5332451 C17.0241663,57.5332451 14.2004379,54.7095167 14.2004379,51.2268762 C14.2004379,47.7442358 17.0241663,44.9205074 20.508069,44.9205074 C23.9907095,44.9205074 26.8144378,47.7442358 26.8144378,51.2268762" id="Fill-24" fill="#FBD133"></path>
                            <path d="M22.1689818,51.2268762 C22.1689818,52.1445564 21.4254967,52.8880414 20.5078166,52.8880414 C19.5901364,52.8880414 18.8466514,52.1445564 18.8466514,51.2268762 C18.8466514,50.3091961 19.5901364,49.565711 20.5078166,49.565711 C21.4254967,49.565711 22.1689818,50.3091961 22.1689818,51.2268762" id="Fill-26" fill="#000000"></path>
                            <path d="M92.6213207,51.1613637 C92.6213207,56.5147084 88.4305392,60.8531771 83.2602256,60.8531771 C78.089912,60.8531771 73.8991305,56.5147084 73.8991305,51.1613637 C73.8991305,45.8092813 78.089912,41.4695503 83.2602256,41.4695503 C88.4305392,41.4695503 92.6213207,45.8092813 92.6213207,51.1613637" id="Fill-28" fill="#222222"></path>
                            <path d="M89.5673518,51.1613637 C89.5673518,54.6452664 86.7436234,57.4689948 83.260983,57.4689948 C79.7770803,57.4689948 76.9533519,54.6452664 76.9533519,51.1613637 C76.9533519,47.6787233 79.7770803,44.8549949 83.260983,44.8549949 C86.7436234,44.8549949 89.5673518,47.6787233 89.5673518,51.1613637" id="Fill-30" fill="#FBD133"></path>
                            <path d="M84.9218957,51.1613637 C84.9218957,52.0790439 84.1784107,52.8225289 83.2607305,52.8225289 C82.3430503,52.8225289 81.5995653,52.0790439 81.5995653,51.1613637 C81.5995653,50.2436836 82.3430503,49.5001985 83.2607305,49.5001985 C84.1784107,49.5001985 84.9218957,50.2436836 84.9218957,51.1613637" id="Fill-32" fill="#000000"></path>
                            <path d="M136.418901,37.3201717 L141.577854,37.3201717 C141.577854,37.3201717 140.838155,30.7954278 138.193671,30.1024341 C136.581735,31.4757987 136.418901,37.3201717 136.418901,37.3201717" id="Fill-34" fill="#FFFFFF"></path>
                            <path d="M133.129011,39.7953836 L115.542876,39.7953836 C114.708506,39.7953836 114.343707,39.7953836 113.9423,41.2697308 C113.604008,42.5118179 112.707787,46.2696361 112.707787,46.2696361 C112.625739,47.2112997 113.366699,48.0216858 114.308363,48.0216858 L134.647538,48.0216858 C135.726791,48.0216858 136.499308,46.9739904 136.184999,45.9376555 L134.66521,40.9377502 C134.459458,40.2586417 133.83589,39.7953836 133.129011,39.7953836" id="Fill-36" fill="#222222"></path>
                            <path d="M111.870767,31.9034604 C111.870767,31.9034604 112.667268,33.5646256 113.49785,34.7069922 C114.328433,35.8493589 115.055508,36.9879387 117.85904,36.9904632 C120.662572,36.9917255 128.03557,37.0914459 130.00852,36.9904632 C131.981469,36.8882183 133.003919,36.201536 133.33085,34.4696829 C133.56311,33.2376941 133.850911,31.9034604 133.850911,31.9034604 L111.870767,31.9034604 Z" id="Fill-38" fill="#222222"></path>
                            <path d="M84.0155761,30.1019292 C84.0155761,30.1019292 85.5606112,36.3956752 91.3797386,37.035653 C97.1988659,37.6756308 104.878599,37.035653 104.878599,37.035653 C104.878599,37.035653 104.282801,32.3285975 98.8562443,31.0726253 C93.4296871,29.8166531 84.0155761,30.1019292 84.0155761,30.1019292" id="Fill-40" fill="#FFFFFF"></path>
                            <path d="M57.8735567,14.9653818 C57.046761,14.0338165 56.2654074,13.1868242 55.4461854,12.4307163 C51.3298786,8.63124273 46.2592854,7.19855086 29.6286991,9.50474298 C21.1448911,10.6824536 15.1187492,16.7237428 15.1187492,16.7237428 L16.3254924,18.9239031 L18.7301426,23.3090763 L64.5194798,23.9503164 C64.5194798,23.9503164 62.8583146,20.5850683 57.8735567,14.9653818" id="Fill-42" fill="#222222"></path>
                            <polygon id="Fill-44" fill="#000000" points="20.1687672 34.7023218 22.7867434 34.7023218 22.7867434 32.0843456 20.1687672 32.0843456"></polygon>
                            <polygon id="Fill-46" fill="#000000" points="22.7867434 37.3202979 25.4047195 37.3202979 25.4047195 34.7023218 22.7867434 34.7023218"></polygon>
                            <polygon id="Fill-47" fill="#000000" points="17.5369059 37.3202979 20.1548821 37.3202979 20.1548821 34.7023218 17.5369059 34.7023218"></polygon>
                            <polygon id="Fill-48" fill="#000000" points="25.4047195 34.7023218 28.0226957 34.7023218 28.0226957 32.0843456 25.4047195 32.0843456"></polygon>
                            <polygon id="Fill-49" fill="#000000" points="28.0226957 37.3202979 30.6406719 37.3202979 30.6406719 34.7023218 28.0226957 34.7023218"></polygon>
                            <polygon id="Fill-50" fill="#000000" points="30.6406719 34.7023218 33.258648 34.7023218 33.258648 32.0843456 30.6406719 32.0843456"></polygon>
                            <polygon id="Fill-51" fill="#000000" points="33.258648 37.3202979 35.8766242 37.3202979 35.8766242 34.7023218 33.258648 34.7023218"></polygon>
                            <polygon id="Fill-52" fill="#000000" points="35.8766242 34.7023218 38.4946004 34.7023218 38.4946004 32.0843456 35.8766242 32.0843456"></polygon>
                            <polygon id="Fill-53" fill="#000000" points="41.1125765 34.7023218 43.7305527 34.7023218 43.7305527 32.0843456 41.1125765 32.0843456"></polygon>
                            <polygon id="Fill-54" fill="#000000" points="38.4946004 37.3202979 41.1125765 37.3202979 41.1125765 34.7023218 38.4946004 34.7023218"></polygon>
                            <polygon id="Fill-55" fill="#000000" points="43.7305527 37.3202979 46.3485289 37.3202979 46.3485289 34.7023218 43.7305527 34.7023218"></polygon>
                            <polygon id="Fill-56" fill="#000000" points="46.3485289 34.7023218 48.966505 34.7023218 48.966505 32.0843456 46.3485289 32.0843456"></polygon>
                            <polygon id="Fill-57" fill="#000000" points="48.966505 37.3202979 51.5844812 37.3202979 51.5844812 34.7023218 48.966505 34.7023218"></polygon>
                            <polygon id="Fill-58" fill="#000000" points="51.5857435 34.7023218 54.2037196 34.7023218 54.2037196 32.0843456 51.5857435 32.0843456"></polygon>
                            <polygon id="Fill-59" fill="#000000" points="54.2024574 37.3202979 56.8204335 37.3202979 56.8204335 34.7023218 54.2024574 34.7023218"></polygon>
                            <polygon id="Fill-60" fill="#000000" points="56.8216958 34.7023218 59.439672 34.7023218 59.439672 32.0843456 56.8216958 32.0843456"></polygon>
                            <polygon id="Fill-61" fill="#000000" points="62.0576481 34.7023218 64.6756243 34.7023218 64.6756243 32.0843456 62.0576481 32.0843456"></polygon>
                            <polygon id="Fill-62" fill="#000000" points="59.439672 37.3202979 62.0576481 37.3202979 62.0576481 34.7023218 59.439672 34.7023218"></polygon>
                            <polygon id="Fill-63" fill="#000000" points="64.6756243 37.3202979 67.2936005 37.3202979 67.2936005 34.7023218 64.6756243 34.7023218"></polygon>
                            <path d="M98.302228,15.2961001 C94.1101842,12.3663399 89.1961142,10.0008204 85.0532994,8.28285246 C72.3067597,7.93193762 57.3196667,8.39267113 57.3196667,8.39267113 L60.3605078,12.1580631 L68.9503477,22.79154 L103.996389,22.4418875 L106.499498,22.4166418 C104.420517,20.263186 101.548821,17.5644237 98.302228,15.2961001" id="Fill-64" fill="#222222"></path>
                            <path d="M88.3334696,8.39317605 C87.2655777,8.34899612 86.1673909,8.31365218 85.0527945,8.28209509 C89.1968715,10.0013253 94.1096793,12.3655825 98.3017231,15.296605 C101.548316,17.5649286 104.420012,20.2636909 106.500255,22.4171467 L112.701854,22.3552948 C112.701854,22.3552948 101.625316,8.93974484 88.3334696,8.39317605" id="Fill-65" fill="#FFFFFF"></path>
                            <polygon id="Fill-66" fill="#FFFFFF" points="117.686486 45.506207 132.085355 45.506207 132.085355 41.9288953 117.686486 41.9288953"></polygon>
                        </g>
                    </g>
                </g>
            </g>
        </g>
    </g>
</svg>