<?xml version="1.0" encoding="UTF-8"?>
<svg width="375px" height="232px" viewBox="0 0 375 232" version="1.1" xmlns="http://www.w3.org/2000/svg" xmlns:xlink="http://www.w3.org/1999/xlink">
    <!-- Generator: Sketch 39 (31667) - http://www.bohemiancoding.com/sketch -->
    <title>Footer/CityMobile</title>
    <desc>Created with Sketch.</desc>
    <defs>
        <polygon id="path-1" points="131.379738 47.2416363 131.379738 0.21526115 0.826669523 0.21526115 0.826669523 47.2416363 131.379738 47.2416363"></polygon>
    </defs>
    <g id="Page-1" stroke="none" stroke-width="1" fill="none" fill-rule="evenodd">
        <g id="5.-Выбор-собеседника-(+)" transform="translate(0.000000, -5714.000000)">
            <g id="Footer/CityMobile" transform="translate(0.000000, 5714.000000)">
                <g id="Group-45" transform="translate(-533.000000, 0.000000)">
                    <g id="Group-42">
                        <polygon id="Fill-1" fill="#EBBD0E" points="534.733822 227.748272 558.364398 227.748272 558.364398 80.9675393 534.733822 80.9675393"></polygon>
                        <polygon id="Fill-2" fill="#FBD133" points="511.104503 227.748272 534.733822 227.748272 534.733822 70.5432461 511.104503 70.5432461"></polygon>
                        <polygon id="Fill-3" fill="#FBD133" points="534.733822 83.0508901 558.364398 83.0508901 558.364398 78.8816754 534.733822 78.8816754"></polygon>
                        <polygon id="Fill-4" fill="#EBBD0E" points="534.733822 78.8816754 553.963979 78.8816754 553.963979 74.7124607 534.733822 74.7124607"></polygon>
                        <polygon id="Fill-5" fill="#FBD133" points="534.733822 74.7124607 548.934031 74.7124607 548.934031 70.5432461 534.733822 70.5432461"></polygon>
                        <path d="M546.070785,19.4514346 L537.714764,19.4514346 C537.879372,19.0078743 537.982408,18.5354136 537.982408,18.0365654 C537.982408,15.7710157 536.130262,13.9188691 533.865969,13.9188691 L530.97466,13.9188691 C530.118953,11.0099686 527.422408,8.86881675 524.245864,8.86881675 L517.606283,8.86881675 C514.413403,8.86881675 511.708063,11.0325864 510.866178,13.9641047 C510.719162,13.9477696 510.57466,13.9188691 510.422618,13.9188691 L506.526073,13.9188691 C504.260524,13.9188691 502.408377,15.7710157 502.408377,18.0365654 C502.408377,18.5354136 502.511414,19.0078743 502.676021,19.4514346 L495.041257,19.4514346 C493.554764,19.4514346 492.339686,20.6677696 492.339686,22.1530052 C492.339686,23.6394974 493.554764,24.8558325 495.041257,24.8558325 L507.07267,24.8558325 L534.039372,24.8558325 L546.070785,24.8558325 C547.557277,24.8558325 548.772356,23.6394974 548.772356,22.1530052 C548.772356,20.6677696 547.557277,19.4514346 546.070785,19.4514346" id="Fill-73" fill="#FDEDAD"></path>
                        <polygon id="Fill-1" fill="#FDEDAD" points="783.854286 228.285714 812.566122 228.285714 812.566122 114.928571 783.854286 114.928571"></polygon>
                        <polygon id="Fill-2" fill="#FFFFFF" points="786.283673 124.32898 806.133878 124.32898 806.133878 122.498367 786.283673 122.498367"></polygon>
                        <polygon id="Fill-3" fill="#FFFFFF" points="786.283673 129.977551 806.133878 129.977551 806.133878 128.146939 786.283673 128.146939"></polygon>
                        <polygon id="Fill-4" fill="#FFFFFF" points="786.283673 135.650612 806.133878 135.650612 806.133878 133.82 786.283673 133.82"></polygon>
                        <polygon id="Fill-5" fill="#FFFFFF" points="786.283673 141.299184 806.133878 141.299184 806.133878 139.468571 786.283673 139.468571"></polygon>
                        <polygon id="Fill-6" fill="#FFFFFF" points="786.283673 151.753878 806.133878 151.753878 806.133878 149.923265 786.283673 149.923265"></polygon>
                        <polygon id="Fill-7" fill="#FFFFFF" points="786.283673 157.403673 806.133878 157.403673 806.133878 155.573061 786.283673 155.573061"></polygon>
                        <polygon id="Fill-8" fill="#FFFFFF" points="786.283673 163.076735 806.133878 163.076735 806.133878 161.246122 786.283673 161.246122"></polygon>
                        <polygon id="Fill-9" fill="#FFFFFF" points="786.283673 168.725306 806.133878 168.725306 806.133878 166.894694 786.283673 166.894694"></polygon>
                        <polygon id="Fill-10" fill="#FFFFFF" points="786.283673 179.18 806.133878 179.18 806.133878 177.349388 786.283673 177.349388"></polygon>
                        <polygon id="Fill-11" fill="#FFFFFF" points="786.283673 184.828571 806.133878 184.828571 806.133878 182.997959 786.283673 182.997959"></polygon>
                        <polygon id="Fill-12" fill="#FFFFFF" points="786.283673 190.501633 806.133878 190.501633 806.133878 188.67102 786.283673 188.67102"></polygon>
                        <polygon id="Fill-13" fill="#FFFFFF" points="786.283673 196.150204 806.133878 196.150204 806.133878 194.319592 786.283673 194.319592"></polygon>
                        <polygon id="Fill-14" fill="#EBBD0E" points="812.566122 228.285714 826.415102 228.285714 826.415102 107.385714 812.566122 107.385714"></polygon>
                        <polygon id="Fill-15" fill="#FBD133" points="794.71 107.385714 826.41449 107.385714 812.566735 114.928571 780.908776 114.928571"></polygon>
                        <polygon id="Fill-16" fill="#A9A9A9" points="728.82449 228.60898 760.825306 228.60898 760.825306 85.1942857 728.82449 85.1942857"></polygon>
                        <polygon id="Fill-17" fill="#929292" points="728.82449 85.1942857 754.052653 85.1942857 754.052653 79.3008163 728.82449 79.3008163"></polygon>
                        <polygon id="Fill-18" fill="#929292" points="734.15102 79.3020408 754.052653 79.3020408 754.052653 73.4085714 734.15102 73.4085714"></polygon>
                        <path d="M789.44849,228.60898 L754.052163,228.60898 L754.052163,73.4085714 L770.913388,73.4085714 C781.150122,73.4085714 789.44849,81.7069388 789.44849,91.942449 L789.44849,228.60898 L789.44849,228.60898 Z" id="Fill-19" fill="#DBDBDB"></path>
                        <polygon id="Fill-21" fill="#FFFFFF" points="758.62 85.4195918 761.564898 85.4195918 761.564898 79.3020408 758.62 79.3020408"></polygon>
                        <polygon id="Fill-23" fill="#FFFFFF" points="766.367347 85.4195918 769.312245 85.4195918 769.312245 79.3020408 766.367347 79.3020408"></polygon>
                        <polygon id="Fill-24" fill="#FFFFFF" points="758.62 96.0493878 761.564898 96.0493878 761.564898 89.9318367 758.62 89.9318367"></polygon>
                        <polygon id="Fill-25" fill="#FFFFFF" points="766.367347 96.0493878 769.312245 96.0493878 769.312245 89.9318367 766.367347 89.9318367"></polygon>
                        <polygon id="Fill-26" fill="#FFFFFF" points="773.777959 96.0493878 776.722857 96.0493878 776.722857 89.9318367 773.777959 89.9318367"></polygon>
                        <polygon id="Fill-27" fill="#FFFFFF" points="758.62 107.385714 761.564898 107.385714 761.564898 101.268163 758.62 101.268163"></polygon>
                        <polygon id="Fill-28" fill="#FFFFFF" points="766.367347 107.385714 769.312245 107.385714 769.312245 101.268163 766.367347 101.268163"></polygon>
                        <polygon id="Fill-29" fill="#FFFFFF" points="773.777959 107.385714 776.722857 107.385714 776.722857 101.268163 773.777959 101.268163"></polygon>
                        <polygon id="Fill-30" fill="#FFFFFF" points="780.909388 107.385714 783.854286 107.385714 783.854286 101.268163 780.909388 101.268163"></polygon>
                        <polygon id="Fill-31" fill="#FFFFFF" points="758.62 129.290612 761.564898 129.290612 761.564898 123.173061 758.62 123.173061"></polygon>
                        <polygon id="Fill-32" fill="#FFFFFF" points="766.367347 129.290612 769.312245 129.290612 769.312245 123.173061 766.367347 123.173061"></polygon>
                        <polygon id="Fill-33" fill="#FFFFFF" points="773.777959 129.290612 776.722857 129.290612 776.722857 123.173061 773.777959 123.173061"></polygon>
                        <polygon id="Fill-34" fill="#FFFFFF" points="780.909388 129.290612 783.854286 129.290612 783.854286 123.173061 780.909388 123.173061"></polygon>
                        <polygon id="Fill-35" fill="#FFFFFF" points="758.62 139.995102 761.564898 139.995102 761.564898 133.877551 758.62 133.877551"></polygon>
                        <polygon id="Fill-36" fill="#FFFFFF" points="766.367347 139.995102 769.312245 139.995102 769.312245 133.877551 766.367347 133.877551"></polygon>
                        <polygon id="Fill-37" fill="#FFFFFF" points="773.777959 139.995102 776.722857 139.995102 776.722857 133.877551 773.777959 133.877551"></polygon>
                        <polygon id="Fill-38" fill="#FFFFFF" points="780.909388 139.995102 783.854286 139.995102 783.854286 133.877551 780.909388 133.877551"></polygon>
                        <polygon id="Fill-39" fill="#FFFFFF" points="758.62 151.108571 761.564898 151.108571 761.564898 144.99102 758.62 144.99102"></polygon>
                        <polygon id="Fill-40" fill="#FFFFFF" points="766.367347 151.108571 769.312245 151.108571 769.312245 144.99102 766.367347 144.99102"></polygon>
                        <polygon id="Fill-41" fill="#FFFFFF" points="773.777959 151.108571 776.722857 151.108571 776.722857 144.99102 773.777959 144.99102"></polygon>
                        <polygon id="Fill-42" fill="#FFFFFF" points="780.909388 151.108571 783.854286 151.108571 783.854286 144.99102 780.909388 144.99102"></polygon>
                        <polygon id="Fill-43" fill="#FFFFFF" points="758.62 161.813061 761.564898 161.813061 761.564898 155.69551 758.62 155.69551"></polygon>
                        <polygon id="Fill-44" fill="#FFFFFF" points="766.367347 161.813061 769.312245 161.813061 769.312245 155.69551 766.367347 155.69551"></polygon>
                        <polygon id="Fill-45" fill="#FFFFFF" points="773.777959 161.813061 776.722857 161.813061 776.722857 155.69551 773.777959 155.69551"></polygon>
                        <polygon id="Fill-46" fill="#FFFFFF" points="780.909388 161.813061 783.854286 161.813061 783.854286 155.69551 780.909388 155.69551"></polygon>
                        <polygon id="Fill-47" fill="#FFFFFF" points="758.62 182.40898 761.564898 182.40898 761.564898 176.291429 758.62 176.291429"></polygon>
                        <polygon id="Fill-48" fill="#FFFFFF" points="766.367347 182.40898 769.312245 182.40898 769.312245 176.291429 766.367347 176.291429"></polygon>
                        <polygon id="Fill-49" fill="#FFFFFF" points="773.777959 182.40898 776.722857 182.40898 776.722857 176.291429 773.777959 176.291429"></polygon>
                        <polygon id="Fill-50" fill="#FFFFFF" points="780.909388 182.40898 783.854286 182.40898 783.854286 176.291429 780.909388 176.291429"></polygon>
                        <polygon id="Fill-51" fill="#FFFFFF" points="758.62 193.113469 761.564898 193.113469 761.564898 186.995918 758.62 186.995918"></polygon>
                        <polygon id="Fill-52" fill="#FFFFFF" points="766.367347 193.113469 769.312245 193.113469 769.312245 186.995918 766.367347 186.995918"></polygon>
                        <polygon id="Fill-53" fill="#FFFFFF" points="773.777959 193.113469 776.722857 193.113469 776.722857 186.995918 773.777959 186.995918"></polygon>
                        <polygon id="Fill-54" fill="#FFFFFF" points="780.909388 193.113469 783.854286 193.113469 783.854286 186.995918 780.909388 186.995918"></polygon>
                        <polygon id="Fill-55" fill="#FFFFFF" points="758.62 204.757143 761.564898 204.757143 761.564898 198.639592 758.62 198.639592"></polygon>
                        <polygon id="Fill-56" fill="#FFFFFF" points="766.367347 204.757143 769.312245 204.757143 769.312245 198.639592 766.367347 198.639592"></polygon>
                        <polygon id="Fill-57" fill="#FFFFFF" points="773.777959 204.757143 776.722857 204.757143 776.722857 198.639592 773.777959 198.639592"></polygon>
                        <polygon id="Fill-58" fill="#FFFFFF" points="780.909388 204.757143 783.854286 204.757143 783.854286 198.639592 780.909388 198.639592"></polygon>
                        <polygon id="Fill-59" fill="#FFFFFF" points="758.62 215.461633 761.564898 215.461633 761.564898 209.344082 758.62 209.344082"></polygon>
                        <polygon id="Fill-60" fill="#FFFFFF" points="766.367347 215.461633 769.312245 215.461633 769.312245 209.344082 766.367347 209.344082"></polygon>
                        <polygon id="Fill-61" fill="#FFFFFF" points="773.777959 215.461633 776.722857 215.461633 776.722857 209.344082 773.777959 209.344082"></polygon>
                        <polygon id="Fill-62" fill="#FFFFFF" points="780.909388 215.461633 783.854286 215.461633 783.854286 209.344082 780.909388 209.344082"></polygon>
                        <polygon id="Fill-63" fill="#A9A9A9" points="633.602041 226.859184 662.15102 226.859184 662.15102 106.829796 633.602041 106.829796"></polygon>
                        <polygon id="Fill-64" fill="#DBDBDB" points="658.525306 226.859184 700.150612 226.859184 700.150612 106.829796 658.525306 106.829796"></polygon>
                        <polygon id="Fill-65" fill="#FFFFFF" points="664.757959 113.759184 675.753878 113.759184 675.753878 112.186939 664.757959 112.186939"></polygon>
                        <polygon id="Fill-66" fill="#FFFFFF" points="664.757959 117.984898 675.753878 117.984898 675.753878 116.412653 664.757959 116.412653"></polygon>
                        <polygon id="Fill-67" fill="#FFFFFF" points="664.757959 122.211837 675.753878 122.211837 675.753878 120.639592 664.757959 120.639592"></polygon>
                        <polygon id="Fill-68" fill="#FFFFFF" points="664.757959 126.437551 675.753878 126.437551 675.753878 124.865306 664.757959 124.865306"></polygon>
                        <polygon id="Fill-69" fill="#FFFFFF" points="664.757959 130.663265 675.753878 130.663265 675.753878 129.09102 664.757959 129.09102"></polygon>
                        <polygon id="Fill-70" fill="#FFFFFF" points="664.757959 134.890204 675.753878 134.890204 675.753878 133.317959 664.757959 133.317959"></polygon>
                        <polygon id="Fill-71" fill="#FFFFFF" points="664.757959 139.115918 675.753878 139.115918 675.753878 137.543673 664.757959 137.543673"></polygon>
                        <polygon id="Fill-72" fill="#FFFFFF" points="664.757959 143.341633 675.753878 143.341633 675.753878 141.769388 664.757959 141.769388"></polygon>
                        <polygon id="Fill-73" fill="#FFFFFF" points="664.757959 147.568571 675.753878 147.568571 675.753878 145.996327 664.757959 145.996327"></polygon>
                        <polygon id="Fill-74" fill="#FFFFFF" points="664.757959 151.794286 675.753878 151.794286 675.753878 150.222041 664.757959 150.222041"></polygon>
                        <polygon id="Fill-75" fill="#FFFFFF" points="664.757959 156.021224 675.753878 156.021224 675.753878 154.44898 664.757959 154.44898"></polygon>
                        <polygon id="Fill-76" fill="#FFFFFF" points="664.757959 160.246939 675.753878 160.246939 675.753878 158.674694 664.757959 158.674694"></polygon>
                        <polygon id="Fill-77" fill="#FFFFFF" points="664.757959 164.472653 675.753878 164.472653 675.753878 162.900408 664.757959 162.900408"></polygon>
                        <polygon id="Fill-78" fill="#FFFFFF" points="664.757959 168.698367 675.753878 168.698367 675.753878 167.126122 664.757959 167.126122"></polygon>
                        <polygon id="Fill-79" fill="#FFFFFF" points="685.079592 113.759184 696.07551 113.759184 696.07551 112.186939 685.079592 112.186939"></polygon>
                        <polygon id="Fill-80" fill="#FFFFFF" points="685.079592 117.984898 696.07551 117.984898 696.07551 116.412653 685.079592 116.412653"></polygon>
                        <polygon id="Fill-81" fill="#FFFFFF" points="685.079592 122.211837 696.07551 122.211837 696.07551 120.639592 685.079592 120.639592"></polygon>
                        <polygon id="Fill-82" fill="#FFFFFF" points="685.079592 126.437551 696.07551 126.437551 696.07551 124.865306 685.079592 124.865306"></polygon>
                        <polygon id="Fill-83" fill="#FFFFFF" points="685.079592 130.663265 696.07551 130.663265 696.07551 129.09102 685.079592 129.09102"></polygon>
                        <polygon id="Fill-84" fill="#FFFFFF" points="685.079592 134.890204 696.07551 134.890204 696.07551 133.317959 685.079592 133.317959"></polygon>
                        <polygon id="Fill-85" fill="#FFFFFF" points="685.079592 139.115918 696.07551 139.115918 696.07551 137.543673 685.079592 137.543673"></polygon>
                        <polygon id="Fill-86" fill="#FFFFFF" points="685.079592 143.341633 696.07551 143.341633 696.07551 141.769388 685.079592 141.769388"></polygon>
                        <polygon id="Fill-87" fill="#FFFFFF" points="685.079592 147.568571 696.07551 147.568571 696.07551 145.996327 685.079592 145.996327"></polygon>
                        <polygon id="Fill-88" fill="#FFFFFF" points="685.079592 151.794286 696.07551 151.794286 696.07551 150.222041 685.079592 150.222041"></polygon>
                        <polygon id="Fill-89" fill="#FFFFFF" points="685.079592 156.021224 696.07551 156.021224 696.07551 154.44898 685.079592 154.44898"></polygon>
                        <polygon id="Fill-90" fill="#FFFFFF" points="685.079592 160.246939 696.07551 160.246939 696.07551 158.674694 685.079592 158.674694"></polygon>
                        <polygon id="Fill-91" fill="#FFFFFF" points="685.079592 164.472653 696.07551 164.472653 696.07551 162.900408 685.079592 162.900408"></polygon>
                        <polygon id="Fill-92" fill="#FFFFFF" points="685.079592 168.698367 696.07551 168.698367 696.07551 167.126122 685.079592 167.126122"></polygon>
                        <polygon id="Fill-93" fill="#929292" points="640.140816 106.829796 695.300408 106.829796 695.300408 101.508163 640.140816 101.508163"></polygon>
                        <polygon id="Fill-94" fill="#929292" points="644.922449 101.508163 690.586122 101.508163 690.586122 96.1865306 644.922449 96.1865306"></polygon>
                        <polygon id="Fill-95" fill="#FBD133" points="603.88 126.460816 637.729796 126.460816 637.729796 117.198776 603.88 117.198776"></polygon>
                        <polygon id="Fill-96" fill="#FDEDAD" points="609.13551 226.859184 645.660816 226.859184 645.660816 125.890204 609.13551 125.890204"></polygon>
                        <polygon id="Fill-97" fill="#EBBD0E" points="593.720408 226.859184 614.038367 226.859184 614.038367 125.890204 593.720408 125.890204"></polygon>
                        <polygon id="Fill-98" fill="#FFFFFF" points="620.716735 226.659592 622.206939 226.659592 622.206939 125.891429 620.716735 125.891429"></polygon>
                        <polygon id="Fill-99" fill="#FFFFFF" points="625.172653 226.659592 626.662857 226.659592 626.662857 125.891429 625.172653 125.891429"></polygon>
                        <polygon id="Fill-100" fill="#FFFFFF" points="629.403265 226.659592 630.893469 226.659592 630.893469 125.891429 629.403265 125.891429"></polygon>
                        <polygon id="Fill-101" fill="#FFFFFF" points="633.859184 226.659592 635.349388 226.659592 635.349388 125.891429 633.859184 125.891429"></polygon>
                        <polygon id="Fill-102" fill="#FFFFFF" points="638.002857 226.659592 639.493061 226.659592 639.493061 125.891429 638.002857 125.891429"></polygon>
                        <path d="M607.175102,80.4329796 L610.187347,80.4329796 C610.424898,80.4329796 610.655102,80.4635918 610.879184,80.5137959 C611.146122,78.2913469 613.031837,76.546449 615.322857,76.546449 L619.581633,76.546449 C621.626531,76.546449 623.34449,77.9386939 623.885714,79.8158367 C623.986122,79.8035918 624.084082,79.7852245 624.186939,79.7852245 L626.686122,79.7852245 C628.138367,79.7852245 629.326122,80.9729796 629.326122,82.4252245 C629.326122,82.7448163 629.26,83.0484898 629.154694,83.3325714 L634.050204,83.3325714 C635.002857,83.3325714 635.782857,84.1125714 635.782857,85.0652245 C635.782857,86.0178776 635.002857,86.7978776 634.050204,86.7978776 L610.187347,86.7978776 L609.044898,86.7978776 L607.175102,86.7978776 C605.425306,86.7978776 603.992653,85.3652245 603.992653,83.6154286 C603.992653,81.8644082 605.425306,80.4329796 607.175102,80.4329796" id="Fill-104" fill="#FFFFFF"></path>
                        <path d="M783.996939,36.8438776 L780.984694,36.8438776 C780.747143,36.8438776 780.516939,36.8757143 780.292857,36.9259184 C780.024694,34.7022449 778.140204,32.9585714 775.847959,32.9585714 L771.590408,32.9585714 C769.54551,32.9585714 767.827551,34.3495918 767.286327,36.2267347 C767.185918,36.2144898 767.087959,36.1961224 766.985102,36.1961224 L764.485918,36.1961224 C763.033673,36.1961224 761.845918,37.3838776 761.845918,38.8361224 C761.845918,39.1557143 761.912041,39.4593878 762.017347,39.7434694 L757.121837,39.7434694 C756.169184,39.7434694 755.389184,40.5234694 755.389184,41.4761224 C755.389184,42.4287755 756.169184,43.2087755 757.121837,43.2087755 L780.984694,43.2087755 L782.127143,43.2087755 L783.996939,43.2087755 C785.746735,43.2087755 787.179388,41.7761224 787.179388,40.0263265 C787.179388,38.2765306 785.746735,36.8438776 783.996939,36.8438776" id="Fill-105" fill="#FFFFFF"></path>
                        <path d="M816.093755,50.6891837 L807.950898,50.6891837 C808.111306,50.2569388 808.211714,49.7965306 808.211714,49.3104082 C808.211714,47.1026531 806.406816,45.2977551 804.200286,45.2977551 L801.382735,45.2977551 C800.548857,42.4630612 797.921102,40.3765306 794.825592,40.3765306 L788.355388,40.3765306 C785.243959,40.3765306 782.607633,42.485102 781.787224,45.3418367 C781.643959,45.3259184 781.503143,45.2977551 781.35498,45.2977551 L777.557837,45.2977551 C775.350082,45.2977551 773.545184,47.1026531 773.545184,49.3104082 C773.545184,49.7965306 773.645592,50.2569388 773.806,50.6891837 L766.366,50.6891837 C764.917429,50.6891837 763.733347,51.8744898 763.733347,53.3218367 C763.733347,54.7704082 764.917429,55.9557143 766.366,55.9557143 L778.09049,55.9557143 L804.369265,55.9557143 L816.093755,55.9557143 C817.542327,55.9557143 818.726408,54.7704082 818.726408,53.3218367 C818.726408,51.8744898 817.542327,50.6891837 816.093755,50.6891837" id="Fill-106" fill="#FDEDAD"></path>
                        <path d="M668.802367,37.4102449 L660.150122,37.4102449 C660.321551,36.9510612 660.428082,36.4612653 660.428082,35.9445306 C660.428082,33.5996327 658.509306,31.6808571 656.164408,31.6808571 L653.170531,31.6808571 C652.285224,28.6698367 649.493388,26.4522857 646.204408,26.4522857 L639.328898,26.4522857 C636.024,26.4522857 633.221143,28.693102 632.350531,31.7273878 C632.197469,31.7114694 632.048082,31.6808571 631.891347,31.6808571 L627.855429,31.6808571 C625.510531,31.6808571 623.591755,33.5996327 623.591755,35.9445306 C623.591755,36.4612653 623.69951,36.9510612 623.869714,37.4102449 L615.964408,37.4102449 C614.425224,37.4102449 613.166449,38.6690204 613.166449,40.2082041 C613.166449,41.7461633 614.425224,43.0049388 615.964408,43.0049388 L628.422367,43.0049388 L656.344408,43.0049388 L668.802367,43.0049388 C670.341551,43.0049388 671.600327,41.7461633 671.600327,40.2082041 C671.600327,38.6690204 670.341551,37.4102449 668.802367,37.4102449" id="Fill-107" fill="#FFFFFF"></path>
                        <path d="M684.095143,46.6242857 L680.448612,46.6242857 C680.588204,46.292449 680.665347,45.93 680.665347,45.5491837 C680.665347,44.0063265 679.402898,42.7438776 677.860041,42.7438776 L675.205347,42.7438776 C675.071878,42.7438776 674.943306,42.7659184 674.81351,42.7842857 C674.098408,41.1153061 672.438,39.9385714 670.515551,39.9385714 L666.090245,39.9385714 C663.518816,39.9385714 661.415143,42.0434694 661.415143,44.614898 C661.415143,45.3361224 661.593918,46.0120408 661.88902,46.6242857 L658.560857,46.6242857 C657.591061,46.6242857 656.796367,47.4177551 656.796367,48.3887755 L656.796367,48.7230612 C656.796367,49.6928571 657.591061,50.4863265 658.560857,50.4863265 L684.095143,50.4863265 C685.064939,50.4863265 685.859633,49.6928571 685.859633,48.7230612 L685.859633,48.3887755 C685.859633,47.4177551 685.064939,46.6242857 684.095143,46.6242857" id="Fill-109" fill="#FDEDAD"></path>
                        <polygon id="Fill-38" fill="#A9A9A9" points="900.544082 225.892255 942.593061 225.892255 942.593061 115.253794 900.544082 115.253794"></polygon>
                        <polygon id="Fill-48" fill="#A9A9A9" points="843.086122 228.654145 880.892245 228.654145 880.892245 96.1017455 843.086122 96.1017455"></polygon>
                        <polygon id="Fill-49" fill="#DBDBDB" points="877.845714 228.654145 912.650612 228.654145 912.650612 96.1017455 877.845714 96.1017455"></polygon>
                        <polygon id="Fill-50" fill="#FFFFFF" points="883.576327 112.087903 885.17551 112.087903 885.17551 101.061152 883.576327 101.061152"></polygon>
                        <polygon id="Fill-51" fill="#FFFFFF" points="887.925714 112.087903 889.524898 112.087903 889.524898 101.061152 887.925714 101.061152"></polygon>
                        <polygon id="Fill-52" fill="#FFFFFF" points="892.273878 112.087903 893.873061 112.087903 893.873061 101.061152 892.273878 101.061152"></polygon>
                        <polygon id="Fill-53" fill="#FFFFFF" points="896.623265 112.087903 898.222449 112.087903 898.222449 101.061152 896.623265 101.061152"></polygon>
                        <polygon id="Fill-54" fill="#FFFFFF" points="900.972653 112.087903 902.571837 112.087903 902.571837 101.061152 900.972653 101.061152"></polygon>
                        <polygon id="Fill-55" fill="#FFFFFF" points="905.322041 112.087903 906.921224 112.087903 906.921224 101.061152 905.322041 101.061152"></polygon>
                        <polygon id="Fill-56" fill="#FFFFFF" points="883.576327 136.13937 885.17551 136.13937 885.17551 125.112618 883.576327 125.112618"></polygon>
                        <polygon id="Fill-57" fill="#FFFFFF" points="887.925714 136.13937 889.524898 136.13937 889.524898 125.112618 887.925714 125.112618"></polygon>
                        <polygon id="Fill-58" fill="#FFFFFF" points="892.273878 136.13937 893.873061 136.13937 893.873061 125.112618 892.273878 125.112618"></polygon>
                        <polygon id="Fill-59" fill="#FFFFFF" points="896.623265 136.13937 898.222449 136.13937 898.222449 125.112618 896.623265 125.112618"></polygon>
                        <polygon id="Fill-60" fill="#FFFFFF" points="900.972653 136.13937 902.571837 136.13937 902.571837 125.112618 900.972653 125.112618"></polygon>
                        <polygon id="Fill-61" fill="#FFFFFF" points="905.322041 136.13937 906.921224 136.13937 906.921224 125.112618 905.322041 125.112618"></polygon>
                        <polygon id="Fill-62" fill="#FFFFFF" points="883.576327 159.472206 885.17551 159.472206 885.17551 148.445455 883.576327 148.445455"></polygon>
                        <polygon id="Fill-63" fill="#FFFFFF" points="887.925714 159.472206 889.524898 159.472206 889.524898 148.445455 887.925714 148.445455"></polygon>
                        <polygon id="Fill-64" fill="#FFFFFF" points="892.273878 159.472206 893.873061 159.472206 893.873061 148.445455 892.273878 148.445455"></polygon>
                        <polygon id="Fill-65" fill="#FFFFFF" points="896.623265 159.472206 898.222449 159.472206 898.222449 148.445455 896.623265 148.445455"></polygon>
                        <polygon id="Fill-66" fill="#FFFFFF" points="900.972653 159.472206 902.571837 159.472206 902.571837 148.445455 900.972653 148.445455"></polygon>
                        <polygon id="Fill-67" fill="#FFFFFF" points="905.322041 159.472206 906.921224 159.472206 906.921224 148.445455 905.322041 148.445455"></polygon>
                        <polygon id="Fill-68" fill="#FFFFFF" points="852.611429 213.846933 854.333061 213.846933 854.333061 96.1005212 852.611429 96.1005212"></polygon>
                        <polygon id="Fill-69" fill="#FFFFFF" points="857.884082 213.846933 859.605714 213.846933 859.605714 96.1005212 857.884082 96.1005212"></polygon>
                        <polygon id="Fill-70" fill="#FFFFFF" points="863.710204 213.846933 865.431837 213.846933 865.431837 96.1005212 863.710204 96.1005212"></polygon>
                        <polygon id="Fill-71" fill-opacity="0.54" fill="#363636" points="843.086122 96.1005212 904.038776 96.1005212 904.038776 90.8166909 843.086122 90.8166909"></polygon>
                        <polygon id="Fill-72" fill-opacity="0.54" fill="#363636" points="843.084898 91.0150182 895.248163 91.0150182 895.248163 85.7311879 843.084898 85.7311879"></polygon>
                        <path d="M897.870653,39.2779212 L900.882898,39.2779212 C901.120449,39.2779212 901.350653,39.3085273 901.574735,39.3587212 C901.841673,37.1367212 903.727388,35.3921758 906.018408,35.3921758 L910.277184,35.3921758 C912.322082,35.3921758 914.040041,36.7841394 914.581265,38.660903 C914.681673,38.6486606 914.779633,38.630297 914.88249,38.630297 L917.381673,38.630297 C918.833918,38.630297 920.021673,39.8178121 920.021673,41.2697636 C920.021673,41.5892909 919.955551,41.892903 919.850245,42.1769273 L924.745755,42.1769273 C925.698408,42.1769273 926.478408,42.9567697 926.478408,43.9092303 C926.478408,44.8616909 925.698408,45.6415333 924.745755,45.6415333 L900.882898,45.6415333 L899.740449,45.6415333 L897.870653,45.6415333 C896.120857,45.6415333 894.688204,44.2091697 894.688204,42.4597273 C894.688204,40.7090606 896.120857,39.2779212 897.870653,39.2779212" id="Fill-74" fill="#FFFFFF"></path>
                        <path d="M894.893796,11.4310776 L886.241551,11.4310776 C886.41298,10.9719867 886.51951,10.4822897 886.51951,9.96565939 C886.51951,7.62123515 884.600735,5.70284727 882.255837,5.70284727 L879.261959,5.70284727 C878.376653,2.69243515 875.584816,0.475332121 872.295837,0.475332121 L865.420327,0.475332121 C862.115429,0.475332121 859.312571,2.71569576 858.441959,5.75059273 C858.288898,5.73345333 858.13951,5.70284727 857.982776,5.70284727 L853.946857,5.70284727 C851.601959,5.70284727 849.684408,7.62123515 849.684408,9.96565939 C849.684408,10.4822897 849.790939,10.9719867 849.961143,11.4310776 L842.055837,11.4310776 C840.516653,11.4310776 839.257878,12.6895988 839.257878,14.2284715 C839.257878,15.76612 840.516653,17.0258655 842.055837,17.0258655 L854.513796,17.0258655 L882.435837,17.0258655 L894.893796,17.0258655 C896.43298,17.0258655 897.691755,15.76612 897.691755,14.2284715 C897.691755,12.6895988 896.43298,11.4310776 894.893796,11.4310776" id="Fill-81" fill="#FFFFFF"></path>
                        <path d="M910.186571,70.643257 L906.540041,70.643257 C906.678408,70.3114873 906.756776,69.9491115 906.756776,69.5683721 C906.756776,68.0258267 905.494327,66.7636327 903.951469,66.7636327 L901.296776,66.7636327 C901.162082,66.7636327 901.034735,66.7856691 900.904939,66.8040327 C900.189837,65.1353903 898.529429,63.9588933 896.60698,63.9588933 L892.181673,63.9588933 C889.610245,63.9588933 887.505347,66.0633661 887.505347,68.6342752 C887.505347,69.3553539 887.685347,70.0311358 887.980449,70.643257 L884.652286,70.643257 C883.681265,70.643257 882.887796,71.4365661 882.887796,72.4073903 L882.887796,72.7416085 C882.887796,73.7112085 883.681265,74.5045176 884.652286,74.5045176 L910.186571,74.5045176 C911.156367,74.5045176 911.951061,73.7112085 911.951061,72.7416085 L911.951061,72.4073903 C911.951061,71.4365661 911.156367,70.643257 910.186571,70.643257" id="Fill-85" fill="#FDEDAD"></path>
                        <polygon id="Fill-31" fill="#9B9B9B" points="0 231.845279 1440 231.845279 1440 226 0 226"></polygon>
                        <g id="Page-1" transform="translate(635.052653, 167.009132)">
                            <path d="M51.7128554,4.99170046 C51.7128554,4.99170046 52.3970131,2.99476782 52.7693868,1.74763163 C53.1417605,0.49923316 54.0569161,0.000631141795 55.9389809,0.000631141795 L63.3334382,0.000631141795 C65.0968483,0.000631141795 65.8201368,0.747903027 66.2013465,1.83977833 C66.8337506,3.65367985 67.1657311,4.99170046 67.1657311,4.99170046 L51.7128554,4.99170046 L51.7128554,4.99170046 Z" id="Fill-1" fill="#222222"></path>
                            <path d="M135.823481,51.0778006 C135.823481,56.4311453 131.6327,60.769614 126.462386,60.769614 C121.293335,60.769614 117.101291,56.4311453 117.101291,51.0778006 C117.101291,45.7257181 121.293335,41.3859871 126.462386,41.3859871 C131.6327,41.3859871 135.823481,45.7257181 135.823481,51.0778006" id="Fill-3" fill="#222222"></path>
                            <path d="M68.8000097,51.0778006 C68.8000097,56.4311453 64.6092282,60.769614 59.4389146,60.769614 C54.268601,60.769614 50.0778195,56.4311453 50.0778195,51.0778006 C50.0778195,45.7257181 54.268601,41.3859871 59.4389146,41.3859871 C64.6092282,41.3859871 68.8000097,45.7257181 68.8000097,51.0778006" id="Fill-5" fill="#222222"></path>
                            <polygon id="Fill-7" fill="#FDEDAD" points="9.69509534 17.1368882 6.92564514 11.8706411 20.9231079 7.94493914"></polygon>
                            <g id="Group-11" transform="translate(11.360552, 3.806627)">
                                <mask id="mask-2" fill="white">
                                    <use xlink:href="#path-1"></use>
                                </mask>
                                <g id="Clip-10"></g>
                                <path d="M126.832867,26.2953024 C120.325795,19.0763026 107.033948,17.8859691 103.157476,15.5204497 C99.2810027,13.1561925 88.0492033,0.21526115 67.1584099,0.21526115 C60.5137491,0.21526115 43.6218701,0.573749689 30.8841664,0.573749689 C21.8575764,0.573749689 14.9251149,2.08217858 9.56167197,4.13843855 C6.01339279,5.49918026 3.1517959,7.09849357 0.826669523,8.65867608 C6.51830623,6.65543203 13.8420756,5.01698793 22.0532304,5.21642873 C39.1533862,5.63045775 49.7944368,15.1165189 49.7944368,15.1165189 L57.0361578,23.4286564 C57.0361578,23.4286564 69.4305204,23.8666688 79.1879725,29.0054253 C85.6824216,32.4262138 87.3397999,42.3767953 87.7639272,47.2416363 C110.726128,47.2075546 128.70862,46.9361637 129.862347,46.1914163 C133.18594,44.0455342 130.540194,30.4090846 126.832867,26.2953024" id="Fill-9" fill="#FDEDAD" mask="url(#mask-2)"></path>
                            </g>
                            <path d="M90.5487773,32.8126832 C80.7913251,27.6739267 68.3957003,27.2359143 68.3957003,27.2359143 L61.1552416,18.9237769 C61.1552416,18.9237769 50.5129286,9.43771572 33.4140351,9.02242442 C25.2016181,8.82298361 17.8778487,10.4614277 12.1874743,12.465934 C10.5553416,13.5615962 9.1870262,14.6370618 8.02951214,15.5963974 C3.89300882,19.031071 3.87659913,21.8636354 3.32245664,27.6789759 C3.16467119,29.3325674 2.24320417,33.5788894 0.268992633,37.9072598 C-0.461869566,39.5116222 0.444450052,43.2656536 1.24600013,45.0909157 C2.38205536,47.6798594 5.48727299,50.4493096 8.03203671,50.4493096 C27.4232372,50.4493096 67.2419731,51.0955988 99.124732,51.047632 C98.7006047,46.1840533 97.0419641,36.2334718 90.5487773,32.8126832" id="Fill-12" fill="#FBD133"></path>
                            <path d="M0,41.9297789 C0,41.9297789 0,45.5525328 2.07645651,48.0215595 C4.15291301,50.4905862 4.56820431,51.5748878 8.51410281,51.5748878 L137.900695,51.5748878 C140.60072,51.5748878 142.577456,49.2371386 142.649406,46.7517022 L5.19177241,46.7517022 C5.19177241,46.7517022 1.869442,44.583099 0,41.9297789" id="Fill-14" fill="#222222"></path>
                            <path d="M64.5192274,18.9236507 L50.1203585,18.9236507 C44.5814581,18.9236507 42.3661504,27.5374739 49.0120735,27.6611777 C55.6579966,27.7848815 71.9250452,27.5349493 71.9250452,27.5349493 L64.5192274,18.9236507 Z" id="Fill-16" fill="#FDEDAD"></path>
                            <polygon id="Fill-18" fill="#FDEDAD" points="33.4140351 9.0228031 21.5940116 7.69614305 11.1460903 10.6877552 11.1460903 15.2963525"></polygon>
                            <polygon id="Fill-20" fill="#000000" points="3.9383248 22.3546637 8.79937891 17.9480317 10.0970064 20.9863483 3.32233041 27.6789759"></polygon>
                            <path d="M29.8684068,51.2268762 C29.8684068,56.5789587 25.6776252,60.9186896 20.5073117,60.9186896 C15.3369981,60.9186896 11.1462166,56.5789587 11.1462166,51.2268762 C11.1462166,45.8747938 15.3369981,41.5350628 20.5073117,41.5350628 C25.6776252,41.5350628 29.8684068,45.8747938 29.8684068,51.2268762" id="Fill-22" fill="#222222"></path>
                            <path d="M26.8144378,51.2268762 C26.8144378,54.7095167 23.9907095,57.5332451 20.508069,57.5332451 C17.0241663,57.5332451 14.2004379,54.7095167 14.2004379,51.2268762 C14.2004379,47.7442358 17.0241663,44.9205074 20.508069,44.9205074 C23.9907095,44.9205074 26.8144378,47.7442358 26.8144378,51.2268762" id="Fill-24" fill="#FBD133"></path>
                            <path d="M22.1689818,51.2268762 C22.1689818,52.1445564 21.4254967,52.8880414 20.5078166,52.8880414 C19.5901364,52.8880414 18.8466514,52.1445564 18.8466514,51.2268762 C18.8466514,50.3091961 19.5901364,49.565711 20.5078166,49.565711 C21.4254967,49.565711 22.1689818,50.3091961 22.1689818,51.2268762" id="Fill-26" fill="#000000"></path>
                            <path d="M92.6213207,51.1613637 C92.6213207,56.5147084 88.4305392,60.8531771 83.2602256,60.8531771 C78.089912,60.8531771 73.8991305,56.5147084 73.8991305,51.1613637 C73.8991305,45.8092813 78.089912,41.4695503 83.2602256,41.4695503 C88.4305392,41.4695503 92.6213207,45.8092813 92.6213207,51.1613637" id="Fill-28" fill="#222222"></path>
                            <path d="M89.5673518,51.1613637 C89.5673518,54.6452664 86.7436234,57.4689948 83.260983,57.4689948 C79.7770803,57.4689948 76.9533519,54.6452664 76.9533519,51.1613637 C76.9533519,47.6787233 79.7770803,44.8549949 83.260983,44.8549949 C86.7436234,44.8549949 89.5673518,47.6787233 89.5673518,51.1613637" id="Fill-30" fill="#FBD133"></path>
                            <path d="M84.9218957,51.1613637 C84.9218957,52.0790439 84.1784107,52.8225289 83.2607305,52.8225289 C82.3430503,52.8225289 81.5995653,52.0790439 81.5995653,51.1613637 C81.5995653,50.2436836 82.3430503,49.5001985 83.2607305,49.5001985 C84.1784107,49.5001985 84.9218957,50.2436836 84.9218957,51.1613637" id="Fill-32" fill="#000000"></path>
                            <path d="M136.418901,37.3201717 L141.577854,37.3201717 C141.577854,37.3201717 140.838155,30.7954278 138.193671,30.1024341 C136.581735,31.4757987 136.418901,37.3201717 136.418901,37.3201717" id="Fill-34" fill="#FFFFFF"></path>
                            <path d="M133.129011,39.7953836 L115.542876,39.7953836 C114.708506,39.7953836 114.343707,39.7953836 113.9423,41.2697308 C113.604008,42.5118179 112.707787,46.2696361 112.707787,46.2696361 C112.625739,47.2112997 113.366699,48.0216858 114.308363,48.0216858 L134.647538,48.0216858 C135.726791,48.0216858 136.499308,46.9739904 136.184999,45.9376555 L134.66521,40.9377502 C134.459458,40.2586417 133.83589,39.7953836 133.129011,39.7953836" id="Fill-36" fill="#222222"></path>
                            <path d="M111.870767,31.9034604 C111.870767,31.9034604 112.667268,33.5646256 113.49785,34.7069922 C114.328433,35.8493589 115.055508,36.9879387 117.85904,36.9904632 C120.662572,36.9917255 128.03557,37.0914459 130.00852,36.9904632 C131.981469,36.8882183 133.003919,36.201536 133.33085,34.4696829 C133.56311,33.2376941 133.850911,31.9034604 133.850911,31.9034604 L111.870767,31.9034604 Z" id="Fill-38" fill="#222222"></path>
                            <path d="M84.0155761,30.1019292 C84.0155761,30.1019292 85.5606112,36.3956752 91.3797386,37.035653 C97.1988659,37.6756308 104.878599,37.035653 104.878599,37.035653 C104.878599,37.035653 104.282801,32.3285975 98.8562443,31.0726253 C93.4296871,29.8166531 84.0155761,30.1019292 84.0155761,30.1019292" id="Fill-40" fill="#FFFFFF"></path>
                            <path d="M57.8735567,14.9653818 C57.046761,14.0338165 56.2654074,13.1868242 55.4461854,12.4307163 C51.3298786,8.63124273 46.2592854,7.19855086 29.6286991,9.50474298 C21.1448911,10.6824536 15.1187492,16.7237428 15.1187492,16.7237428 L16.3254924,18.9239031 L18.7301426,23.3090763 L64.5194798,23.9503164 C64.5194798,23.9503164 62.8583146,20.5850683 57.8735567,14.9653818" id="Fill-42" fill="#222222"></path>
                            <polygon id="Fill-44" fill="#000000" points="20.1687672 34.7023218 22.7867434 34.7023218 22.7867434 32.0843456 20.1687672 32.0843456"></polygon>
                            <polygon id="Fill-46" fill="#000000" points="22.7867434 37.3202979 25.4047195 37.3202979 25.4047195 34.7023218 22.7867434 34.7023218"></polygon>
                            <polygon id="Fill-47" fill="#000000" points="17.5369059 37.3202979 20.1548821 37.3202979 20.1548821 34.7023218 17.5369059 34.7023218"></polygon>
                            <polygon id="Fill-48" fill="#000000" points="25.4047195 34.7023218 28.0226957 34.7023218 28.0226957 32.0843456 25.4047195 32.0843456"></polygon>
                            <polygon id="Fill-49" fill="#000000" points="28.0226957 37.3202979 30.6406719 37.3202979 30.6406719 34.7023218 28.0226957 34.7023218"></polygon>
                            <polygon id="Fill-50" fill="#000000" points="30.6406719 34.7023218 33.258648 34.7023218 33.258648 32.0843456 30.6406719 32.0843456"></polygon>
                            <polygon id="Fill-51" fill="#000000" points="33.258648 37.3202979 35.8766242 37.3202979 35.8766242 34.7023218 33.258648 34.7023218"></polygon>
                            <polygon id="Fill-52" fill="#000000" points="35.8766242 34.7023218 38.4946004 34.7023218 38.4946004 32.0843456 35.8766242 32.0843456"></polygon>
                            <polygon id="Fill-53" fill="#000000" points="41.1125765 34.7023218 43.7305527 34.7023218 43.7305527 32.0843456 41.1125765 32.0843456"></polygon>
                            <polygon id="Fill-54" fill="#000000" points="38.4946004 37.3202979 41.1125765 37.3202979 41.1125765 34.7023218 38.4946004 34.7023218"></polygon>
                            <polygon id="Fill-55" fill="#000000" points="43.7305527 37.3202979 46.3485289 37.3202979 46.3485289 34.7023218 43.7305527 34.7023218"></polygon>
                            <polygon id="Fill-56" fill="#000000" points="46.3485289 34.7023218 48.966505 34.7023218 48.966505 32.0843456 46.3485289 32.0843456"></polygon>
                            <polygon id="Fill-57" fill="#000000" points="48.966505 37.3202979 51.5844812 37.3202979 51.5844812 34.7023218 48.966505 34.7023218"></polygon>
                            <polygon id="Fill-58" fill="#000000" points="51.5857435 34.7023218 54.2037196 34.7023218 54.2037196 32.0843456 51.5857435 32.0843456"></polygon>
                            <polygon id="Fill-59" fill="#000000" points="54.2024574 37.3202979 56.8204335 37.3202979 56.8204335 34.7023218 54.2024574 34.7023218"></polygon>
                            <polygon id="Fill-60" fill="#000000" points="56.8216958 34.7023218 59.439672 34.7023218 59.439672 32.0843456 56.8216958 32.0843456"></polygon>
                            <polygon id="Fill-61" fill="#000000" points="62.0576481 34.7023218 64.6756243 34.7023218 64.6756243 32.0843456 62.0576481 32.0843456"></polygon>
                            <polygon id="Fill-62" fill="#000000" points="59.439672 37.3202979 62.0576481 37.3202979 62.0576481 34.7023218 59.439672 34.7023218"></polygon>
                            <polygon id="Fill-63" fill="#000000" points="64.6756243 37.3202979 67.2936005 37.3202979 67.2936005 34.7023218 64.6756243 34.7023218"></polygon>
                            <path d="M98.302228,15.2961001 C94.1101842,12.3663399 89.1961142,10.0008204 85.0532994,8.28285246 C72.3067597,7.93193762 57.3196667,8.39267113 57.3196667,8.39267113 L60.3605078,12.1580631 L68.9503477,22.79154 L103.996389,22.4418875 L106.499498,22.4166418 C104.420517,20.263186 101.548821,17.5644237 98.302228,15.2961001" id="Fill-64" fill="#222222"></path>
                            <path d="M88.3334696,8.39317605 C87.2655777,8.34899612 86.1673909,8.31365218 85.0527945,8.28209509 C89.1968715,10.0013253 94.1096793,12.3655825 98.3017231,15.296605 C101.548316,17.5649286 104.420012,20.2636909 106.500255,22.4171467 L112.701854,22.3552948 C112.701854,22.3552948 101.625316,8.93974484 88.3334696,8.39317605" id="Fill-65" fill="#FFFFFF"></path>
                            <polygon id="Fill-66" fill="#FFFFFF" points="117.686486 45.506207 132.085355 45.506207 132.085355 41.9288953 117.686486 41.9288953"></polygon>
                        </g>
                    </g>
                </g>
            </g>
        </g>
    </g>
</svg>