<?xml version="1.0" encoding="UTF-8"?>
<svg width="116px" height="113px" viewBox="0 0 116 113" version="1.1" xmlns="http://www.w3.org/2000/svg" xmlns:xlink="http://www.w3.org/1999/xlink">
    <!-- Generator: Sketch 39 (31667) - http://www.bohemiancoding.com/sketch -->
    <title>DriverBlock/Bonus</title>
    <desc>Created with Sketch.</desc>
    <defs>
        <path d="M0,18.2164805 C5.96558232,22.3945896 12.7128333,25.5021384 19.9733333,27.2662625 L19.9733333,0 L3.54797673e-15,0 L3.54797673e-15,18.2164805 L0,18.2164805 Z" id="path-1"></path>
    </defs>
    <g id="Page-1" stroke="none" stroke-width="1" fill="none" fill-rule="evenodd">
        <g id="Главная" transform="translate(-1112.000000, -814.000000)">
            <g id="DriverBlock/Bonus" transform="translate(1112.000000, 814.000000)">
                <circle id="Oval-6-Copy-3" fill="#DBDBDB" cx="56" cy="56" r="56"></circle>
                <g id="Group-47" transform="translate(12.000000, 15.000000)">
                    <g id="Group-9" transform="translate(0.000000, 32.184204)">
                        <polygon id="Fill-5" fill="#DF9740" points="26.5520397 4.29117935 26.7498873 4.29117935 26.7498873 0.822230562 26.5520397 0.822230562"></polygon>
                        <polygon id="Fill-7" fill="#FFBD5E" points="0.0546666667 6.40584729 21.0266667 6.40584729 21.0266667 0.822230562 0.0546666667 0.822230562"></polygon>
                        <polygon id="Fill-8" fill="#DF9740" points="26.1775397 6.40584729 26.5732349 6.40584729 26.5732349 0.822230562 26.1775397 0.822230562"></polygon>
                    </g>
                    <g id="Group-12" transform="translate(7.045333, 70.568947)">
                        <mask id="mask-2" fill="white">
                            <use xlink:href="#path-1"></use>
                        </mask>
                        <g id="Clip-11"></g>
                        <polygon id="Fill-10" fill="#3E3E3E" mask="url(#mask-2)" points="0 32.9940988 19.9733333 32.9940988 19.9733333 0 0 0"></polygon>
                    </g>
                    <polygon id="Fill-13" fill="#F8F6F3" points="0.0546666667 40.1128558 8.04375033 40.1128558 8.04375033 10.1648737 0.0546666667 10.1648737"></polygon>
                    <path d="M8.04375033,10.1648737 C8.04375033,12.4074572 6.255388,14.2256859 4.04933333,14.2256859 C1.843029,14.2256859 0.0546666667,12.4074572 0.0546666667,10.1648737 C0.0546666667,7.92229021 1.843029,6.10406157 4.04933333,6.10406157 C6.255388,6.10406157 8.04375033,7.92229021 8.04375033,10.1648737" id="Fill-15" fill="#F8F6F3"></path>
                    <polygon id="Fill-16" fill="#F1F1F1" points="14.2856667 37.5748482 31.7623333 37.5748482 31.7623333 30.4689345 14.2856667 30.4689345"></polygon>
                    <path d="M31.7623333,37.5748482 C29.8321603,37.5748482 28.267,35.9840251 28.267,34.0216376 C28.267,32.0597577 29.8321603,30.4689345 31.7623333,30.4689345 C33.6925063,30.4689345 35.2576667,32.0597577 35.2576667,34.0216376 C35.2576667,35.9840251 33.6925063,37.5748482 31.7623333,37.5748482" id="Fill-17" fill="#F1F1F1"></path>
                    <polygon id="Fill-18" fill="#F1F1F1" points="10.7903333 44.6812695 28.267 44.6812695 28.267 37.5748482 10.7903333 37.5748482"></polygon>
                    <path d="M28.267,44.6812695 C26.336827,44.6812695 24.7716667,43.0904464 24.7716667,41.1280589 C24.7716667,39.166179 26.336827,37.5748482 28.267,37.5748482 C30.197173,37.5748482 31.7623333,39.166179 31.7623333,41.1280589 C31.7623333,43.0904464 30.197173,44.6812695 28.267,44.6812695" id="Fill-19" fill="#F1F1F1"></path>
                    <path d="M7.54466667,34.5292391 C5.3476,34.5292391 3.55,32.7018736 3.55,30.4684269 L3.55,4.07365549 C3.55,1.8402088 5.3476,0.0128433231 7.54466667,0.0128433231 L50.4873333,0.0128433231 C52.6844,0.0128433231 54.482,1.8402088 54.482,4.07365549 L54.482,30.4684269 C54.482,32.7018736 52.6844,34.5292391 50.4873333,34.5292391 L7.54466667,34.5292391 Z" id="Fill-20" fill="#FBD133"></path>
                    <polygon id="Fill-21" fill="#3E3E3E" points="3.55 18.2864981 54.482 18.2864981 54.482 8.13446765 3.55 8.13446765"></polygon>
                    <polygon id="Fill-22" fill="#FFFFFF" points="7.04533333 24.3777163 50.9866667 24.3777163 50.9866667 22.3473102 7.04533333 22.3473102"></polygon>
                    <polygon id="Fill-23" fill="#3E3E3E" points="7.04533333 28.4385285 23.024 28.4385285 23.024 26.4081224 7.04533333 26.4081224"></polygon>
                    <polygon id="Fill-24" fill="#3E3E3E" points="39.0026667 28.4385285 50.9866667 28.4385285 50.9866667 26.4081224 39.0026667 26.4081224"></polygon>
                    <polygon id="Fill-25" fill="#F8F6F3" points="13.0373333 43.6660665 21.026417 43.6660665 21.026417 23.3625133 13.0373333 23.3625133"></polygon>
                    <path d="M21.026417,23.3625133 C21.026417,25.6050968 19.2380547,27.4233254 17.032,27.4233254 C14.8256957,27.4233254 13.0373333,25.6050968 13.0373333,23.3625133 C13.0373333,21.1194221 14.8256957,19.3017011 17.032,19.3017011 C19.2380547,19.3017011 21.026417,21.1194221 21.026417,23.3625133" id="Fill-26" fill="#F8F6F3"></path>
                    <polygon id="Fill-27" fill="#F8F6F3" points="9.04266667 63.9701273 25.0213333 63.9701273 25.0213333 55.848503 9.04266667 55.848503"></polygon>
                    <polygon id="Fill-28" fill="#DEDEDF" points="7.04533333 72.0917516 27.0186667 72.0917516 27.0186667 63.9701273 7.04533333 63.9701273"></polygon>
                    <polygon id="Fill-29" fill="#C3C5C8" points="16.5326667 72.0917516 17.5328962 72.0917516 17.5328962 63.9701273 16.5326667 63.9701273"></polygon>
                    <path d="M23.024,68.0309395 C23.024,68.5915853 22.576847,69.0461425 22.0253333,69.0461425 C21.4738197,69.0461425 21.0266667,68.5915853 21.0266667,68.0309395 C21.0266667,67.4702936 21.4738197,67.0157364 22.0253333,67.0157364 C22.576847,67.0157364 23.024,67.4702936 23.024,68.0309395" id="Fill-30" fill="#3E3E3E"></path>
                    <path d="M21.026417,38.5900513 C18.7377227,37.1167379 15.8895253,36.9238493 13.0373333,37.3657164 L13.0373333,55.848503 L25.0213333,55.848503 C25.0213333,55.848503 28.5161673,43.4122657 21.026417,38.5900513" id="Fill-31" fill="#F8F6F3"></path>
                    <path d="M13.2242088,36.5398234 C13.0706638,35.4340134 12.0462815,34.5292137 10.9477482,34.5292137 L2.05212483,34.5292137 C0.9535915,34.5292137 0.0547915,35.4428965 0.0547915,36.5596198 L0.0547915,40.620432 C0.0547915,41.7374091 0.5663585,43.4020883 1.19152383,44.3200857 L7.9058095,54.17923 C8.53097483,55.0972273 9.0427915,56.7621603 9.0427915,57.8788837 L9.0427915,61.9396958 C9.0427915,63.056673 9.9415915,63.9701019 11.0401248,63.9701019 L15.0347915,63.9701019 C16.1330752,63.9701019 16.9065425,63.065556 16.7529975,61.9594923 L13.2242088,36.5398234 Z" id="Fill-32" fill="#F8F6F3"></path>
                </g>
                <g id="Group-46" transform="translate(62.000000, 56.000000)">
                    <polygon id="Fill-33" fill="#EBBD0E" points="0.322916667 27.1883214 53.8229167 27.1883214 53.8229167 0.512701916 0.322916667 0.512701916"></polygon>
                    <polygon id="Fill-34" fill="#FDEDAD" points="2.55208333 24.9653531 51.59375 24.9653531 51.59375 2.73567021 2.55208333 2.73567021"></polygon>
                    <path d="M19.2708333,13.8505117 C19.2708333,9.55323609 22.7633802,6.07012265 27.0729167,6.07012265 C31.3821745,6.07012265 34.875,9.55323609 34.875,13.8505117 C34.875,18.1477873 31.3821745,21.6309007 27.0729167,21.6309007 C22.7633802,21.6309007 19.2708333,18.1477873 19.2708333,13.8505117" id="Fill-35" fill="#EBBD0E"></path>
                    <path d="M4.78125,24.9653531 C4.78125,26.1929874 3.78341927,27.1883214 2.55208333,27.1883214 C1.32102604,27.1883214 0.322916667,26.1929874 0.322916667,24.9653531 C0.322916667,23.7377189 1.32102604,22.7423848 2.55208333,22.7423848 C3.78341927,22.7423848 4.78125,23.7377189 4.78125,24.9653531" id="Fill-36" fill="#FBD133"></path>
                    <path d="M4.78125,2.73567021 C4.78125,3.96330445 3.78341927,4.9586385 2.55208333,4.9586385 C1.32102604,4.9586385 0.322916667,3.96330445 0.322916667,2.73567021 C0.322916667,1.50803597 1.32102604,0.512701916 2.55208333,0.512701916 C3.78341927,0.512701916 4.78125,1.50803597 4.78125,2.73567021" id="Fill-37" fill="#FBD133"></path>
                    <path d="M53.8229167,2.73567021 C53.8229167,3.96330445 52.8250859,4.9586385 51.59375,4.9586385 C50.3626927,4.9586385 49.3645833,3.96330445 49.3645833,2.73567021 C49.3645833,1.50803597 50.3626927,0.512701916 51.59375,0.512701916 C52.8250859,0.512701916 53.8229167,1.50803597 53.8229167,2.73567021" id="Fill-38" fill="#FBD133"></path>
                    <path d="M53.8229167,24.9653531 C53.8229167,26.1929874 52.8250859,27.1883214 51.59375,27.1883214 C50.3626927,27.1883214 49.3645833,26.1929874 49.3645833,24.9653531 C49.3645833,23.7377189 50.3626927,22.7423848 51.59375,22.7423848 C52.8250859,22.7423848 53.8229167,23.7377189 53.8229167,24.9653531" id="Fill-39" fill="#EBBD0E"></path>
                    <polygon id="Fill-40" fill="#EBBD0E" points="9.23958333 14.9619958 15.9270833 14.9619958 15.9270833 12.7390275 9.23958333 12.7390275"></polygon>
                    <polygon id="Fill-41" fill="#EBBD0E" points="38.21875 14.9619958 44.90625 14.9619958 44.90625 12.7390275 38.21875 12.7390275"></polygon>
                    <polygon id="Fill-42" fill="#FDEDAD" points="0.322916667 29.4112897 53.8229167 29.4112897 53.8229167 27.1883214 0.322916667 27.1883214"></polygon>
                    <polygon id="Fill-43" fill="#EBBD0E" points="0.322916667 31.634258 53.8229167 31.634258 53.8229167 29.4112897 0.322916667 29.4112897"></polygon>
                    <polygon id="Fill-44" fill="#FDEDAD" points="0.322916667 33.8572263 53.8229167 33.8572263 53.8229167 31.634258 0.322916667 31.634258"></polygon>
                    <polygon id="Fill-45" fill="#EBBD0E" points="0.322916667 36.0801946 53.8229167 36.0801946 53.8229167 33.8572263 0.322916667 33.8572263"></polygon>
                    <polygon id="Fill-46" fill="#FDEDAD" points="0.322916667 38.3031629 53.8229167 38.3031629 53.8229167 36.0801946 0.322916667 36.0801946"></polygon>
                    <polygon id="Fill-47" fill="#EBBD0E" points="0.322916667 40.5261312 53.8229167 40.5261312 53.8229167 38.3031629 0.322916667 38.3031629"></polygon>
                    <polygon id="Fill-48" fill="#FDEDAD" points="0.322916667 42.7490995 53.8229167 42.7490995 53.8229167 40.5261312 0.322916667 40.5261312"></polygon>
                    <polygon id="Fill-49" fill="#FBD133" points="0.322916667 44.9720678 53.8229167 44.9720678 53.8229167 42.7490995 0.322916667 42.7490995"></polygon>
                    <polygon id="Fill-50" fill="#EBBD0E" points="18.15625 45.0415355 0.322916667 45.0415355 0.322916667 27.2577892"></polygon>
                </g>
            </g>
        </g>
    </g>
</svg>