<?xml version="1.0" encoding="UTF-8"?>
<svg width="120px" height="115px" viewBox="0 0 120 115" version="1.1" xmlns="http://www.w3.org/2000/svg" xmlns:xlink="http://www.w3.org/1999/xlink">
    <!-- Generator: Sketch 39 (31667) - http://www.bohemiancoding.com/sketch -->
    <title>DriverBlock/Comfort</title>
    <desc>Created with Sketch.</desc>
    <defs></defs>
    <g id="Page-1" stroke="none" stroke-width="1" fill="none" fill-rule="evenodd">
        <g id="Главная" transform="translate(-210.000000, -814.000000)">
            <g id="DriverBlock/Comfort" transform="translate(210.000000, 814.000000)">
                <circle id="Oval-6" fill="#DBDBDB" cx="60" cy="56" r="56"></circle>
                <g id="Group-52" transform="translate(0.000000, 14.000000)">
                    <g id="Group-40">
                        <g id="Group-22" transform="translate(11.000000, 35.000000)">
                            <path d="M39.8682598,4.59491009 C39.8682598,4.59491009 40.3844821,3.10219644 40.6654518,2.16995807 C40.9464215,1.23677615 41.6369402,0.864069512 43.0570276,0.864069512 L48.6364188,0.864069512 C49.9669769,0.864069512 50.5127248,1.42265768 50.8003615,2.23883803 C51.2775338,3.59473533 51.5280254,4.59491009 51.5280254,4.59491009 L39.8682598,4.59491009 Z" id="Fill-111" fill="#000000"></path>
                            <path d="M103.332834,39.0444202 C103.332834,43.0460628 100.170735,46.2890823 96.2695421,46.2890823 C92.3683495,46.2890823 89.2062501,43.0460628 89.2062501,39.0444202 C89.2062501,35.0437211 92.3683495,31.799758 96.2695421,31.799758 C100.170735,31.799758 103.332834,35.0437211 103.332834,39.0444202" id="Fill-112" fill="#000000"></path>
                            <path d="M52.7611489,39.0444202 C52.7611489,43.0460628 49.5990495,46.2890823 45.6978569,46.2890823 C41.7966643,46.2890823 38.6345648,43.0460628 38.6345648,39.0444202 C38.6345648,35.0437211 41.7966643,31.799758 45.6978569,31.799758 C49.5990495,31.799758 52.7611489,35.0437211 52.7611489,39.0444202" id="Fill-113" fill="#000000"></path>
                            <polygon id="Fill-114" fill="#FDA800" points="8.16430775 13.6734776 6.07465527 9.73694066 16.636258 6.80246564"></polygon>
                            <path d="M105.12104,23.364888 C100.211213,17.968662 90.1820245,17.0788839 87.2570825,15.3106504 C84.3321405,13.5433605 75.8573329,3.8699721 60.09541,3.8699721 C55.0808156,3.8699721 42.3352689,4.13794345 32.7242009,4.13794345 C25.9133054,4.13794345 20.6825071,5.26549897 16.6355913,6.80256 C13.9582835,7.81971886 11.799103,9.01521077 10.0447092,10.1814523 C14.3392594,8.68402083 19.8653139,7.45927852 26.0609335,7.60836117 C38.9636327,7.91784921 46.9926985,15.0087109 46.9926985,15.0087109 L52.4568445,21.2220607 C52.4568445,21.2220607 61.8088489,21.5494764 69.171207,25.3907136 C74.0715087,27.9477642 75.3220619,35.3858563 75.6420816,39.0223408 C92.9679103,38.9968647 106.536365,38.793999 107.406895,38.237298 C109.914668,36.6332441 107.918355,26.4399536 105.12104,23.364888" id="Fill-115" fill="#FDEDAD"></path>
                            <path d="M69.1713974,25.3911854 C61.8090394,21.5490046 52.4560825,21.2225325 52.4560825,21.2225325 L46.992889,15.0091826 C46.992889,15.0091826 38.9628708,7.918321 26.061124,7.60788939 C19.864552,7.45880674 14.3384974,8.68354905 10.0448997,10.1819241 C8.81339533,11.0009351 7.78095081,11.8048492 6.9075637,12.5219556 C3.78641914,15.0893853 3.77403743,17.2067364 3.35591644,21.5537224 C3.23686149,22.7897875 2.54158059,25.963927 1.05196506,29.199398 C0.500502533,30.3986642 1.18435416,33.2048149 1.78915331,34.5692042 C2.64634894,36.504448 4.98935035,38.5746211 6.90946858,38.5746211 C21.5408457,38.5746211 51.5855527,39.0577244 75.6422721,39.021869 C75.3222524,35.3863281 74.0707467,27.948236 69.1713974,25.3911854" id="Fill-116" fill="#EBBD0E"></path>
                            <path d="M0.849000182,32.2062442 C0.849000182,32.2062442 0.849000182,34.9142645 2.41576332,36.75987 C3.98252645,38.6054755 4.29587908,39.4159945 7.27320526,39.4159945 L104.900169,39.4159945 C106.937437,39.4159945 108.428957,37.6685194 108.483247,35.8106476 L4.76638424,35.8106476 C4.76638424,35.8106476 2.25956322,34.1896096 0.849000182,32.2062442" id="Fill-117" fill="#000000"></path>
                            <path d="M49.5311405,15.0090883 L38.666662,15.0090883 C34.4873571,15.0090883 32.8158256,21.4479492 37.8304201,21.5404182 C42.8450146,21.6328872 55.1191036,21.4460621 55.1191036,21.4460621 L49.5311405,15.0090883 Z" id="Fill-118" fill="#F8DBA0"></path>
                            <polygon id="Fill-119" fill="#FDA800" points="26.061124 7.60817246 17.1424796 6.61648975 9.25913706 8.85272955 9.25913706 12.2976711"></polygon>
                            <polygon id="Fill-120" fill="#000000" points="3.82061172 17.5737817 7.48845661 14.2807535 8.46756451 16.5509615 3.3558212 21.5537224"></polygon>
                            <path d="M23.3858164,39.1558547 C23.3858164,43.1565538 20.2237169,46.4005168 16.3225244,46.4005168 C12.4213318,46.4005168 9.25923231,43.1565538 9.25923231,39.1558547 C9.25923231,35.1551557 12.4213318,31.9111926 16.3225244,31.9111926 C20.2237169,31.9111926 23.3858164,35.1551557 23.3858164,39.1558547" id="Fill-121" fill="#000000"></path>
                            <path d="M21.081484,39.1558547 C21.081484,41.7600833 18.9508767,43.8708295 16.3230958,43.8708295 C13.6943625,43.8708295 11.5637552,41.7600833 11.5637552,39.1558547 C11.5637552,36.5525696 13.6943625,34.4418235 16.3230958,34.4418235 C18.9508767,34.4418235 21.081484,36.5525696 21.081484,39.1558547" id="Fill-122" fill="#FFC50F"></path>
                            <path d="M17.5763158,39.1558547 C17.5763158,39.8418236 17.0153289,40.3975811 16.3229053,40.3975811 C15.6304817,40.3975811 15.0694948,39.8418236 15.0694948,39.1558547 C15.0694948,38.4698858 15.6304817,37.9141283 16.3229053,37.9141283 C17.0153289,37.9141283 17.5763158,38.4698858 17.5763158,39.1558547" id="Fill-123" fill="#000000"></path>
                            <path d="M70.735208,39.1068839 C70.735208,43.1085265 67.5731086,46.351546 63.671916,46.351546 C59.7707234,46.351546 56.6086239,43.1085265 56.6086239,39.1068839 C56.6086239,35.1061848 59.7707234,31.8622218 63.671916,31.8622218 C67.5731086,31.8622218 70.735208,35.1061848 70.735208,39.1068839" id="Fill-124" fill="#000000"></path>
                            <path d="M68.4308757,39.1068839 C68.4308757,41.7111125 66.3002683,43.8218587 63.6724874,43.8218587 C61.0437541,43.8218587 58.9131468,41.7111125 58.9131468,39.1068839 C58.9131468,36.5035988 61.0437541,34.3928526 63.6724874,34.3928526 C66.3002683,34.3928526 68.4308757,36.5035988 68.4308757,39.1068839" id="Fill-125" fill="#EBBD0E"></path>
                            <path d="M64.9257075,39.1068839 C64.9257075,39.7928528 64.3647205,40.3486103 63.6722969,40.3486103 C62.9798734,40.3486103 62.4188864,39.7928528 62.4188864,39.1068839 C62.4188864,38.420915 62.9798734,37.8651575 63.6722969,37.8651575 C64.3647205,37.8651575 64.9257075,38.420915 64.9257075,39.1068839" id="Fill-126" fill="#000000"></path>
                            <path d="M103.7821,28.7605477 L107.674721,28.7605477 C107.674721,28.7605477 107.117543,23.8832804 105.12123,23.3652654 C103.904965,24.3918599 103.7821,28.7605477 103.7821,28.7605477" id="Fill-127" fill="#FFFFFF"></path>
                            <path d="M101.299757,30.6107767 L88.0303682,30.6107767 C87.4008056,30.6107767 87.1255505,30.6107767 86.8226748,31.7128561 C86.5674209,32.6413202 85.8911888,35.4503016 85.8911888,35.4503016 C85.8292803,36.1541982 86.3883623,36.7599644 87.0988822,36.7599644 L102.445541,36.7599644 C103.259877,36.7599644 103.84277,35.9768087 103.605613,35.202145 L102.458876,31.4646995 C102.303628,30.9570636 101.833123,30.6107767 101.299757,30.6107767" id="Fill-128" fill="#000000"></path>
                            <path d="M85.2596261,24.7115384 C85.2596261,24.7115384 85.8606155,25.9532648 86.4873208,26.8071876 C87.114026,27.6611103 87.6626312,28.5122025 89.7779996,28.5140896 C91.8933679,28.5150331 97.4565676,28.5895745 98.9452307,28.5140896 C100.433894,28.4376611 101.20537,27.9243639 101.452052,26.6297981 C101.627301,25.7088824 101.844457,24.7115384 101.844457,24.7115384 L85.2596261,24.7115384 Z" id="Fill-129" fill="#000000"></path>
                            <path d="M64.2418558,23.364888 C64.2418558,23.364888 65.4076419,28.0694836 69.7983884,28.5478691 C74.1881825,29.0262545 79.9837775,28.5478691 79.9837775,28.5478691 C79.9837775,28.5478691 79.534226,25.0293297 75.4396882,24.0904864 C71.3451503,23.1516431 64.2418558,23.364888 64.2418558,23.364888" id="Fill-130" fill="#FFFFFF"></path>
                            <path d="M44.5167365,12.0502694 C43.8928886,11.3539213 43.3033285,10.7207918 42.6851952,10.1555987 C39.5792897,7.31547981 35.7533398,6.2435944 23.2049481,7.96842409 C16.8036016,8.84876659 12.256655,13.36465 12.256655,13.36465 L13.1671872,15.009277 L14.9815846,18.2872083 L49.531331,18.7665373 C49.531331,18.7665373 48.2779205,16.2510034 44.5167365,12.0502694" id="Fill-131" fill="#000000"></path>
                            <path d="M75.0216624,12.2974824 C71.8586105,10.1074771 68.1507632,8.3392436 65.0248564,7.05505695 C55.4071214,6.79274696 44.098806,7.13714676 44.098806,7.13714676 L46.393233,9.95178952 L52.8745845,17.9003482 L79.3181174,17.6389818 L81.2068052,17.6201106 C79.6381371,16.0103953 77.4713371,13.9930617 75.0216624,12.2974824" id="Fill-151" fill="#000000"></path>
                            <path d="M67.499866,7.13752419 C66.6941021,7.10449955 65.8654796,7.07807984 65.0244754,7.05449081 C68.1513346,8.33962103 71.8582295,10.106911 75.0212814,12.2978598 C77.4709561,13.9934391 79.6377562,16.0107728 81.2064242,17.620488 L85.8867124,17.5742535 C85.8867124,17.5742535 77.5290549,7.54608614 67.499866,7.13752419" id="Fill-152" fill="#FFFFFF"></path>
                            <polygon id="Fill-153" fill="#FFFFFF" points="89.6477058 34.8802963 100.512184 34.8802963 100.512184 32.2062442 89.6477058 32.2062442"></polygon>
                        </g>
                        <path d="M33.9059534,1.08577495 C34.9446164,1.04932059 35.9896908,1.19299363 36.9578273,1.58541401 C39.0949938,2.39169851 40.8816651,4.43528662 40.9094482,6.79838641 C40.9201341,13.2122081 40.9073111,19.6260297 40.9137226,26.0398514 C40.9286827,28.1456263 40.9179969,30.2514013 40.9222712,32.3593206 C40.9222712,33.0283652 40.9222712,33.6974098 40.9179969,34.3685987 C40.9073111,39.8281741 40.9051739,45.2898938 40.9158597,50.7516136 L40.9179969,50.9531847 C40.9244084,52.1390234 40.9201341,53.3270064 40.9222712,54.512845 C40.9201341,55.4499363 40.9158597,56.3870276 40.9415057,57.3262633 C40.9094482,58.50138 40.9115854,59.5735669 40.9500544,60.6457537 C40.8923509,60.8644798 40.8282359,61.0810616 40.7641209,61.2997877 C40.2063205,63.1482378 38.6974809,64.5163482 36.9856105,65.2990446 C36.8956715,65.1493245 35.7127633,65.4652267 35.6797121,65.2990456 C35.6436502,65.1177266 35.6719062,64.2596804 35.6797121,64.0739441 C35.7117696,60.9260035 36.7654823,57.9695754 36.7911283,54.8216348 C36.7718938,54.0496603 36.8830265,53.1961996 36.4363586,52.5142887 C36.1243323,51.9953503 35.5472974,51.7423142 35.0130057,51.5192994 C34.8655412,48.1161783 35.0407889,44.7087686 34.9574394,41.3035032 C34.9830854,30.0283864 34.9510279,18.7511253 34.9595766,7.47600849 C30.2920048,7.47386412 25.6222959,7.47600849 20.9547241,7.47386412 C20.9846445,5.34878981 20.9696843,3.2237155 20.96541,1.09649682 C25.2782121,1.07934183 29.5931513,1.10292994 33.9059534,1.08577495 Z" id="Shape-Copy" fill="#DDA22B"></path>
                        <rect id="Rectangle-13" fill="#4A4A4A" x="5.71428571" y="4.59090909" width="30.8571429" height="59.6818182"></rect>
                        <path d="M32.9059534,0.0857749469 C33.9446164,0.0493205945 34.9896908,0.192993631 35.9578273,0.585414013 C38.0949938,1.39169851 39.8816651,3.43528662 39.9094482,5.79838641 C39.9201341,12.2122081 39.9073111,18.6260297 39.9137226,25.0398514 C39.9286827,27.1456263 39.9179969,29.2514013 39.9222712,31.3593206 C39.9222712,32.0283652 39.9222712,32.6974098 39.9179969,33.3685987 C39.9073111,38.8281741 39.9051739,44.2898938 39.9158597,49.7516136 L39.9179969,49.9531847 C39.9244084,51.1390234 39.9201341,52.3270064 39.9222712,53.512845 C39.9201341,54.4499363 39.9158597,55.3870276 39.9415057,56.3262633 C39.9094482,57.50138 39.9115854,58.5735669 39.9500544,59.6457537 C39.8923509,59.8644798 39.8282359,60.0810616 39.7641209,60.2997877 C39.2063205,62.1482378 37.6974809,63.5163482 35.9856105,64.2990446 C35.7975398,63.985966 35.7547965,63.6235669 35.7697566,63.2676008 C35.8018141,60.1196603 35.7654823,56.9695754 35.7911283,53.8216348 C35.7718938,53.0496603 35.8830265,52.1961996 35.4363586,51.5142887 C35.1243323,50.9953503 34.5472974,50.7423142 34.0130057,50.5192994 C33.8655412,47.1161783 34.0407889,43.7087686 33.9574394,40.3035032 C33.9830854,29.0283864 33.9510279,17.7511253 33.9595766,6.47600849 C29.2920048,6.47386412 24.6222959,6.47600849 19.9547241,6.47386412 C19.9846445,4.34878981 19.9696843,2.2237155 19.96541,0.0964968153 C24.2782121,0.0793418259 28.5931513,0.102929936 32.9059534,0.0857749469 Z" id="Shape" fill="#FBD133"></path>
                        <path d="M30.8136674,54.8573673 C30.9312115,54.8595117 31.1641627,54.8659448 31.2817069,54.8680892 C31.245375,56.7315499 31.335136,58.597155 31.2240034,60.4584713 C31.142791,60.3834183 30.9782292,60.2290234 30.8948797,60.1539703 C30.7367294,58.3998726 30.8927426,56.6200425 30.8136674,54.8573673 L30.8136674,54.8573673 Z" id="Shape" fill="#ACEAEA"></path>
                        <path d="M0.0470176642,6.00853503 C-0.0662521632,2.56895966 3.40450632,-0.00428874735 6.63162782,0.0943524416 C11.0747971,0.10507431 15.5201035,0.098641189 19.96541,0.0964968153 C19.9696843,2.2237155 19.9846445,4.34878981 19.9547241,6.47386412 C15.2892895,6.47171975 10.6259921,6.46528662 5.96269469,6.47600849 C5.90926552,22.2628875 5.96910619,38.0476221 5.93063719,53.8345011 C5.89857969,54.2869639 6.02253535,54.7244161 6.28540684,55.0953928 C6.15076535,58.3055202 6.12725651,61.5285138 6.454243,64.7279193 C3.40664349,64.7214862 0.19875649,62.4184289 0.0555663304,59.2018684 C0.0406061645,41.4700425 0.057703497,23.7403609 0.0470176642,6.00853503 L0.0470176642,6.00853503 Z" id="Shape" fill="#FBD133"></path>
                        <path d="M11.1581466,81.8878981 C11.9553097,81.8857537 12.7524728,81.8857537 13.5474988,81.8857537 C16.8814786,81.8836093 20.2133213,81.8857537 23.5451639,81.8857537 C23.5943188,83.0415711 23.5943188,84.2016773 23.4874604,85.3553503 C19.3798263,85.3982378 15.2636435,85.4239703 11.1560094,85.3446285 C11.1602837,84.1909554 11.1602837,83.0394268 11.1581466,81.8878981 L11.1581466,81.8878981 Z" id="Shape" fill="#DEDEDF"></path>
                        <path d="M13.9685206,21.4930573 C15.6461963,20.1592569 17.7833629,19.3980042 19.9290781,19.419448 C20.4313123,19.4280255 20.9335464,19.4644798 21.4336434,19.528811 C20.9677411,19.5674098 20.5061131,19.6360297 20.042348,19.6960722 C20.0081533,21.9862633 20.0102905,24.2764544 20.042348,26.5645011 C19.606366,26.5645011 19.170384,26.5645011 18.734402,26.5623567 C18.7365392,27.4115287 18.734402,28.2607006 18.7194419,29.1098726 C19.1554238,29.0970064 19.5914058,29.0862845 20.0273878,29.077707 C19.9611356,31.843949 20.1534806,34.6187686 19.914118,37.3764331 C19.7965738,36.4350531 19.4076095,35.4915287 18.6425039,34.8996815 C17.7855001,34.1684501 16.4027533,34.1555839 15.5500239,34.8996815 C14.8875022,35.4121868 14.5006751,36.1927389 14.2955071,36.9925902 C11.9189779,35.2277707 10.328926,32.3650318 10.3332003,29.3736306 C10.1900101,26.3629299 11.5984029,23.3372187 13.9685206,21.4930573 L13.9685206,21.4930573 Z M13.6372598,26.5687898 L13.6308483,26.811104 C13.626574,27.447983 13.626574,28.084862 13.6308483,28.7195966 L13.6244368,29.0691295 C14.3382504,29.0755626 15.0563384,29.1034395 15.7658777,29.0026539 L15.8770103,29.0369639 L16.1206473,29.1913588 C16.1377447,28.3164544 16.1227845,27.4415499 16.1356075,26.5666454 C15.3021125,26.5709342 14.4686176,26.5687898 13.6372598,26.5687898 L13.6372598,26.5687898 Z M16.1868995,29.112017 C16.193311,29.9461783 16.193311,30.7824841 16.1868995,31.6166454 C17.0182573,31.6080679 17.8517522,31.6080679 18.6852472,31.6209342 C18.6724242,30.7846285 18.6724242,29.9504671 18.6809729,29.1141614 C17.8496151,29.1055839 17.0182573,29.1055839 16.1868995,29.112017 L16.1868995,29.112017 Z" id="Shape" fill="#FBD133"></path>
                        <path d="M21.4336434,19.528811 C22.993775,19.7453928 24.4855172,20.3929936 25.752857,21.3257962 C28.1935012,23.1163482 29.6766948,26.1313376 29.6296771,29.1613376 C29.6489116,31.9318684 28.383709,34.6659448 26.2828743,36.4607856 C24.5368092,38.0261783 22.2094348,38.7616985 19.8991578,38.8624841 C19.8863348,38.3671338 19.8927463,37.8717834 19.914118,37.3764331 C20.1534806,34.6187686 19.9611356,31.843949 20.0273878,29.077707 C20.4334494,29.0734183 20.8395111,29.0755626 21.2477099,29.077707 C21.2306126,28.2392569 21.2306126,27.4008068 21.2327497,26.5645011 L20.042348,26.5645011 C20.0102905,24.2764544 20.0081533,21.9862633 20.042348,19.6960722 C20.5061131,19.6360297 20.9677411,19.5674098 21.4336434,19.528811 L21.4336434,19.528811 Z M23.7396461,26.6309766 C23.7930753,27.3686412 23.8208584,28.1148832 23.6904913,28.848259 C23.8058983,28.9597665 23.9213052,29.0734183 24.0367122,29.1870701 C24.7847205,29.0476858 25.547689,29.0905732 26.304246,29.1034395 C26.3127946,28.3378981 26.3149318,27.5723567 26.3085203,26.8089597 L26.3127946,26.5645011 C25.4728882,26.5645011 24.6265702,26.5151805 23.7909381,26.6395541 L23.7396461,26.6309766 L23.7396461,26.6309766 Z M21.2562586,29.1163057 C21.2605329,29.9547558 21.2605329,30.7932059 21.2498471,31.6316561 C22.0940278,31.6209342 22.9360715,31.6209342 23.7802523,31.6273673 C23.7652921,30.8939915 23.7567434,30.1606157 23.8229956,29.4293843 C23.7075886,29.3007219 23.5857701,29.1742038 23.4596773,29.0562633 C22.7266291,29.1098726 21.9893067,29.1077282 21.2562586,29.1163057 L21.2562586,29.1163057 Z" id="Shape" fill="#FBD133"></path>
                        <path d="M23.5045578,85.5783652 C23.6712568,90.0172187 23.5259294,94.4646497 23.5772214,98.9077919 C19.3434945,98.93138 15.1076304,98.8520382 10.8760406,98.9463907 C11.1389121,98.0564756 11.0149564,97.1215287 11.0277794,96.2101699 C11.0384653,92.659087 11.0149564,89.1101486 11.0406024,85.5612102 C15.1952542,85.5569214 19.349906,85.5226115 23.5045578,85.5783652 Z" id="Shape" fill="#222222"></path>
                        <path d="M23.4874604,85.3553503 C27.6442494,85.2652866 31.8053127,85.3532059 35.9621016,85.3124628 C36.0347653,85.3103185 36.1800926,85.3103185 36.2527563,85.3081741 C36.2484819,89.8456688 36.2399333,94.3831635 36.2570306,98.9206582 C32.0297152,98.8927813 27.8045369,98.9185138 23.5772214,98.9077919 C23.5259294,94.4646497 23.6712568,90.0172187 23.5045578,85.5783652 C23.5002834,85.5226115 23.4917348,85.411104 23.4874604,85.3553503 L23.4874604,85.3553503 Z" id="Shape" fill="#4A4A4A"></path>
                        <g id="#000008ff" transform="translate(13.464149, 26.375796)" fill="#000008">
                            <path d="M0.173110491,0.192993631 C1.00446828,0.192993631 1.83796324,0.195138004 2.67145819,0.190849257 C2.65863519,1.06575372 2.67359536,1.94065817 2.65649803,2.81556263 L2.41286104,2.66116773 C2.35088321,1.91492569 2.35943188,1.16868365 2.35729471,0.42029724 C1.62638375,0.418152866 0.895472787,0.422441614 0.166698991,0.435307856 L0.173110491,0.192993631 L0.173110491,0.192993631 Z" id="Shape"></path>
                        </g>
                        <g id="#311503ff" transform="translate(18.593349, 26.375796)" fill="#311503">
                            <path d="M0.126092827,2.73407643 C0.141052993,1.88490446 0.143190159,1.03573248 0.141052993,0.18656051 C0.57703497,0.188704883 1.01301695,0.188704883 1.44899892,0.188704883 L2.6394007,0.188704883 C2.63726353,1.02501062 2.63726353,1.86346072 2.65436086,2.70191083 C2.24616205,2.69976645 1.8401004,2.69762208 1.43403876,2.70191083 C0.998056781,2.71048832 0.562074804,2.72121019 0.126092827,2.73407643 L0.126092827,2.73407643 Z M1.47464492,0.643312102 C1.39556976,1.14080679 1.40411843,1.65116773 1.47891926,2.15080679 C1.48105642,2.66116773 2.13075506,2.40598726 2.42995837,2.45316348 C2.46842737,1.75195329 2.4662902,1.04859873 2.42140971,0.347388535 C2.12861789,0.409575372 1.48960509,0.160828025 1.47464492,0.643312102 L1.47464492,0.643312102 Z" id="Shape"></path>
                        </g>
                        <path d="M23.7396461,26.6309766 L23.7909381,26.6395541 C24.6180215,26.8132484 25.4664767,26.8196815 26.3085203,26.8089597 C26.3149318,27.5723567 26.3127946,28.3378981 26.304246,29.1034395 C25.547689,29.0905732 24.7847205,29.0476858 24.0367122,29.1870701 C23.9213052,29.0734183 23.8058983,28.9597665 23.6904913,28.848259 C23.8208584,28.1148832 23.7930753,27.3686412 23.7396461,26.6309766 L23.7396461,26.6309766 Z" id="Shape" fill="#562D18"></path>
                        <path d="M21.5725592,29.3607643 C22.224395,29.3457537 22.8740936,29.3500425 23.5259294,29.3736306 C23.5473011,30.0233758 23.5451639,30.6709766 23.5237923,31.3207219 C22.8676821,31.3400212 22.211572,31.3335881 21.557599,31.3057113 C21.531953,30.6581104 21.5383645,30.0083652 21.5725592,29.3607643 L21.5725592,29.3607643 Z" id="Shape" fill="#562D18"></path>
                        <path d="M26.3127946,26.5667601 L26.3085203,26.868453 C25.4664767,26.8816851 24.6180215,26.8737459 23.7909381,26.6593851 C24.6265702,26.5058923 25.4728882,26.5667601 26.3127946,26.5667601 Z" id="Shape" fill="#401216"></path>
                        <path d="M13.6308483,26.811104 C14.3596221,26.7982378 15.090533,26.793949 15.821444,26.7960934 C15.8235812,27.5444798 15.8150325,28.2907219 15.8770103,29.0369639 L15.7658777,29.0026539 C15.0883959,28.721741 14.3510734,28.7153079 13.6308483,28.7195966 C13.626574,28.084862 13.626574,27.447983 13.6308483,26.811104 L13.6308483,26.811104 Z" id="Shape" fill="#311504"></path>
                        <path d="M16.449771,29.3714862 C17.0951953,29.3629087 17.7406196,29.3629087 18.3860439,29.3736306 C18.3967297,30.019087 18.3967297,30.6666879 18.3860439,31.3142887 C17.7406196,31.3250106 17.0951953,31.3250106 16.449771,31.3142887 C16.4390851,30.6666879 16.4390851,30.019087 16.449771,29.3714862 L16.449771,29.3714862 Z" id="Shape" fill="#311504"></path>
                        <path d="M10.8226114,87.3081741 L11.1560094,87.3446285 C15.2636435,87.4239703 19.3798263,87.3982378 23.4874604,87.3553503 C23.4917348,87.411104 23.5002834,87.5226115 23.5045578,87.5783652 C19.349906,87.5226115 15.1952542,87.5569214 11.0406024,87.5612102 C11.0149564,91.1101486 11.0384653,94.659087 11.0277794,98.2101699 C11.0149564,99.1215287 11.1389121,100.056476 10.8760406,100.946391 C10.7563593,96.4046072 10.8610804,91.8542463 10.8226114,87.3081741 L10.8226114,87.3081741 Z" id="Shape" fill="#DDA22B"></path>
                        <g id="#572d18ff" transform="translate(19.875649, 26.590234)" fill="#572D18">
                            <path d="M0.19234499,0.428874735 C0.207305156,-0.0536093418 0.846317956,0.195138004 1.13910977,0.132951168 C1.18399027,0.834161359 1.18612744,1.53751592 1.14765844,2.23872611 C0.848455122,2.19154989 0.19875649,2.44673036 0.196619323,1.93636943 C0.121818494,1.43673036 0.113269827,0.926369427 0.19234499,0.428874735 L0.19234499,0.428874735 Z" id="Shape"></path>
                        </g>
                        <g id="#0e0605ff" transform="translate(13.464149, 28.520170)" fill="#0E0605">
                            <path d="M0.166698991,0.199426752 C0.88692412,0.195138004 1.62424658,0.201571125 2.30172838,0.482484076 C1.59218908,0.583269639 0.874101121,0.555392781 0.160287492,0.54895966 L0.166698991,0.199426752 L0.166698991,0.199426752 Z" id="Shape"></path>
                        </g>
                        <path d="M16.1868995,29.112017 C17.0182573,29.1055839 17.8496151,29.1055839 18.6809729,29.1141614 C18.6724242,29.9504671 18.6724242,30.7846285 18.6852472,31.6209342 C17.8517522,31.6080679 17.0182573,31.6080679 16.1868995,31.6166454 C16.193311,30.7824841 16.193311,29.9461783 16.1868995,29.112017 L16.1868995,29.112017 Z M16.449771,29.3714862 C16.4390851,30.019087 16.4390851,30.6666879 16.449771,31.3142887 C17.0951953,31.3250106 17.7406196,31.3250106 18.3860439,31.3142887 C18.3967297,30.6666879 18.3967297,30.019087 18.3860439,29.3736306 C17.7406196,29.3629087 17.0951953,29.3629087 16.449771,29.3714862 L16.449771,29.3714862 Z" id="Shape" fill="#000009"></path>
                        <g id="#3e1517ff" transform="translate(21.157949, 28.949045)" fill="#3E1517">
                            <path d="M0.0983096615,0.167261146 C0.83135779,0.158683652 1.56868025,0.160828025 2.30172838,0.107218684 C2.42782121,0.225159236 2.5496397,0.351677282 2.66504669,0.480339703 C2.59879453,1.21157113 2.6073432,1.94494692 2.62230336,2.67832272 C1.77812257,2.6718896 0.936078951,2.6718896 0.0918981619,2.68261146 C0.102583995,1.84416136 0.102583995,1.00571125 0.0983096615,0.167261146 L0.0983096615,0.167261146 Z M0.414610312,0.411719745 C0.380415647,1.05932059 0.374004147,1.70906582 0.399650146,2.35666667 C1.05362311,2.38454352 1.70973324,2.39097665 2.36584338,2.37167728 C2.38721504,1.72193206 2.38935221,1.07433121 2.36798054,0.424585987 C1.71614474,0.400997877 1.06644611,0.39670913 0.414610312,0.411719745 L0.414610312,0.411719745 Z" id="Shape"></path>
                        </g>
                        <path d="M18.6425039,32.8996815 C19.4076095,33.4915287 19.7965738,34.4350531 19.914118,35.3764331 C19.8927463,35.8717834 19.8863348,36.3671338 19.8991578,36.8624841 C19.9846445,43.9153291 19.8585516,50.9746072 20.0060161,58.0231635 C20.0530338,58.1153715 20.1492063,58.2997877 20.1983611,58.3919958 C20.3223168,56.6378981 20.1898124,54.8773673 20.2688876,53.1211253 C20.3971176,50.6207856 20.2582018,48.1140127 20.3458256,45.613673 C20.3394141,44.7323355 20.9121747,43.9131847 21.7563555,43.6558599 C22.839899,43.3556476 24.2034112,43.4242675 24.9813399,44.3463482 C25.5818837,45.045414 25.4750253,46.0232484 25.4878483,46.8809979 C25.4301448,50.5135669 25.5583748,54.1439915 25.5199058,57.7765605 C25.5925695,57.7808493 25.7378968,57.7894268 25.8126977,57.7915711 C25.7207995,54.8666454 26.0135913,51.9502972 25.9174188,49.0275159 C25.9387905,48.1418896 25.7464455,47.0868577 26.4517105,46.4049469 C27.0543914,45.7273248 28.0545854,45.8752866 28.8602972,45.9095966 C29.8327079,45.9503397 30.7110834,46.7566242 30.7559639,47.7494692 C30.8948797,49.4478132 30.7687869,51.1547346 30.8136674,52.8573673 C30.8927426,54.6200425 30.7367294,56.3998726 30.8948797,58.1539703 C30.9782292,58.2290234 31.142791,58.3834183 31.2240034,58.4584713 C31.335136,56.597155 31.245375,54.7315499 31.2817069,52.8680892 C31.3308617,51.8023355 31.155614,50.7065605 31.4056625,49.6601062 C31.8117242,48.6243737 33.0363206,48.4270913 34.0130057,48.5192994 C34.5472974,48.7423142 35.1243323,48.9953503 35.4363586,49.5142887 C35.8830265,50.1961996 35.7718938,51.0496603 35.7911283,51.8216348 C35.7654823,54.9695754 35.8018141,58.1196603 35.7697566,61.2676008 C35.7547965,61.6235669 35.7975398,61.985966 35.9856105,62.2990446 C35.9364556,62.3354989 35.8402831,62.4062633 35.7911283,62.4427176 C35.7911283,62.5735244 35.7889911,62.8308493 35.7889911,62.9616561 C35.8103628,64.889448 35.8125,66.8193843 35.7932655,68.7471762 C35.6735841,71.2625265 35.5667167,74.5599052 35.2846198,76.2910828 C35.0025229,78.0222604 34.6220982,78.4547558 34.0642977,79.3575372 C33.5898467,80.1145011 33.4723026,81.0129936 33.3654443,81.8836093 C30.0934423,81.8857537 26.8193031,81.8836093 23.5451639,81.8857537 C20.2133213,81.8857537 16.8814786,81.8836093 13.5474988,81.8857537 C13.3914856,80.5133546 13.4620121,79.1045011 13.0922823,77.7621231 C12.9063488,77.0244586 12.2203184,76.5934395 11.8377655,75.9715711 C10.3631206,73.7392781 9.05517469,71.3997665 7.89469325,68.9916348 C6.81756131,67.087431 6.71497732,64.8508493 6.454243,62.7279193 C6.12725651,59.5285138 6.15076535,56.3055202 6.28540684,53.0953928 C6.43287133,51.5450106 6.46279166,49.9560297 7.02059213,48.4807006 C7.94812242,48.5042887 8.92908187,48.5986412 9.70273616,49.1669002 C10.9337441,49.9731847 11.4488012,51.4656688 11.6432834,52.8616561 C11.7180842,56.1597028 11.5449737,59.5671125 12.677672,62.7236306 C12.9512293,63.3583652 13.447052,64.1346285 14.2570381,63.8730149 C14.2613124,63.4870276 14.2655868,63.1031847 14.2698611,62.7193418 C14.2890956,59.432017 14.2655868,56.1468365 14.2826841,52.8595117 C14.3083301,46.904586 14.2784098,40.9475159 14.2955071,34.9925902 C14.5006751,34.1927389 14.8875022,33.4121868 15.5500239,32.8996815 C16.4027533,32.1555839 17.7855001,32.1684501 18.6425039,32.8996815 Z" id="Shape" fill="#F8F6F3"></path>
                        <path d="M23.5451639,81.8857537 C26.8193031,81.8836093 30.0934423,81.8857537 33.3654443,81.8836093 C34.2203109,81.881465 35.0751775,81.881465 35.9300441,81.8921868 C35.9578273,83.0308493 35.9300441,84.1716561 35.9621016,85.3124628 C31.8053127,85.3532059 27.6442494,85.2652866 23.4874604,85.3553503 C23.5943188,84.2016773 23.5943188,83.0415711 23.5451639,81.8857537 L23.5451639,81.8857537 Z" id="Shape" fill="#DEDEDF"></path>
                    </g>
                </g>
            </g>
        </g>
    </g>
</svg>