<?xml version="1.0" encoding="UTF-8"?>
<svg width="81px" height="32px" viewBox="0 0 81 32" version="1.1" xmlns="http://www.w3.org/2000/svg" xmlns:xlink="http://www.w3.org/1999/xlink">
    <!-- Generator: Sketch 39 (31667) - http://www.bohemiancoding.com/sketch -->
    <title>Group 7</title>
    <desc>Created with Sketch.</desc>
    <defs>
        <circle id="path-1" cx="16" cy="16" r="16"></circle>
    </defs>
    <g id="Page-1" stroke="none" stroke-width="1" fill="none" fill-rule="evenodd">
        <g id="Главная-Copy-4" transform="translate(-560.000000, -2526.000000)">
            <g id="Group-7" transform="translate(560.000000, 2526.000000)">
                <g id="Group-2" transform="translate(44.000000, 9.000000)" fill="#010101">
                    <path d="M4.49707317,0.486585366 C5.82792683,-0.030304878 7.31670732,-0.123780488 8.70304878,0.214268293 C9.98823171,0.534390244 11.2179268,1.19896341 12.0814024,2.21737805 C12.4104878,2.59810976 12.5206098,3.18884146 12.2576829,3.63402439 C12.005,4.07365854 11.4411585,4.29390244 10.9558537,4.15176829 C10.7202439,4.09286585 10.5315854,3.9345122 10.3446341,3.78853659 C10.0940854,3.59518293 9.84823171,3.39371951 9.57463415,3.23323171 C9.13969512,2.94853659 8.66932927,2.70310976 8.15457317,2.60408537 C7.3179878,2.44530488 6.43231707,2.47262195 5.62646341,2.76371951 C4.73993902,3.07914634 3.98573171,3.73219512 3.52859756,4.5529878 C3.04329268,5.40621951 2.87085366,6.40884146 2.92932927,7.38158537 C2.97841463,8.34963415 3.20932927,9.33817073 3.76719512,10.144878 C4.19615854,10.7718902 4.8504878,11.2422561 5.58762195,11.4313415 C6.21378049,11.590122 6.89713415,11.6336585 7.5075,11.3895122 C8.3679878,11.0565854 9.16231707,10.415061 9.4777439,9.52469512 C8.9075,9.51871951 8.3372561,9.53152439 7.76743902,9.51871951 C7.16432927,9.49481707 6.65341463,8.92969512 6.68884146,8.3270122 C6.69609756,7.73670732 7.2202439,7.21469512 7.81140244,7.21213415 C9.1204878,7.20658537 10.4295732,7.21213415 11.7386585,7.20957317 C11.9503659,7.20743902 12.1701829,7.21554878 12.3648171,7.30817073 C12.7779878,7.4827439 13.0622561,7.91512195 13.0588415,8.36371951 C13.0609756,9.82987805 13.0592683,11.2956098 13.060122,12.7617683 C13.0678049,13.0468902 12.9760366,13.3354268 12.7903659,13.5539634 C12.5492073,13.8467683 12.1578049,14.0076829 11.7804878,13.9637195 C11.3737195,13.9240244 11.002378,13.6491463 10.8427439,13.2731098 C10.7313415,13.0336585 10.7445732,12.7639024 10.7458537,12.5065244 C10.7467073,12.252561 10.7462805,11.9985976 10.7458537,11.7446341 C10.0018902,12.8168293 8.81615854,13.5339024 7.55103659,13.810061 C5.95042683,14.1643293 4.18762195,13.9031098 2.82262195,12.9717683 C1.75128049,12.2487195 0.970609756,11.1470732 0.53097561,9.94 C0.165609756,8.94762195 0.0115243902,7.88396341 0.0298780488,6.82884146 C0.0559146341,5.52573171 0.461402439,4.23371951 1.18402439,3.14957317 C1.97835366,1.94804878 3.1529878,1.00347561 4.49707317,0.486585366 L4.49707317,0.486585366 Z" id="Shape"></path>
                    <path d="M26.0289024,0.330365854 C26.3844512,0.0345731707 26.8992073,-0.0516463415 27.3315854,0.113963415 C27.7464634,0.266341463 28.0734146,0.636402439 28.1677439,1.06878049 C28.2095732,1.25060976 28.2014634,1.43884146 28.2023171,1.62408537 C28.2014634,2.19432927 28.2018902,2.76457317 28.2018902,3.33481707 C28.4071951,3.33737805 28.6129268,3.325 28.8178049,3.34420732 C29.2271341,3.38560976 29.587378,3.70359756 29.6889634,4.10097561 C29.7559756,4.37073171 29.7278049,4.66993902 29.5856707,4.91195122 C29.4192073,5.20262195 29.1042073,5.40664634 28.7678659,5.42371951 C28.5804878,5.43396341 28.3926829,5.42585366 28.2053049,5.42756098 L28.2053049,10.7134146 C28.2087195,10.9584146 28.2330488,11.2281707 28.4012195,11.4215244 C28.554878,11.6037805 28.7943293,11.6887195 29.027378,11.7002439 C29.4,11.7309756 29.8165854,11.7544512 30.102561,12.0271951 C30.3868293,12.2832927 30.4491463,12.6985976 30.3919512,13.0605488 C30.3462805,13.3883537 30.120061,13.6807317 29.817439,13.8130488 C29.5015854,13.9513415 29.1494512,13.9641463 28.8105488,13.9714024 C28.2087195,13.9829268 27.5864024,13.9193293 27.0451829,13.637622 C26.4881707,13.3653049 26.0395732,12.8868293 25.7979878,12.3170122 C25.6003659,11.8517683 25.5248171,11.3434146 25.5252439,10.8406098 C25.5248171,9.03640244 25.5256707,7.23176829 25.5252439,5.42756098 C25.3246341,5.42542683 25.1235976,5.43695122 24.9234146,5.41945122 C24.5392683,5.38103659 24.1986585,5.09890244 24.074878,4.7352439 C23.9711585,4.42536585 24.0065854,4.06512195 24.1918293,3.79280488 C24.3629878,3.53457317 24.6562195,3.35914634 24.9665244,3.3395122 C25.1556098,3.3279878 25.3455488,3.33652439 25.535061,3.33481707 C25.5359146,2.67878049 25.5333537,2.02231707 25.5359146,1.36628049 C25.5329268,0.969756098 25.7194512,0.578780488 26.0289024,0.330365854 L26.0289024,0.330365854 Z" id="Shape"></path>
                    <path d="M32.5295122,0.30902439 C32.9119512,0.00554878049 33.4664024,-0.0559146341 33.9064634,0.156219512 C34.3537805,0.36195122 34.6653659,0.831036585 34.6730488,1.32487805 C34.6785976,1.99414634 34.6743293,2.66341463 34.6747561,3.33310976 C34.8706707,3.33652439 35.0670122,3.3279878 35.2629268,3.34079268 C35.6534756,3.36981707 36.0073171,3.64939024 36.1362195,4.0177439 C36.2433537,4.32506098 36.2113415,4.68487805 36.0303659,4.95847561 C35.8617683,5.22097561 35.5681098,5.40237805 35.2552439,5.42243902 C35.0631707,5.43481707 34.8706707,5.42542683 34.6785976,5.4279878 C34.679878,7.20445122 34.6777439,8.98091463 34.6794512,10.757378 C34.6803049,11.0412195 34.7473171,11.3604878 34.994878,11.5329268 C35.3068902,11.7664024 35.7187805,11.6759146 36.0751829,11.7732317 C36.4294512,11.8432317 36.7478659,12.1061585 36.8392073,12.462561 C36.9343902,12.8458537 36.8938415,13.3021341 36.6027439,13.5945122 C36.344939,13.8672561 35.9535366,13.9359756 35.5958537,13.959878 C34.8847561,13.9987195 34.1356707,13.9667073 33.4937195,13.6252439 C32.8696951,13.3140854 32.3907927,12.7391463 32.1812195,12.0762805 C31.9532927,11.4185366 32.0032317,10.7142683 31.9989634,10.0304878 C31.9989634,8.49603659 31.9985366,6.9620122 31.9989634,5.4279878 C31.8034756,5.42542683 31.6079878,5.43609756 31.4133537,5.42073171 C30.9946341,5.38658537 30.6237195,5.06091463 30.5246951,4.655 C30.4593902,4.39036585 30.4879878,4.09884146 30.6241463,3.8602439 C30.7833537,3.57682927 31.082561,3.37237805 31.4086585,3.3425 C31.6084146,3.32628049 31.8090244,3.33695122 32.0096341,3.33481707 C32.0104878,2.67920732 32.0079268,2.02359756 32.010061,1.3679878 C32.0070732,0.959512195 32.2042683,0.556585366 32.5295122,0.30902439 L32.5295122,0.30902439 Z" id="Shape"></path>
                    <path d="M16.7743902,3.6297561 C17.6818293,3.19481707 18.7220122,3.09878049 19.7122561,3.22469512 C20.5556707,3.33182927 21.3828659,3.6604878 22.0231098,4.22859756 C23.0871951,5.16292683 23.567378,6.63164634 23.4922561,8.02182927 C23.4576829,8.37396341 23.3253659,8.73378049 23.0521951,8.97067073 C22.7854268,9.2079878 22.4183537,9.29378049 22.0692073,9.29378049 C20.3038415,9.29506098 18.5389024,9.29335366 16.7735366,9.29463415 C16.7346951,10.0309146 17.0671951,10.7966463 17.6728659,11.2285976 C18.1031098,11.5363415 18.6421951,11.6520122 19.1642073,11.6515854 C20.0678049,11.6532927 20.9688415,11.4505488 21.7917683,11.080061 C22.0888415,10.9515854 22.429878,10.8730488 22.7487195,10.9635366 C23.097439,11.0604268 23.3262195,11.4266463 23.3134146,11.7796341 C23.3040244,12.0493902 23.1746951,12.299939 23.0069512,12.5052439 C22.6723171,12.9218293 22.1844512,13.165122 21.712378,13.3917683 C20.7981098,13.8036585 19.787378,14.020061 18.7834756,13.9615854 C17.5017073,13.8864634 16.2395732,13.3281707 15.362439,12.3835976 C14.8502439,11.8317073 14.4989634,11.1428049 14.3060366,10.417622 C14.0593293,9.49737805 14.0465244,8.52890244 14.1592073,7.5877439 C14.2138415,7.17073171 14.2710366,6.74987805 14.4165854,6.35292683 C14.8203659,5.19323171 15.6526829,4.15902439 16.7743902,3.6297561 L16.7743902,3.6297561 Z M17.3360976,5.93804878 C16.9498171,6.31963415 16.7543293,6.86384146 16.7556098,7.40207317 C18.1927439,7.41060976 19.6303049,7.41060976 21.0670122,7.40207317 C21.0661585,7.0145122 20.9731098,6.62353659 20.767378,6.2927439 C20.4822561,5.82579268 19.9978049,5.495 19.4672561,5.37207317 C18.7237195,5.19067073 17.8781707,5.38487805 17.3360976,5.93804878 L17.3360976,5.93804878 Z" id="Shape"></path>
                </g>
                <g id="Bitmap">
                    <mask id="mask-2" fill="white">
                        <use xlink:href="#path-1"></use>
                    </mask>
                    <use id="Mask" fill="#FAC933" xlink:href="#path-1"></use>
                    <path d="M21.9164553,3.27549666 C21.9458727,3.16249633 21.9935009,3.01680997 22.1303154,3 C22.2774026,3.00093389 22.3819979,3.15502524 22.364721,3.29370745 C22.3371713,3.60702653 22.2671298,3.91567617 22.2377124,4.22899525 C22.2096958,4.33265671 22.3166258,4.38962381 22.3717252,4.4582645 C22.6556268,4.15475124 22.9059085,3.82182053 23.1730002,3.50336508 C23.2939385,3.36421592 23.3990008,3.18817822 23.5829766,3.12700863 C23.6754314,3.10926478 23.736601,3.21339317 23.719791,3.29464134 C23.6894397,3.5197081 23.5292781,3.69387802 23.4064719,3.87505209 C23.2098887,4.16035456 22.9978964,4.4367851 22.8391356,4.74590169 C23.2388392,4.53811184 23.5983857,4.26354907 23.976143,4.01980457 C24.0657961,3.96610607 24.165722,3.9105398 24.2749868,3.92174644 C24.3613713,3.94789527 24.380516,4.05856088 24.339425,4.13047018 C24.239966,4.34246252 24.0181679,4.44845869 23.843531,4.58854174 C23.6175304,4.76831498 23.3639801,4.9210055 23.1800043,5.14700614 C23.546088,5.17082026 23.9084362,5.07649768 24.2740529,5.0961093 C24.3781813,5.0961093 24.5859712,5.17829136 24.4771733,5.30716776 C24.2885282,5.4332425 24.0438498,5.41736642 23.8299897,5.47153187 C23.5003276,5.51682538 23.1071611,5.60694548 22.9563384,5.9422109 C22.8162554,6.24992666 22.596325,6.50767946 22.3857335,6.76730004 C22.2545223,7.11143739 22.1279807,7.46304583 22.0747491,7.82959647 C21.9178561,8.71959075 21.6895207,9.59651061 21.389743,10.4491494 C21.2183747,10.9613864 20.9835022,11.452144 20.8747043,11.9835257 C20.7439602,12.3426053 20.7747784,12.7283006 20.703803,13.0985868 C20.605278,13.6794644 20.4362444,14.2458669 20.2466654,14.8033974 C20.1327311,15.1610761 19.9594951,15.5019449 19.9118669,15.8783013 C19.72042,16.9504036 19.6359033,18.0388488 19.5924775,19.1258933 C19.5247707,21.1977215 19.5836056,23.2779547 19.8413584,25.3362416 C19.927743,25.98576 20.034673,26.6348114 20.216781,27.2651851 C20.0131936,27.3342928 19.8012013,27.3781855 19.5864073,27.3861235 C19.8875858,29.430869 20.0785657,31.4905567 20.2107107,33.5530461 C20.2419959,34.0255929 20.2751489,34.4981397 20.3083019,34.9706865 C19.0638975,34.9706865 17.8194931,34.9711535 16.5755557,34.9706865 C16.3724353,34.0069152 16.1412982,33.0422099 15.7607393,32.1307363 C15.3143413,33.0342719 15.1079523,34.0274607 14.7675505,34.9706865 L11.1893626,34.9706865 C11.219247,31.3369323 12.0139848,27.7568766 12.0177203,24.1221886 C12.020522,23.5366414 11.9584185,22.953429 11.8907117,22.3725513 C11.8337446,21.9681783 11.8174016,21.556801 11.7212112,21.1589652 C11.6833888,21.2448828 11.6474341,21.3312673 11.6124134,21.4176519 C11.5433057,21.4353957 11.474665,21.4531396 11.4069582,21.4713504 C11.1902965,22.1965136 10.9853083,22.9314827 10.6467742,23.6113524 C10.6014807,23.7117452 10.5786005,23.82101 10.5706625,23.9307417 C10.5291045,24.5578468 10.433848,25.1816833 10.2984344,25.795714 C10.053756,26.6777702 9.79413544,27.5560909 9.54011818,28.4353455 C9.66946153,28.5432095 9.81701567,28.6422015 9.89686301,28.7962928 C10.0322766,29.0381696 10.0397477,29.331877 10.1975746,29.5639479 C10.3175791,29.7469898 10.4394513,29.935168 10.4735382,30.1564992 C10.3661412,30.1382884 10.2475376,30.141557 10.1569505,30.0729163 C10.0178014,29.9776599 9.93608626,29.8254363 9.82075122,29.7068326 C9.74510637,29.6498655 9.64844907,29.6321217 9.56253147,29.5994356 C9.50883297,29.9216266 9.45933696,30.282107 9.67319708,30.5604053 C9.79600321,30.8139556 10.1163264,30.819092 10.3040377,30.9960636 C10.3628726,31.1310103 10.4361827,31.2860355 10.3904223,31.4359244 C10.2512731,31.4868212 10.1111901,31.4004367 9.97811117,31.3691514 C9.75024275,31.2827669 9.50042799,31.249147 9.28656787,31.1324111 C9.00967039,30.8485095 8.73557456,30.5104424 8.69401659,30.1013999 C8.55673521,29.0960706 8.54552856,28.0790676 8.53852441,27.0658003 C8.53245414,26.5045342 8.57121045,25.944202 8.59222291,25.3838698 C8.63751643,24.6993307 8.90087255,24.0554156 9.00453401,23.3811492 C9.14228234,22.5028285 9.28049761,21.6245078 9.42058065,20.7466541 C9.49062218,20.4380045 9.16329479,20.2689709 9.0442242,20.0247595 C9.29357202,19.3616997 9.45793613,18.6696895 9.71989143,18.0112992 C9.93281766,17.4799175 10.2508062,16.9728168 10.7214852,16.6342828 C11.1057797,16.3471126 11.5423718,16.1421244 11.9425424,15.8787683 C12.2110349,15.6882553 12.4879324,15.5033457 12.7181355,15.2656715 C12.8035862,15.1830225 12.8376731,15.0672205 12.8740947,14.9579557 C12.9964339,14.9579557 13.1197069,14.9593565 13.24298,14.9602904 C13.268195,14.6189547 13.2130956,14.2790199 13.1626657,13.9428206 C13.1379177,13.7182208 12.9343304,13.583741 12.780239,13.4445919 C12.5019407,13.2106532 12.202163,12.9967931 11.9686913,12.7147592 C11.8183354,12.5443248 11.7137401,12.3402705 11.5694546,12.1651667 C11.5241611,11.9984679 11.5045494,11.7822731 11.3023629,11.7388473 C11.3733383,11.6454586 11.4685948,11.5497352 11.4592559,11.4227266 C11.4345079,11.3662264 11.4074252,11.312061 11.3775408,11.2592964 C11.4597229,11.0127502 11.5110866,10.7568652 11.6096117,10.5159223 C11.6310911,10.5051826 11.6740499,10.4837032 11.6955293,10.4729635 C11.706736,10.3417524 11.6903929,10.1876611 11.8145999,10.1017435 C11.7688394,10.1003426 11.6777855,10.097074 11.632025,10.0952063 C11.7216781,10.0452433 11.8127321,9.99808201 11.90472,9.95138766 C11.9313358,9.8519287 11.9878359,9.76834582 12.0807577,9.71931675 C12.0457369,9.80430047 11.9145258,9.90422637 12.0462039,9.97146623 C12.1904894,9.8089699 12.2829442,9.60631643 12.3964115,9.42234069 C12.3861387,9.38685299 12.3660602,9.31681147 12.3562543,9.28132376 C12.4515108,9.34529502 12.565912,9.36397276 12.6789123,9.37004302 C12.8815658,9.17392676 13.2065584,9.17766231 13.3821292,8.93952113 C13.3069513,8.92551283 13.2317734,8.91243841 13.1575294,8.89983093 C13.3074182,8.85033493 13.4671129,8.84659938 13.606729,8.92971532 C13.7822997,8.79663642 14.0218418,8.89562844 14.1918092,8.76581815 C14.1829373,8.72752879 14.1651934,8.65095006 14.1563215,8.61266069 C14.3683138,8.71165271 14.4145412,8.96800468 14.6115914,9.08240584 C14.7157198,9.1529143 14.788563,9.25750964 14.8609392,9.35883638 C15.011295,9.57829982 15.2877255,9.67729184 15.4166019,9.91496607 C15.6038463,10.2324876 15.6159868,10.618183 15.8008964,10.9371054 C15.9769341,11.2214739 15.9951449,11.5632766 16.0329673,11.8864015 C16.0483765,12.1194063 16.0861989,12.352878 16.0703228,12.5868167 C16.0035499,12.7516477 15.8695371,12.8753878 15.7528013,13.0047311 C15.8111692,13.3465337 15.9288389,13.6743281 16.0119549,14.0105274 C16.3733691,13.9867133 16.6572708,13.7172869 16.8711309,13.4473935 C17.0546397,13.2106532 17.3193966,13.0518924 17.5986289,12.9533673 C17.8825305,12.8679167 18.0940559,12.6484532 18.3088499,12.4560725 C18.5469911,12.2417455 18.6613922,11.9358975 18.8374299,11.675343 C19.0041287,11.4348671 19.1003191,11.1556349 19.2179889,10.8899441 C19.4687375,10.2866531 19.712482,9.6800935 19.9879787,9.08754222 C20.348459,8.38525921 20.5828647,7.62927771 20.8779729,6.89944504 C20.9736964,6.63422114 20.9895724,6.30362516 20.8023281,6.07342202 C20.5940713,5.81146672 20.3055002,5.56725528 20.2900911,5.20724185 C20.2475992,4.85189786 19.8544328,4.74029837 19.6097544,4.54885154 C19.7736516,4.34339641 20.0780988,4.32238395 20.3064341,4.4227768 C20.4922776,4.50635968 20.6080796,4.68099655 20.7584354,4.80987295 C20.9115929,4.89859221 21.1207836,4.92754271 21.2753419,4.82481514 C21.4350365,4.72068674 21.5872601,4.57453343 21.6283511,4.38121883 C21.7231407,4.01233348 21.8202649,3.64391507 21.9164553,3.27549666 L21.9164553,3.27549666 Z" id="Shape" fill="#010101" mask="url(#mask-2)"></path>
                </g>
            </g>
        </g>
    </g>
</svg>