<?xml version="1.0" encoding="UTF-8"?>
<svg width="112px" height="113px" viewBox="0 0 112 113" version="1.1" xmlns="http://www.w3.org/2000/svg" xmlns:xlink="http://www.w3.org/1999/xlink">
    <!-- Generator: Sketch 39 (31667) - http://www.bohemiancoding.com/sketch -->
    <title>DriverBlock/Support</title>
    <desc>Created with Sketch.</desc>
    <defs></defs>
    <g id="Page-1" stroke="none" stroke-width="1" fill="none" fill-rule="evenodd">
        <g id="Главная" transform="translate(-514.000000, -814.000000)">
            <g id="DriverBlock/Support" transform="translate(514.000000, 814.000000)">
                <circle id="Oval-6-Copy" fill="#DBDBDB" cx="56" cy="56" r="56"></circle>
                <g id="Group-50" transform="translate(3.000000, 17.000000)">
                    <path d="M43.4073083,3.2843648 C46.5665096,1.10415646 50.4262379,0.0590655671 54.2410856,0.0629797652 C54.2391343,3.16889596 54.2352316,6.27676925 54.2410856,9.38268545 C54.0322935,9.40812774 53.8254526,9.44139842 53.6205631,9.4844546 C52.4946464,9.73887748 51.7063096,10.9190082 51.8546106,12.059997 C51.9170531,13.0913882 52.7463678,13.9094556 53.7064215,14.1775781 C54.0225368,14.3361032 54.3152361,14.5846547 54.2488909,14.9839029 C54.243037,17.8001685 54.2391343,20.6144769 54.2352316,23.4307424 C53.8352092,23.4640131 53.4351869,23.4972838 53.0332131,23.5129406 C52.4770844,23.5070693 51.8585132,23.3113594 51.3550704,23.6440662 C49.2008034,24.9083522 47.0270232,26.1432817 44.8766589,27.413439 C44.396632,27.6854758 43.9185565,27.9575126 43.4521889,28.2491203 C43.0911931,28.4722296 42.7262946,28.6914247 42.3496881,28.8871346 C42.1252853,28.994775 41.8989312,29.0985013 41.6725771,29.1983134 C41.9457631,28.6366259 42.2618784,28.0964666 42.5604317,27.5465218 C42.9702107,26.8067383 43.4151137,26.0865259 43.7878174,25.3271714 C44.568349,24.1822685 45.2649733,22.9766955 45.8757392,21.7339376 C45.6357258,21.6165116 45.3976637,21.5029999 45.1596016,21.3855739 C44.8512916,21.2309631 44.5468843,21.0685239 44.2502824,20.8982563 C44.1214947,20.8180152 43.9946583,20.73386 43.8717246,20.6477476 C40.977904,18.7454473 38.6460662,15.657145 38.5192298,12.0834821 C38.3670261,8.52156187 40.5583683,5.24146386 43.4073083,3.2843648 L43.4073083,3.2843648 Z M46.0825801,9.52751078 C45.3293672,9.79759045 44.7029906,10.4551757 44.544933,11.251715 C44.1995478,12.4533739 45.0093493,13.839 46.2230757,14.136479 C47.7255989,14.6531532 49.4681355,13.2792697 49.2769053,11.6822768 C49.2983699,10.1107263 47.5207094,8.97169465 46.0825801,9.52751078 L46.0825801,9.52751078 Z" id="Shape" fill="#FBD133"></path>
                    <path d="M71.0361723,45.8316982 C71.6235223,46.3170588 72.0859872,46.9257166 72.5601601,47.5167605 C74.9856617,50.4269668 77.3779908,53.3645724 79.824957,56.2552077 C80.3069352,56.8423375 80.7850108,57.4294672 81.272843,58.0126827 C81.2982103,58.0557389 81.3489448,58.1418512 81.3762634,58.1849074 C81.3899227,59.2906684 81.3606528,60.3944722 81.3957767,61.5002332 C81.4835865,61.5687317 81.6631087,61.7096428 81.7509185,61.7781413 C81.6670114,61.7605274 81.4991971,61.7272567 81.41529,61.7096428 C80.8884312,61.7350851 80.3771831,62.2028318 80.5118248,62.7625621 C80.5235327,63.2087807 80.9528251,63.4592894 81.3489448,63.5199594 C81.3821174,64.57875 81.3762634,65.6414548 81.3469935,66.7022025 C80.8864799,66.7667867 80.4376743,67.1308072 80.5020681,67.6396529 C80.4669442,68.1406703 80.964533,68.4675058 81.4055333,68.530133 C81.4952945,68.5086049 81.6728654,68.4616345 81.7626265,68.4381493 C81.676768,68.5007765 81.5050511,68.6279879 81.421144,68.6906151 C81.3860201,69.5165109 81.3216262,70.3443638 81.3801661,71.1702596 C81.3489448,71.4442535 81.5733476,71.6047356 81.7528699,71.7652177 C81.6689627,71.7378183 81.4972458,71.6810625 81.4113873,71.6536631 C80.5059708,71.6791054 80.139121,72.9649194 80.9567277,73.4033096 C81.1225907,73.4483229 81.2923563,73.489422 81.4640732,73.5266069 C81.3372368,74.5677836 81.2884536,75.6304884 81.4972458,76.6657938 C81.3196749,76.691236 81.1460066,76.7205925 80.9723384,76.7597345 C80.3537671,77.0943984 80.3244972,78.1238325 81.0172189,78.3939122 C81.0991747,78.4428397 81.2630863,78.5387375 81.3450422,78.587665 C81.3743121,79.5446865 81.3606528,80.5017079 81.397728,81.4587293 C81.4894405,81.5272278 81.6709141,81.6661818 81.7606752,81.7346803 C81.6709141,81.7111951 81.4933431,81.6681389 81.403582,81.6446537 C80.8962365,81.709238 80.3713291,82.1476282 80.5137761,82.7093156 C80.5254841,83.1692339 80.9508737,83.408 81.3508961,83.4764985 C81.4074847,85.0304351 81.3528475,86.5863288 81.397728,88.1422226 C75.4578833,88.1441797 69.5180385,88.1324371 63.5801451,88.1480939 C64.054318,86.5374014 64.1050525,84.8582104 64.2240836,83.1966333 C64.9343673,84.5118039 65.2290179,86.0050704 65.9627175,87.3084984 C66.0602839,83.4314852 65.9783281,79.5505578 66.0056467,75.6735445 C65.9744255,73.7712443 66.0876026,71.8630727 65.906129,69.9646866 C65.8924697,69.6280656 65.7617306,69.3168868 65.6056243,69.023322 C64.7236237,72.0196406 64.2865261,75.1235997 63.6640522,78.1786313 C62.9635252,75.2449398 62.3098301,72.2995058 61.5780818,69.3736427 C60.5809528,65.3987745 59.917501,61.337794 58.6979205,57.4177246 C59.1311155,56.7268686 59.2364873,55.9029299 59.5233326,55.1514039 C60.0365321,53.73055 60.5829041,52.2803396 61.5488118,51.0982517 C62.179091,50.3036695 63.1469501,49.9298636 64.0113887,49.4601598 C66.3549346,48.2545868 68.6867725,47.0274857 71.0361723,45.8316982 Z" id="Shape" fill="#FBD133"></path>
                    <path d="M54.2410856,0.0629797652 C58.1613051,0.0727652605 62.1693344,1.12764165 65.3539029,3.48203181 C67.4184088,5.00661197 69.1082595,7.16529222 69.7170741,9.6958213 C70.2439328,11.7977457 69.9200122,14.0542809 68.9716665,15.9859377 C68.5560334,16.7922625 68.0447853,17.5477027 67.4476787,18.2287732 C65.199748,20.8238865 61.9781042,22.3465096 58.6940179,23.1371776 C58.6062081,23.1508773 58.4344911,23.1763196 58.3466813,23.1900193 C58.2393583,23.2232899 58.0247121,23.2917884 57.917389,23.3250591 C57.780796,23.3348446 57.50761,23.3505014 57.371017,23.3583298 C57.0783177,23.3916005 56.7856183,23.422914 56.492919,23.4522705 C55.3416351,23.5344687 54.1844971,23.618624 53.0332131,23.5129406 C53.4351869,23.4972838 53.8352092,23.4640131 54.2352316,23.4307424 C54.2391343,20.6144769 54.243037,17.8001685 54.2488909,14.9839029 C54.3152361,14.5846547 54.0225368,14.3361032 53.7064215,14.1775781 C53.8449659,14.2010633 54.1220546,14.2499908 54.2625502,14.273476 C54.9064887,14.1697497 55.5816485,13.9681685 56.0226488,13.4534515 C56.8929414,12.5610143 56.8558662,10.9894638 55.9875249,10.1087692 C55.5328653,9.63906543 54.8811215,9.42378453 54.2410856,9.38268545 C54.2352316,6.27676925 54.2391343,3.16889596 54.2410856,0.0629797652 L54.2410856,0.0629797652 Z M59.4101555,10.8583381 C58.8989074,12.0423831 59.4745494,13.5924055 60.7116918,14.0405812 C61.9761528,14.6374964 63.626977,13.8155148 63.9489462,12.4572881 C64.3079907,11.3554413 63.6796629,10.1361686 62.6883878,9.60775184 L62.5888701,9.61949444 C62.0190821,9.33767217 61.3380683,9.36311446 60.754621,9.58426665 C60.1340985,9.73887748 59.6618769,10.2849081 59.4101555,10.8583381 L59.4101555,10.8583381 Z" id="Shape" fill="#FDEDAD"></path>
                    <path d="M89.3201228,48.6029504 C90.1143136,47.6791997 90.8265486,46.6830363 91.6968412,45.827784 C94.4579714,47.1801394 97.1644644,48.6440495 99.9021787,50.0433754 C100.891502,50.5130791 101.576419,51.4133447 102.075959,52.3625377 C103.377495,54.8500106 104.03119,57.6114774 104.684885,60.3259738 C105.473222,64.2714855 106.515232,68.1602413 107.397232,72.086182 C108.109467,75.3741084 108.579738,78.8616589 107.570901,82.143714 C106.930865,84.1556118 106.320099,86.1851235 105.523957,88.1422226 C97.482531,88.1383084 89.4391539,88.1402655 81.397728,88.1422226 C81.3528475,86.5863288 81.4074847,85.0304351 81.3508961,83.4764985 C81.4582192,83.4530133 81.6689627,83.4040858 81.7743345,83.3806006 C82.4729102,83.1085638 82.400711,82.0341165 81.7606752,81.7346803 C81.6709141,81.6661818 81.4894405,81.5272278 81.397728,81.4587293 C81.3606528,80.5017079 81.3743121,79.5446865 81.3450422,78.587665 C81.7431132,78.3880409 82.3304632,78.1864597 82.2621667,77.6247723 C82.3636358,77.1217978 81.9304408,76.7753913 81.4972458,76.6657938 C81.2884536,75.6304884 81.3372368,74.5677836 81.4640732,73.5266069 C82.3675384,73.4228806 82.56072,72.146852 81.7528699,71.7652177 C81.5733476,71.6047356 81.3489448,71.4442535 81.3801661,71.1702596 C81.3216262,70.3443638 81.3860201,69.5165109 81.421144,68.6906151 C81.5050511,68.6279879 81.676768,68.5007765 81.7626265,68.4381493 C82.4163216,68.15437 82.4651049,67.0564374 81.7723831,66.7961432 C81.6650601,66.772658 81.4523652,66.7256877 81.3469935,66.7022025 C81.3762634,65.6414548 81.3821174,64.57875 81.3489448,63.5199594 C81.4445599,63.512131 81.6357901,63.4964742 81.7314052,63.4886458 C82.4358349,63.1637674 82.4377863,62.1186765 81.7509185,61.7781413 C81.6631087,61.7096428 81.4835865,61.5687317 81.3957767,61.5002332 C81.3606528,60.3944722 81.3899227,59.2906684 81.3762634,58.1849074 C81.9011708,57.5468931 82.4202243,56.9030075 82.9568397,56.2728216 C85.1033013,53.7383784 87.1873205,51.1510934 89.3201228,48.6029504 L89.3201228,48.6029504 Z M97.0103095,69.1505334 C96.7663934,70.3952484 96.799566,71.6673628 96.8034686,72.9277346 C96.8249332,77.7598121 96.7566367,82.5918897 96.8385925,87.4220101 C97.6015621,85.5490663 98.331359,83.6585087 98.9577356,81.7346803 C99.3714173,80.5330215 99.1060366,79.2569929 99.0143241,78.0279347 C98.7606514,76.2704597 98.4718547,74.516899 98.0737836,72.7868234 C97.8142569,71.6419205 97.6561993,70.465704 97.2639822,69.3560288 C97.2015397,69.3051442 97.072752,69.201418 97.0103095,69.1505334 L97.0103095,69.1505334 Z" id="Shape" fill="#FDEDAD"></path>
                    <path d="M39.007062,1.70694297 C40.0959034,1.56407474 41.2647494,1.4270778 42.1447986,0.702951155 C42.7282459,1.47013398 42.9585027,2.43889801 43.4073083,3.2843648 C40.5583683,5.24146386 38.3670261,8.52156187 38.5192298,12.0834821 C36.5698524,11.3162993 34.3980234,11.1930021 32.3647389,11.6744484 C32.2788804,11.5589796 32.1910706,11.4435108 32.1052121,11.329999 C32.2730264,10.0774556 32.1559467,8.81316963 32.181314,7.55475494 C32.1852166,5.94014822 32.2027786,4.3255415 32.1774113,2.71093478 C31.0573486,2.54849556 29.7675203,3.00841384 28.8055152,2.24514521 C30.579273,2.07292049 32.3686415,2.20991743 34.146302,2.11793377 C34.5599837,2.11206247 34.9775681,1.97897974 35.3892984,2.0650921 C36.0547016,2.30581528 36.7630339,2.28037299 37.4557556,2.23535971 C37.4206317,2.17273254 37.3484325,2.0494353 37.3113573,1.98876523 L37.2723307,1.92222386 C37.4245343,1.92026677 37.7269903,1.92026677 37.8772426,1.92026677 C38.2031145,2.0474782 38.7455839,2.27450169 38.9387655,1.83806861 L39.007062,1.70694297 L39.007062,1.70694297 Z" id="Shape" fill="#222222"></path>
                    <path d="M84.2330087,10.1361686 C84.3130132,10.163568 84.4749735,10.2183667 84.5569293,10.2457661 C84.7754781,10.5373739 85.1891598,10.5863014 85.4603945,10.3318785 C87.807843,10.6528427 90.2118801,11.8701583 91.3338941,14.0523238 C91.6675713,14.7236088 92.0305185,15.4418641 92.0480804,16.2012185 C91.956368,16.5358825 91.7651377,17.0466853 92.1827221,17.2404381 L92.3173638,17.3245934 C92.4051736,18.4323115 92.3993196,19.5478579 92.3212664,20.655576 L92.2568726,20.6927609 C91.6402527,21.05091 91.9368547,21.9883604 92.0597884,22.5657047 C91.9134387,23.8339048 91.7007439,25.0981908 91.3943853,26.3370345 L91.3202348,26.3605197 C91.1153453,23.8495616 90.4616501,21.1213656 88.4908081,19.3991184 C86.7365635,17.8569243 84.2486194,17.5437885 82.0162992,17.8999805 L81.8270204,17.9254228 C81.6474981,17.8314821 81.4679759,17.7375413 81.2923563,17.6436005 C81.4679759,15.2794249 81.3821174,12.8995924 81.3391882,10.5295455 C80.6093912,10.5138887 79.854227,10.6019582 79.1536999,10.3494924 C80.8415993,10.1518254 82.56072,10.4297334 84.2330087,10.1361686 L84.2330087,10.1361686 Z" id="Shape" fill="#4A4A4A"></path>
                    <path d="M37.8772426,1.92026677 C38.1914066,1.78718403 38.6187476,1.69911457 38.9387655,1.83806861 C38.7455839,2.27450169 38.2031145,2.0474782 37.8772426,1.92026677 L37.8772426,1.92026677 Z" id="Shape" fill="#470100"></path>
                    <path d="M35.3892984,2.0650921 C36.027383,2.00637912 36.6713214,1.96919424 37.3113573,1.98876523 C37.3484325,2.0494353 37.4206317,2.17273254 37.4557556,2.23535971 C36.7630339,2.28037299 36.0547016,2.30581528 35.3892984,2.0650921 L35.3892984,2.0650921 Z" id="Shape" fill="#460200"></path>
                    <path d="M22.6080951,4.77371718 C24.3135564,3.25109412 26.5653898,2.49565389 28.8055152,2.24514521 C29.7675203,3.00841384 31.0573486,2.54849556 32.1774113,2.71093478 C32.2027786,4.3255415 32.1852166,5.94014822 32.181314,7.55475494 C32.1559467,8.81316963 32.2730264,10.0774556 32.1052121,11.329999 C32.1910706,11.4435108 32.2788804,11.5589796 32.3647389,11.6744484 C31.326632,11.645092 30.311941,11.3358703 29.2679801,11.3828407 C27.0493193,11.4395966 24.7369947,12.1363238 23.1739804,13.7900725 C21.5407182,15.4125076 20.8479965,17.7023135 20.4050449,19.9060071 C20.2469872,19.8903503 19.9289207,19.8570796 19.7689117,19.8394657 L19.7103718,19.8335944 C19.6089027,18.9705137 19.4274292,18.1211327 19.3357167,17.258052 C19.4586504,16.7668202 19.7669604,15.9233105 19.1893671,15.6356169 L19.0781413,15.578861 C19.0976546,15.4653493 19.1366812,15.2344116 19.1581458,15.1208999 C19.3923052,14.2167201 19.4430398,13.2362135 19.1386325,12.3437763 L19.1113139,12.2537498 C19.4196239,9.4785833 20.4479741,6.63687548 22.6080951,4.77371718 L22.6080951,4.77371718 Z" id="Shape" fill="#222222"></path>
                    <path d="M74.2695241,11.5922503 C75.5378878,10.7311267 77.0443136,10.3142646 78.548788,10.1205118 C78.7478236,10.2046671 78.9488104,10.2809939 79.1536999,10.3494924 C79.854227,10.6019582 80.6093912,10.5138887 81.3391882,10.5295455 C81.3821174,12.8995924 81.4679759,15.2794249 81.2923563,17.6436005 C81.4679759,17.7375413 81.6474981,17.8314821 81.8270204,17.9254228 C80.4513336,17.9508651 79.0736955,17.6201154 77.694106,17.8608385 C76.9838224,17.9586935 76.3145166,18.2268161 75.6510648,18.4871102 C74.3300152,17.3500357 72.7065097,16.6219948 71.0361723,16.1679479 C71.5064425,14.3184893 72.6733371,12.6392983 74.2695241,11.5922503 L74.2695241,11.5922503 Z" id="Shape" fill="#4A4A4A"></path>
                    <path d="M53.6205631,9.4844546 C53.8254526,9.44139842 54.0322935,9.40812774 54.2410856,9.38268545 C54.8811215,9.42378453 55.5328653,9.63906543 55.9875249,10.1087692 C56.8558662,10.9894638 56.8929414,12.5610143 56.0226488,13.4534515 C55.5816485,13.9681685 54.9064887,14.1697497 54.2625502,14.273476 C54.2527936,12.6960541 54.3015768,11.1166752 54.2410856,9.53925337 C54.0849793,9.52555368 53.7766694,9.49815429 53.6205631,9.4844546 L53.6205631,9.4844546 Z" id="Shape" fill="#4A4A4A"></path>
                    <path d="M59.4101555,10.8583381 C59.6618769,10.2849081 60.1340985,9.73887748 60.754621,9.58426665 C61.3614843,9.68212161 61.9781042,9.71930649 62.5888701,9.61949444 L62.6883878,9.60775184 C63.6796629,10.1361686 64.3079907,11.3554413 63.9489462,12.4572881 C63.626977,13.8155148 61.9761528,14.6374964 60.7116918,14.0405812 C59.4745494,13.5924055 58.8989074,12.0423831 59.4101555,10.8583381 L59.4101555,10.8583381 Z" id="Shape" fill="#4A4A4A"></path>
                    <path d="M67.4574353,22.1488426 C68.2750421,22.3093247 69.1180161,22.8925402 69.158994,23.7986771 C69.2877817,24.7870121 68.4311484,25.6226934 67.4886566,25.7088057 C67.44963,24.5208466 67.473046,23.3348446 67.4574353,22.1488426 L67.4574353,22.1488426 Z" id="Shape" fill="#4A4A4A"></path>
                    <path d="M71.0069024,23.4444421 C71.159106,22.3132389 72.7748062,21.8533206 73.6099749,22.5794044 C74.4997808,23.184148 74.5231968,24.6421868 73.6665635,25.2860723 C72.8645673,26.0395555 71.2410618,25.6422644 71.0478803,24.5228037 C71.0537343,24.1626975 71.040075,23.8025913 71.0069024,23.4444421 L71.0069024,23.4444421 Z" id="Shape" fill="#4A4A4A"></path>
                    <path d="M32.2418052,45.3424234 C32.9345269,46.1311343 33.6194433,46.9276737 34.312165,47.7163846 C33.8536027,48.6049075 33.1999076,49.4386317 32.9169649,50.391739 C33.4477263,54.384221 34.1736206,58.3532179 34.6751121,62.3515713 L34.5873023,62.5414099 C33.7735982,63.9700922 33.0223367,65.4320452 32.157898,66.8294139 C32.0993582,60.3807725 32.1657033,53.9321312 32.1286281,47.4834898 C32.1091148,46.7671915 32.1910706,46.0548075 32.2418052,45.3424234 L32.2418052,45.3424234 Z" id="Shape" fill="#FBD133"></path>
                    <path d="M46.0825801,9.52751078 C47.5207094,8.97169465 49.2983699,10.1107263 49.2769053,11.6822768 C49.4681355,13.2792697 47.7255989,14.6531532 46.2230757,14.136479 C45.0093493,13.839 44.1995478,12.4533739 44.544933,11.251715 C44.7029906,10.4551757 45.3293672,9.79759045 46.0825801,9.52751078 L46.0825801,9.52751078 Z" id="Shape" fill="#4A4A4A"></path>
                    <path d="M51.8546106,12.059997 C51.7063096,10.9190082 52.4946464,9.73887748 53.6205631,9.4844546 C53.7766694,9.49815429 54.0849793,9.52555368 54.2410856,9.53925337 C54.3015768,11.1166752 54.2527936,12.6960541 54.2625502,14.273476 C54.1220546,14.2499908 53.8449659,14.2010633 53.7064215,14.1775781 C52.7463678,13.9094556 51.9170531,13.0913882 51.8546106,12.059997 L51.8546106,12.059997 Z" id="Shape" fill="#4A4A4A"></path>
                    <path d="M62.0561573,22.2251694 C63.3889149,21.959004 64.5714201,23.6244953 63.8123532,24.7889692 C63.2523219,25.8595024 61.6034491,25.9867138 60.9165813,24.9807649 C60.1165365,23.9983012 60.8190149,22.3680377 62.0561573,22.2251694 L62.0561573,22.2251694 Z" id="Shape" fill="#4A4A4A"></path>
                    <path d="M65.8573458,23.2761316 C66.0973592,22.591147 66.8095942,22.3054105 67.4574353,22.1488426 C67.473046,23.3348446 67.44963,24.5208466 67.4886566,25.7088057 C67.3462096,25.6833635 67.0613156,25.6324789 66.9188686,25.6089937 C65.9841821,25.3095575 65.4436641,24.1842256 65.8573458,23.2761316 L65.8573458,23.2761316 Z" id="Shape" fill="#4A4A4A"></path>
                    <path d="M32.2418052,45.3424234 C32.1910706,46.0548075 32.1091148,46.7671915 32.1286281,47.4834898 C32.1657033,53.9321312 32.0993582,60.3807725 32.157898,66.8294139 L32.0817962,66.9605396 C31.2739461,65.4574875 30.44268,63.9642209 29.5840954,62.4905253 C29.6036087,61.4532628 29.8202062,60.4394855 29.9587505,59.4178798 C30.4095074,56.4744028 30.870021,53.532883 31.2993134,50.5854918 C31.3949285,50.2449566 31.1861363,49.9533488 31.0339326,49.6695694 C30.6631802,49.0276409 30.306087,48.375927 29.9236266,47.7418269 C30.620251,46.8963601 31.3363886,46.0685072 32.0700882,45.254354 L32.2418052,45.3424234 Z" id="Shape" fill="#EBBD0E"></path>
                    <path d="M60.754621,9.58426665 C61.3380683,9.36311446 62.0190821,9.33767217 62.5888701,9.61949444 C61.9781042,9.71930649 61.3614843,9.68212161 60.754621,9.58426665 L60.754621,9.58426665 Z" id="Shape" fill="#F1F1F1"></path>
                    <path d="M78.548788,10.1205118 C80.4376743,10.0011288 82.3480251,9.9013167 84.2330087,10.1361686 C82.56072,10.4297334 80.8415993,10.1518254 79.1536999,10.3494924 C78.9488104,10.2809939 78.7478236,10.2046671 78.548788,10.1205118 L78.548788,10.1205118 Z" id="Shape" fill="#480000"></path>
                    <path d="M84.5569293,10.2457661 C84.82231,10.0970266 85.2028191,10.1929245 85.4603945,10.3318785 C85.1891598,10.5863014 84.7754781,10.5373739 84.5569293,10.2457661 L84.5569293,10.2457661 Z" id="Shape" fill="#470200"></path>
                    <path d="M23.1739804,13.7900725 C24.7369947,12.1363238 27.0493193,11.4395966 29.2679801,11.3828407 C30.311941,11.3358703 31.326632,11.645092 32.3647389,11.6744484 C32.1793626,11.9660562 32.1130175,12.3046343 32.1247254,12.6471267 C32.1500927,17.6064157 32.1208228,22.5657047 32.1383847,27.5249937 C32.1442387,28.5465994 32.0876502,29.5721193 32.1930219,30.5917679 C32.448646,30.693537 32.7062214,30.7972633 32.9637968,30.8970753 C31.9139819,30.4802132 30.8524591,31.0223297 29.908016,31.4587628 C29.1060198,31.89911 28.2103599,32.4020845 27.8415588,33.2906075 C27.5117842,34.0891039 27.7908242,34.9423991 27.9742491,35.7389384 C27.0629786,35.3886177 26.1243895,35.0245972 25.3965439,34.347441 C24.2647732,33.3238782 23.1271485,32.2396453 22.4871127,30.8246627 C21.8509795,29.5584196 21.8275635,28.1179947 21.5504749,26.7558537 C21.3143641,25.6031224 21.0958153,24.448434 20.8518992,23.2996168 C20.6411557,22.1801562 20.2391819,21.0606955 20.4050449,19.9060071 C20.8479965,17.7023135 21.5407182,15.4125076 23.1739804,13.7900725 L23.1739804,13.7900725 Z" id="Shape" fill="#F8F6F3"></path>
                    <path d="M75.6510648,18.4871102 C76.3145166,18.2268161 76.9838224,17.9586935 77.694106,17.8608385 C79.0736955,17.6201154 80.4513336,17.9508651 81.8270204,17.9254228 L82.0162992,17.8999805 C81.8094584,17.9821787 81.6045689,18.0663339 81.4016307,18.1563605 C81.4309006,25.7968752 81.4133387,33.4373899 81.4074847,41.0798617 L81.4074847,41.1385747 C80.3771831,41.0720333 79.278585,41.4673673 78.3107259,40.9780925 C77.6258095,40.6747422 77.2550571,39.9975859 76.7613709,39.4769976 C75.7037507,38.6237024 74.7768695,37.6216677 73.8577937,36.6255043 C73.1338507,35.7917801 72.3552705,34.9052142 72.173797,33.7720538 C73.5416784,34.5392367 74.8783386,35.3573041 76.2520741,36.1107872 C75.3993434,34.5803357 74.5056348,33.0694553 73.6255856,31.5546606 C73.5455811,31.3315513 73.2802004,31.1123562 73.3777668,30.8638046 C74.2187895,30.3530018 75.1066441,29.8989548 75.8266844,29.212013 C77.3682341,27.8714002 78.4843942,25.8986443 78.3751198,23.8065055 C78.3926817,21.7124095 77.1848092,19.8198947 75.6510648,18.4871102 L75.6510648,18.4871102 Z" id="Shape" fill="#F8F6F3"></path>
                    <path d="M26.5907571,37.5355553 C27.1859123,38.0757146 27.6600852,38.7665706 28.3567096,39.1873469 C29.5450688,39.8194899 30.899291,39.3458719 32.1618007,39.3458719 C32.1422874,41.2892713 32.0720396,43.240499 32.1949733,45.1819413 L32.2418052,45.3424234 L32.0700882,45.254354 C29.8553301,44.4480292 27.7791163,43.2874694 25.913646,41.8450874 C26.4366021,40.4672897 26.4795313,38.9877228 26.5907571,37.5355553 L26.5907571,37.5355553 Z" id="Shape" fill="#F1F1F1"></path>
                    <path d="M32.3647389,11.6744484 C34.3980234,11.1930021 36.5698524,11.3162993 38.5192298,12.0834821 C38.6460662,15.657145 40.977904,18.7454473 43.8717246,20.6477476 C43.5146314,22.9610387 42.9526487,25.239102 42.5604317,27.5465218 C42.2618784,28.0964666 41.9457631,28.6366259 41.6725771,29.1983134 C41.8989312,29.0985013 42.1252853,28.994775 42.3496881,28.8871346 C42.1740686,29.7971857 41.8950285,30.6954941 41.4032937,31.4881192 C40.7769172,32.5762663 39.8207661,33.4041192 38.9348628,34.269157 C38.1992119,34.9913265 37.2215962,35.3729609 36.2810557,35.7428526 C36.4683833,34.823016 36.7805959,33.7661825 36.1951972,32.9207157 C35.3990551,31.8834532 34.15801,31.3354655 32.9637968,30.8970753 C32.7062214,30.7972633 32.448646,30.693537 32.1930219,30.5917679 C32.0876502,29.5721193 32.1442387,28.5465994 32.1383847,27.5249937 C32.1208228,22.5657047 32.1500927,17.6064157 32.1247254,12.6471267 C32.1130175,12.3046343 32.1793626,11.9660562 32.3647389,11.6744484 L32.3647389,11.6744484 Z" id="Shape" fill="#FFFFFF"></path>
                    <path d="M82.0162992,17.8999805 C84.2486194,17.5437885 86.7365635,17.8569243 88.4908081,19.3991184 C90.4616501,21.1213656 91.1153453,23.8495616 91.3202348,26.3605197 L91.3943853,26.3370345 C91.921244,26.2019947 92.7349481,25.9182153 92.9964262,26.6110284 C93.4198645,27.7559313 93.2774175,29.1376433 92.5749392,30.1475064 C92.1261336,30.8070488 91.9778326,31.6035881 91.6168368,32.3022724 C91.4373145,32.6799926 90.9963142,32.7387055 90.6489777,32.8678741 C90.8324026,34.4198536 89.796247,35.6802254 88.8186313,36.7448873 C87.9698033,37.7293081 87.0058469,38.6002172 86.086771,39.5141825 C85.5072264,40.038685 85.0447615,40.729541 84.3286238,41.0739904 C83.3802781,41.3636411 82.3714411,41.1816308 81.4074847,41.0798617 C81.4133387,33.4373899 81.4309006,25.7968752 81.4016307,18.1563605 C81.6045689,18.0663339 81.8094584,17.9821787 82.0162992,17.8999805 L82.0162992,17.8999805 Z" id="Shape" fill="#FFFFFF"></path>
                    <path d="M32.157898,32.4059987 C33.3950405,32.5429956 34.8429264,32.7798046 35.5922366,33.8992653 C36.0293343,34.5431509 35.7756615,35.316205 35.5551614,35.98749 C35.0517186,36.2086422 34.5365678,36.4297943 33.9804391,36.463065 C33.4418723,36.5941907 33.0750225,36.0892591 32.608655,35.9229057 C32.5032832,35.8739782 32.2905884,35.7780804 32.1832653,35.7291529 C32.0856989,34.6233919 32.1325307,33.5137168 32.157898,32.4059987 L32.157898,32.4059987 Z" id="Shape" fill="#FFFFFF"></path>
                    <path d="M35.9785997,39.1208055 C36.6361975,38.6471876 37.1220784,37.9798168 37.7289416,37.4455288 C37.8108974,38.9348811 37.9123665,40.4418474 38.408004,41.8607442 C36.4410647,43.1446012 34.4877846,44.5419699 32.1949733,45.1819413 C32.0720396,43.240499 32.1422874,41.2892713 32.1618007,39.3458719 C33.428213,39.3576145 34.8117051,39.8312325 35.9785997,39.1208055 L35.9785997,39.1208055 Z" id="Shape" fill="#FFFFFF"></path>
                    <path d="M19.1386325,12.3437763 C19.4430398,13.2362135 19.3923052,14.2167201 19.1581458,15.1208999 C19.0625307,14.1991062 19.087898,13.2675271 19.1386325,12.3437763 L19.1386325,12.3437763 Z" id="Shape" fill="#440000"></path>
                    <path d="M19.1893671,15.6356169 C19.7669604,15.9233105 19.4586504,16.7668202 19.3357167,17.258052 C19.2596149,16.7198498 19.2166857,16.1777334 19.1893671,15.6356169 L19.1893671,15.6356169 Z" id="Shape" fill="#3D0100"></path>
                    <path d="M68.9716665,15.9859377 L69.0477683,15.8411123 C69.7112201,15.9409244 70.3766232,16.0407364 71.0361723,16.1679479 C72.7065097,16.6219948 74.3300152,17.3500357 75.6510648,18.4871102 C77.1848092,19.8198947 78.3926817,21.7124095 78.3751198,23.8065055 C78.4843942,25.8986443 77.3682341,27.8714002 75.8266844,29.212013 C75.1066441,29.8989548 74.2187895,30.3530018 73.3777668,30.8638046 C73.2802004,31.1123562 73.5455811,31.3315513 73.6255856,31.5546606 C74.5056348,33.0694553 75.3993434,34.5803357 76.2520741,36.1107872 C74.8783386,35.3573041 73.5416784,34.5392367 72.173797,33.7720538 C71.319115,33.2729936 70.4624816,32.7700191 69.6058483,32.272916 C69.3521756,32.1143909 69.0516709,32.0791632 68.7648256,32.0400212 C68.3296793,31.9656514 67.894533,31.8893245 67.4593867,31.8364829 C67.4320681,29.8402418 67.4535327,27.8420437 67.4379221,25.8438456 C67.2642538,25.7655616 67.0905855,25.6872777 66.9188686,25.6089937 C67.0613156,25.6324789 67.3462096,25.6833635 67.4886566,25.7088057 C68.4311484,25.6226934 69.2877817,24.7870121 69.158994,23.7986771 C69.1180161,22.8925402 68.2750421,22.3093247 67.4574353,22.1488426 C67.4398734,20.8415004 67.4476787,19.5341582 67.4476787,18.2287732 C68.0447853,17.5477027 68.5560334,16.7922625 68.9716665,15.9859377 L68.9716665,15.9859377 Z M71.0069024,23.4444421 C70.6732251,23.5422971 70.6712738,24.4777904 71.0478803,24.5228037 C71.2410618,25.6422644 72.8645673,26.0395555 73.6665635,25.2860723 C74.5231968,24.6421868 74.4997808,23.184148 73.6099749,22.5794044 C72.7748062,21.8533206 71.159106,22.3132389 71.0069024,23.4444421 L71.0069024,23.4444421 Z" id="Shape" fill="#FBD133"></path>
                    <path d="M44.2151584,45.2308688 C44.3498001,45.2191262 44.6210348,45.195641 44.7576278,45.1838984 C47.53632,46.5773529 50.2818396,48.0373488 53.0468724,49.4582027 C54.0303421,50.0061905 55.1562588,50.4132671 55.8704451,51.3350607 C57.2832072,53.1042783 58.0091015,55.292315 58.6979205,57.4177246 C59.917501,61.337794 60.5809528,65.3987745 61.5780818,69.3736427 C62.3098301,72.2995058 62.9635252,75.2449398 63.6640522,78.1786313 C63.7167381,79.1121676 63.9196763,80.0280899 64.0191941,80.9557549 C64.1109065,81.6994525 64.0757826,82.4588069 64.2240836,83.1966333 C64.1050525,84.8582104 64.054318,86.5374014 63.5801451,88.1480939 C62.903034,90.5494544 62.0073741,92.8803594 61.2639178,95.2601918 L61.19367,95.2778057 C60.6512006,95.440245 60.0833639,95.4911295 59.5194299,95.4754727 C50.6721053,95.4363308 41.8228294,95.4891724 32.9755048,95.4559018 C32.6730488,95.440245 32.3901061,95.5498425 32.1266768,95.6829252 L32.0603316,95.7122817 L32.0681369,95.4461163 C32.0993582,85.9522288 32.0739909,76.4563842 32.0817962,66.9605396 L32.157898,66.8294139 C33.0223367,65.4320452 33.7735982,63.9700922 34.5873023,62.5414099 C37.8011408,56.7757961 41.0266872,51.0121394 44.2151584,45.2308688 L44.2151584,45.2308688 Z M50.8282116,72.9199062 C50.4574592,74.5247274 50.6135655,76.1882616 50.5764902,77.8204822 C50.5960035,83.5195546 50.5355123,89.2186271 50.6057601,94.9157424 C51.6341104,92.4693686 52.5687969,89.9760244 53.370793,87.4435382 L53.6049525,87.6451194 C53.5834878,86.4532461 53.6947136,85.2555015 53.5717799,84.0694995 L53.3259124,84.2593381 C52.8653989,80.5682493 52.077062,76.9300021 51.2184774,73.3132831 C51.2048181,73.0608173 51.0760304,72.9296917 50.8282116,72.9199062 L50.8282116,72.9199062 Z" id="Shape" fill="#4A4A4A"></path>
                    <path d="M92.1827221,17.2404381 C91.7651377,17.0466853 91.956368,16.5358825 92.0480804,16.2012185 C92.211992,16.4889121 92.3583417,16.9390449 92.1827221,17.2404381 L92.1827221,17.2404381 Z" id="Shape" fill="#4E0200"></path>
                    <path d="M58.6940179,23.1371776 C61.9781042,22.3465096 65.199748,20.8238865 67.4476787,18.2287732 C67.4476787,19.5341582 67.4398734,20.8415004 67.4574353,22.1488426 C66.8095942,22.3054105 66.0973592,22.591147 65.8573458,23.2761316 C65.4436641,24.1842256 65.9841821,25.3095575 66.9188686,25.6089937 C67.0905855,25.6872777 67.2642538,25.7655616 67.4379221,25.8438456 C67.4535327,27.8420437 67.4320681,29.8402418 67.4593867,31.8364829 C66.9013066,31.7953838 66.3002974,31.7053572 65.8027086,32.0282786 C63.0279191,31.740585 60.2433729,30.6074247 58.3466813,28.5055003 C57.4354108,27.5210795 56.7934237,26.2763645 56.5865828,24.9455371 C56.8851361,24.5541173 56.8987954,23.9983012 56.5573129,23.6284094 L56.492919,23.4522705 C56.7856183,23.422914 57.0783177,23.3916005 57.371017,23.3583298 C57.4451675,23.6890795 57.8822651,23.6655943 57.917389,23.3250591 C58.0247121,23.2917884 58.2393583,23.2232899 58.3466813,23.1900193 C58.475469,23.4698844 58.5905974,23.4542276 58.6940179,23.1371776 L58.6940179,23.1371776 Z M62.0561573,22.2251694 C60.8190149,22.3680377 60.1165365,23.9983012 60.9165813,24.9807649 C61.6034491,25.9867138 63.2523219,25.8595024 63.8123532,24.7889692 C64.5714201,23.6244953 63.3889149,21.959004 62.0561573,22.2251694 L62.0561573,22.2251694 Z" id="Shape" fill="#EBBD0E"></path>
                    <path d="M19.7689117,19.8394657 C19.9289207,19.8570796 20.2469872,19.8903503 20.4050449,19.9060071 C20.2391819,21.0606955 20.6411557,22.1801562 20.8518992,23.2996168 C20.5260273,23.3094023 20.364067,23.0295371 20.215766,22.7907711 C20.1884474,22.4502358 20.1728368,22.1097006 20.1318588,21.7711224 C20.0147791,21.1252798 19.8586728,20.4892226 19.7689117,19.8394657 L19.7689117,19.8394657 Z" id="Shape" fill="#3C0801"></path>
                    <path d="M43.8717246,20.6477476 C43.9946583,20.73386 44.1214947,20.8180152 44.2502824,20.8982563 C44.2034505,21.2074779 44.1566186,21.5186567 44.1136893,21.8278783 C43.986853,22.9923523 43.8541626,24.1568262 43.7878174,25.3271714 C43.4151137,26.0865259 42.9702107,26.8067383 42.5604317,27.5465218 C42.9526487,25.239102 43.5146314,22.9610387 43.8717246,20.6477476 L43.8717246,20.6477476 Z" id="Shape" fill="#511B00"></path>
                    <path d="M92.0597884,22.5657047 C91.9368547,21.9883604 91.6402527,21.05091 92.2568726,20.6927609 C92.2315053,21.3209897 92.1671115,21.9472614 92.0597884,22.5657047 L92.0597884,22.5657047 Z" id="Shape" fill="#4F0200"></path>
                    <path d="M44.2502824,20.8982563 C44.5468843,21.0685239 44.8512916,21.2309631 45.1596016,21.3855739 C44.812265,21.5343135 44.4629772,21.6810959 44.1136893,21.8278783 C44.1566186,21.5186567 44.2034505,21.2074779 44.2502824,20.8982563 L44.2502824,20.8982563 Z" id="Shape" fill="#F9F8F5"></path>
                    <path d="M18.1376009,22.2349549 C18.2351673,21.9276904 18.4342028,21.6262971 18.7347075,21.4912573 C19.224491,21.3836168 19.6635399,21.6810959 20.1318588,21.7711224 C20.1728368,22.1097006 20.1884474,22.4502358 20.215766,22.7907711 C20.4265095,24.9807649 20.6353017,27.1746729 20.9572709,29.3509671 C20.494806,29.4370794 20.0342924,29.2061417 19.8333055,28.7814513 C19.4469425,27.9731693 19.2752255,27.0709467 18.7698314,26.3194206 C17.942468,25.1549467 17.7161138,23.5970959 18.1376009,22.2349549 L18.1376009,22.2349549 Z" id="Shape" fill="#F8F6F3"></path>
                    <path d="M28.7079488,33.7935819 C29.5157989,32.7504481 30.9324636,32.5371243 32.157898,32.4059987 C32.1325307,33.5137168 32.0856989,34.6233919 32.1832653,35.7291529 C32.2905884,35.7780804 32.5032832,35.8739782 32.608655,35.9229057 C31.9276412,35.8172223 31.2758974,36.0011897 30.7353793,36.4180518 C30.0680249,36.5922336 29.3831085,36.2340844 28.7469753,36.0422887 C28.4172008,35.3416473 28.1967006,34.4707382 28.7079488,33.7935819 L28.7079488,33.7935819 Z" id="Shape" fill="#F8F6F3"></path>
                    <path d="M44.1136893,21.8278783 C44.4629772,21.6810959 44.812265,21.5343135 45.1596016,21.3855739 C45.3976637,21.5029999 45.6357258,21.6165116 45.8757392,21.7339376 C45.2649733,22.9766955 44.568349,24.1822685 43.7878174,25.3271714 C43.8541626,24.1568262 43.986853,22.9923523 44.1136893,21.8278783 L44.1136893,21.8278783 Z" id="Shape" fill="#F9C193"></path>
                    <path d="M43.4521889,28.2491203 C43.9185565,27.9575126 44.396632,27.6854758 44.8766589,27.413439 C44.7225039,27.967298 44.6073755,28.5622562 44.2405257,29.0241315 C44.0102689,29.3372674 43.6004899,29.3333532 43.2551047,29.3920662 C43.3155959,29.0084747 43.3838924,28.6287975 43.4521889,28.2491203 L43.4521889,28.2491203 Z" id="Shape" fill="#F9C193"></path>
                    <path d="M20.215766,22.7907711 C20.364067,23.0295371 20.5260273,23.3094023 20.8518992,23.2996168 C21.0958153,24.448434 21.3143641,25.6031224 21.5504749,26.7558537 C21.8275635,28.1179947 21.8509795,29.5584196 22.4871127,30.8246627 C23.1271485,32.2396453 24.2647732,33.3238782 25.3965439,34.347441 C26.1243895,35.0245972 27.0629786,35.3886177 27.9742491,35.7389384 C27.7908242,34.9423991 27.5117842,34.0891039 27.8415588,33.2906075 C28.2103599,32.4020845 29.1060198,31.89911 29.908016,31.4587628 C30.8524591,31.0223297 31.9139819,30.4802132 32.9637968,30.8970753 C34.15801,31.3354655 35.3990551,31.8834532 36.1951972,32.9207157 C36.7805959,33.7661825 36.4683833,34.823016 36.2810557,35.7428526 C37.2215962,35.3729609 38.1992119,34.9913265 38.9348628,34.269157 C39.8207661,33.4041192 40.7769172,32.5762663 41.4032937,31.4881192 C41.8950285,30.6954941 42.1740686,29.7971857 42.3496881,28.8871346 C42.7262946,28.6914247 43.0911931,28.4722296 43.4521889,28.2491203 C43.3838924,28.6287975 43.3155959,29.0084747 43.2551047,29.3920662 C43.138025,30.1103215 43.2160781,30.8853327 42.853131,31.5448751 C41.6179399,33.8796943 39.5729473,35.6097698 37.7289416,37.4455288 C37.1220784,37.9798168 36.6361975,38.6471876 35.9785997,39.1208055 C34.8117051,39.8312325 33.428213,39.3576145 32.1618007,39.3458719 C30.899291,39.3458719 29.5450688,39.8194899 28.3567096,39.1873469 C27.6600852,38.7665706 27.1859123,38.0757146 26.5907571,37.5355553 C24.750654,35.6880538 22.6939535,33.9716779 21.4216872,31.6525156 C21.0119081,30.9557883 21.0938639,30.120107 20.9572709,29.3509671 C20.6353017,27.1746729 20.4265095,24.9807649 20.215766,22.7907711 L20.215766,22.7907711 Z M28.7079488,33.7935819 C28.1967006,34.4707382 28.4172008,35.3416473 28.7469753,36.0422887 C29.3831085,36.2340844 30.0680249,36.5922336 30.7353793,36.4180518 C31.2758974,36.0011897 31.9276412,35.8172223 32.608655,35.9229057 C33.0750225,36.0892591 33.4418723,36.5941907 33.9804391,36.463065 C34.5365678,36.4297943 35.0517186,36.2086422 35.5551614,35.98749 C35.7756615,35.316205 36.0293343,34.5431509 35.5922366,33.8992653 C34.8429264,32.7798046 33.3950405,32.5429956 32.157898,32.4059987 C30.9324636,32.5371243 29.5157989,32.7504481 28.7079488,33.7935819 L28.7079488,33.7935819 Z" id="Shape" fill="#222222"></path>
                    <path d="M58.3466813,23.1900193 C58.4344911,23.1763196 58.6062081,23.1508773 58.6940179,23.1371776 C58.5905974,23.4542276 58.475469,23.4698844 58.3466813,23.1900193 L58.3466813,23.1900193 Z" id="Shape" fill="#000030"></path>
                    <path d="M57.371017,23.3583298 C57.50761,23.3505014 57.780796,23.3348446 57.917389,23.3250591 C57.8822651,23.6655943 57.4451675,23.6890795 57.371017,23.3583298 L57.371017,23.3583298 Z" id="Shape" fill="#000737"></path>
                    <path d="M71.0478803,24.5228037 C70.6712738,24.4777904 70.6732251,23.5422971 71.0069024,23.4444421 C71.040075,23.8025913 71.0537343,24.1626975 71.0478803,24.5228037 L71.0478803,24.5228037 Z" id="Shape" fill="#4A4A4A"></path>
                    <path d="M56.5573129,23.6284094 C56.8987954,23.9983012 56.8851361,24.5541173 56.5865828,24.9455371 C56.4831624,24.5130182 56.4851137,24.0648425 56.5573129,23.6284094 L56.5573129,23.6284094 Z" id="Shape" fill="#00002D"></path>
                    <path d="M76.7613709,39.4769976 C77.2550571,39.9975859 77.6258095,40.6747422 78.3107259,40.9780925 C79.278585,41.4673673 80.3771831,41.0720333 81.4074847,41.1385747 C81.3645554,42.7414388 81.5421264,44.3599597 81.3157722,45.9510812 C79.4620099,45.3287237 77.723376,44.3521313 76.2149988,43.1093734 C76.6501451,41.9507708 76.7399063,40.7021416 76.7613709,39.4769976 L76.7613709,39.4769976 Z" id="Shape" fill="#F8F6F3"></path>
                    <path d="M84.3286238,41.0739904 C85.0447615,40.729541 85.5072264,40.038685 86.086771,39.5141825 C86.1277489,40.7432407 86.2428773,41.974256 86.6175325,43.1485154 C85.0213455,44.3129893 83.3178355,45.3404663 81.4504139,46.0039229 L81.3996794,46.0391507 L81.2357677,46.1565766 L81.3157722,45.9510812 C81.5421264,44.3599597 81.3645554,42.7414388 81.4074847,41.1385747 L81.4074847,41.0798617 C82.3714411,41.1816308 83.3802781,41.3636411 84.3286238,41.0739904 L84.3286238,41.0739904 Z" id="Shape" fill="#F8F6F3"></path>
                    <path d="M23.5291222,43.0643601 C24.3194104,42.6494551 25.1155525,42.2462927 25.913646,41.8450874 C27.7791163,43.2874694 29.8553301,44.4480292 32.0700882,45.254354 C31.3363886,46.0685072 30.620251,46.8963601 29.9236266,47.7418269 C29.2055376,48.6068646 28.4406167,49.4327604 27.6971605,50.2762701 C26.7878413,48.7027625 25.8316902,47.1527401 24.9418843,45.5655327 C24.4638087,44.7357227 23.9096313,43.9470118 23.5291222,43.0643601 L23.5291222,43.0643601 Z" id="Shape" fill="#F1F1F1"></path>
                    <path d="M32.1949733,45.1819413 C34.4877846,44.5419699 36.4410647,43.1446012 38.408004,41.8607442 C39.1475576,42.2834776 39.9085759,42.667069 40.6793507,43.0310894 C40.0978548,44.4715144 39.1514603,45.7181864 38.4216633,47.0822845 C37.7679682,48.1273754 37.2313528,49.2429218 36.5152151,50.2488708 C35.7444403,49.4366746 35.0458646,48.5598943 34.312165,47.7163846 C33.6194433,46.9276737 32.9345269,46.1311343 32.2418052,45.3424234 L32.1949733,45.1819413 L32.1949733,45.1819413 Z" id="Shape" fill="#FFFFFF"></path>
                    <path d="M19.4879204,45.1662845 C20.8109213,44.4225869 22.210024,43.8178433 23.5291222,43.0643601 C23.9096313,43.9470118 24.4638087,44.7357227 24.9418843,45.5655327 C25.8316902,47.1527401 26.7878413,48.7027625 27.6971605,50.2762701 C28.4406167,49.4327604 29.2055376,48.6068646 29.9236266,47.7418269 C30.306087,48.375927 30.6631802,49.0276409 31.0339326,49.6695694 C31.1861363,49.9533488 31.3949285,50.2449566 31.2993134,50.5854918 C30.870021,53.532883 30.4095074,56.4744028 29.9587505,59.4178798 C29.8202062,60.4394855 29.6036087,61.4532628 29.5840954,62.4905253 C26.5946597,57.0086909 23.5096089,51.5816552 20.50066,46.1115634 C20.2547926,45.6986155 20.0908809,45.0899577 19.4879204,45.1662845 L19.4879204,45.1662845 Z" id="Shape" fill="#DBDBDB"></path>
                    <path d="M71.0361723,45.8316982 C72.1035491,45.2758821 73.1728773,44.7259372 74.2441568,44.1759924 C75.2588477,46.2661742 76.5701407,48.199788 77.711668,50.2234285 C78.3419472,49.5345296 78.9663724,48.8397594 79.551771,48.1136757 C79.9830147,49.00807 80.9196525,49.8437512 80.6484178,50.9221128 C80.3557185,52.6972017 80.0981431,54.4781618 79.824957,56.2552077 C77.3779908,53.3645724 74.9856617,50.4269668 72.5601601,47.5167605 C72.0859872,46.9257166 71.6235223,46.3170588 71.0361723,45.8316982 L71.0361723,45.8316982 Z" id="Shape" fill="#DBDBDB"></path>
                    <path d="M40.6793507,43.0310894 C42.0491835,43.7297738 43.3819411,44.4949995 44.7576278,45.1838984 C44.6210348,45.195641 44.3498001,45.2191262 44.2151584,45.2308688 C41.0266872,51.0121394 37.8011408,56.7757961 34.5873023,62.5414099 L34.6751121,62.3515713 C34.1736206,58.3532179 33.4477263,54.384221 32.9169649,50.391739 C33.1999076,49.4386317 33.8536027,48.6049075 34.312165,47.7163846 C35.0458646,48.5598943 35.7444403,49.4366746 36.5152151,50.2488708 C37.2313528,49.2429218 37.7679682,48.1273754 38.4216633,47.0822845 C39.1514603,45.7181864 40.0978548,44.4715144 40.6793507,43.0310894 L40.6793507,43.0310894 Z" id="Shape" fill="#F8F6F3"></path>
                    <path d="M88.6078878,44.1936063 C89.6635567,44.6867952 90.668491,45.2797963 91.6968412,45.827784 C90.8265486,46.6830363 90.1143136,47.6791997 89.3201228,48.6029504 C87.1873205,51.1510934 85.1033013,53.7383784 82.9568397,56.2728216 C82.6602377,54.2491812 82.3343658,52.229455 82.0319099,50.2077717 C82.418273,49.4973447 82.8065874,48.7888749 83.2261231,48.0980189 C83.819327,48.8182313 84.4515575,49.5071302 85.0642748,50.2097288 C86.2897092,48.2311016 87.4214799,46.1957186 88.6078878,44.1936063 L88.6078878,44.1936063 Z" id="Shape" fill="#F8F6F3"></path>
                    <path d="M74.2441568,44.1759924 C74.9154139,43.8491569 75.5710603,43.4890506 76.2149988,43.1093734 C77.723376,44.3521313 79.4620099,45.3287237 81.3157722,45.9510812 L81.2357677,46.1565766 C80.6503691,46.7887196 80.0669218,47.4228197 79.551771,48.1136757 C78.9663724,48.8397594 78.3419472,49.5345296 77.711668,50.2234285 C76.5701407,48.199788 75.2588477,46.2661742 74.2441568,44.1759924 L74.2441568,44.1759924 Z" id="Shape" fill="#F1F1F1"></path>
                    <path d="M81.4504139,46.0039229 C83.3178355,45.3404663 85.0213455,44.3129893 86.6175325,43.1485154 C87.2712276,43.5184071 87.9405334,43.8550281 88.6078878,44.1936063 C87.4214799,46.1957186 86.2897092,48.2311016 85.0642748,50.2097288 C84.4515575,49.5071302 83.819327,48.8182313 83.2261231,48.0980189 C82.6563351,47.3817206 82.0358125,46.7065215 81.4504139,46.0039229 L81.4504139,46.0039229 Z" id="Shape" fill="#FFFFFF"></path>
                    <path d="M11.3079502,49.3936185 C14.0359078,47.9845071 16.7599627,46.5714816 19.4879204,45.1662845 C20.0908809,45.0899577 20.2547926,45.6986155 20.50066,46.1115634 C23.5096089,51.5816552 26.5946597,57.0086909 29.5840954,62.4905253 C30.44268,63.9642209 31.2739461,65.4574875 32.0817962,66.9605396 C32.0739909,76.4563842 32.0993582,85.9522288 32.0681369,95.4461163 C23.0725113,95.4774298 14.0749344,95.4382879 5.07930877,95.4578588 C4.38658706,95.4598159 3.66654675,95.5263573 3.01285161,95.2406209 C2.19914752,92.9723431 1.39520007,90.6942798 0.735650944,88.3751174 C1.02639893,88.2733482 1.02835026,88.1676649 0.737602272,88.0619815 L0.470270232,88.0150112 L0.640035834,87.7821164 C0.833217382,87.6314197 0.813704094,87.2634851 0.532712752,87.2360857 L0.39416841,87.1852012 C0.396119739,87.0364616 0.398071068,86.7370255 0.400022396,86.5882859 C0.534664081,86.3456057 0.733699615,85.8602451 0.335628547,85.7643472 L0.122933712,85.699763 C0.138544342,85.5745086 0.167814274,85.3279142 0.183424904,85.2026598 C0.530761424,84.0499285 0.470270232,82.775857 0.183424904,81.6152973 C0.165862945,81.5409275 0.12683637,81.392188 0.107323082,81.3178182 C0.160008959,81.2669336 0.267332041,81.1612503 0.320017917,81.1084086 C0.682965067,80.8383289 0.554177369,80.364711 0.405876383,80.0183044 C0.333677219,79.4507457 0.571739328,78.883187 0.56783667,78.309757 C0.616619889,78.2862718 0.712234999,78.2353872 0.759066889,78.211902 C1.04200956,78.1453606 0.985421025,77.7950399 0.817606752,77.6423862 L0.663451779,77.3977488 L0.922978505,77.3488213 C1.25860705,77.3723065 1.1805539,76.9691441 0.971761724,76.8575895 L0.936637806,76.6834076 C1.4108107,74.3564169 2.07035982,72.0705252 2.53672739,69.7435344 L2.70454167,69.7024353 C3.00894895,69.7278776 3.00699762,69.242517 2.7201523,69.2307745 C3.06358616,67.6924946 3.36604212,66.1209441 3.80509109,64.617892 C4.26560468,64.2069012 4.38073307,63.5610585 4.1114497,63.0091566 C4.39244105,61.6215733 4.71636162,60.2379043 5.12418933,58.8816347 L5.23541507,58.8170504 C5.51055243,58.6624396 5.50664977,58.5508849 5.22565843,58.4863007 C5.9496014,56.0536265 6.70671696,53.5426685 8.25021801,51.4896716 C8.98391763,50.430881 10.2366707,50.0022763 11.3079502,49.3936185 L11.3079502,49.3936185 Z M12.9802389,73.3993954 C12.6563184,73.2115139 12.4982607,73.9395548 12.8787698,73.8553995 C12.8553539,73.9395548 12.8065707,74.1098224 12.7831547,74.1939777 C12.4514288,74.2389909 12.4338669,74.338803 12.7285175,74.4934138 C12.6270484,74.9239756 12.5333846,75.3564945 12.4377695,75.7909705 C12.0748224,75.6285313 11.9050568,76.432899 12.3089818,76.3917999 C12.0631144,77.479947 11.8523709,78.5759224 11.6260168,79.6699408 C11.2845342,79.4820593 11.1635519,80.2237998 11.5499149,80.1181165 C11.4464945,80.6269622 11.3645387,81.1397222 11.2630696,81.650525 C10.8767065,81.4978713 10.7927994,82.32181 11.1869678,82.2493973 C11.1342819,82.5625332 11.0757421,82.8776261 11.0367155,83.1946762 C10.6444984,83.1457487 10.5840072,83.9990439 10.9489057,84.0323146 C10.8006047,85.1596036 10.7108436,86.3162492 10.8786579,87.4454953 C11.4172246,89.3223533 12.1372649,91.1424554 12.8299866,92.9664718 C13.110978,93.6220999 13.3002568,94.3207843 13.6827173,94.927485 C13.7315005,88.5121143 13.6924739,82.0947865 13.7022306,75.6794158 C13.5831995,74.7400083 13.669058,73.7692872 13.3626994,72.8611932 C13.1441505,72.9570911 12.9978009,73.1567152 12.9802389,73.3993954 L12.9802389,73.3993954 Z" id="Shape" fill="#222222"></path>
                    <path d="M81.2357677,46.1565766 L81.3996794,46.0391507 C81.3704094,49.0002416 81.4055333,51.9613324 81.391874,54.9224233 C81.3704094,55.9538145 81.4718785,56.9930341 81.272843,58.0126827 C80.7850108,57.4294672 80.3069352,56.8423375 79.824957,56.2552077 C80.0981431,54.4781618 80.3557185,52.6972017 80.6484178,50.9221128 C80.9196525,49.8437512 79.9830147,49.00807 79.551771,48.1136757 C80.0669218,47.4228197 80.6503691,46.7887196 81.2357677,46.1565766 L81.2357677,46.1565766 Z" id="Shape" fill="#222222"></path>
                    <path d="M81.3996794,46.0391507 L81.4504139,46.0039229 C82.0358125,46.7065215 82.6563351,47.3817206 83.2261231,48.0980189 C82.8065874,48.7888749 82.418273,49.4973447 82.0319099,50.2077717 C82.3343658,52.229455 82.6602377,54.2491812 82.9568397,56.2728216 C82.4202243,56.9030075 81.9011708,57.5468931 81.3762634,58.1849074 C81.3489448,58.1418512 81.2982103,58.0557389 81.272843,58.0126827 C81.4718785,56.9930341 81.3704094,55.9538145 81.391874,54.9224233 C81.4055333,51.9613324 81.3704094,49.0002416 81.3996794,46.0391507 L81.3996794,46.0391507 Z" id="Shape" fill="#4A4A4A"></path>
                    <path d="M5.22565843,58.4863007 C5.53423424,58.5508849 5.53852002,58.6624396 5.23637287,58.8170504 C5.23422998,58.7328951 5.22780132,58.5684988 5.22565843,58.4863007 L5.22565843,58.4863007 Z" id="Shape" fill="#000038"></path>
                    <path d="M80.5118248,62.7625621 C80.3771831,62.2028318 80.8884312,61.7350851 81.41529,61.7096428 C81.4796838,62.3006867 81.2396704,63.0306847 81.7314052,63.4886458 C81.6357901,63.4964742 81.4445599,63.512131 81.3489448,63.5199594 C80.9528251,63.4592894 80.5235327,63.2087807 80.5118248,62.7625621 L80.5118248,62.7625621 Z" id="Shape" fill="#4A4A4A"></path>
                    <path d="M81.41529,61.7096428 C81.4991971,61.7272567 81.6670114,61.7605274 81.7509185,61.7781413 C82.4377863,62.1186765 82.4358349,63.1637674 81.7314052,63.4886458 C81.2396704,63.0306847 81.4796838,62.3006867 81.41529,61.7096428 L81.41529,61.7096428 Z" id="Shape" fill="#4A4A4A"></path>
                    <path d="M4.1114497,63.0091566 C4.38073307,63.5610585 4.26560468,64.2069012 3.80509109,64.617892 C3.88119291,64.0757756 3.99632131,63.5414875 4.1114497,63.0091566 L4.1114497,63.0091566 Z" id="Shape" fill="#041044"></path>
                    <path d="M80.5020681,67.6396529 C80.4376743,67.1308072 80.8864799,66.7667867 81.3469935,66.7022025 C81.4523652,66.7256877 81.6650601,66.772658 81.7723831,66.7961432 C81.6923787,66.8333281 81.5362724,66.9057408 81.4562679,66.9429257 C81.4191926,67.4713424 81.4191926,68.0017163 81.4055333,68.530133 C80.964533,68.4675058 80.4669442,68.1406703 80.5020681,67.6396529 L80.5020681,67.6396529 Z" id="Shape" fill="#4A4A4A"></path>
                    <path d="M81.4562679,66.9429257 C81.5362724,66.9057408 81.6923787,66.8333281 81.7723831,66.7961432 C82.4651049,67.0564374 82.4163216,68.15437 81.7626265,68.4381493 C81.6728654,68.4616345 81.4952945,68.5086049 81.4055333,68.530133 C81.4191926,68.0017163 81.4191926,67.4713424 81.4562679,66.9429257 L81.4562679,66.9429257 Z" id="Shape" fill="#4A4A4A"></path>
                    <path d="M2.72048268,69.2307745 C3.01339873,69.242517 3.01539135,69.7278776 2.70454167,69.7024353 C2.70852692,69.5850094 2.71649742,69.3501575 2.72048268,69.2307745 L2.72048268,69.2307745 Z" id="Shape" fill="#00033F"></path>
                    <path d="M80.9567277,73.4033096 C80.139121,72.9649194 80.5059708,71.6791054 81.4113873,71.6536631 C81.4367546,72.2270931 81.4445599,72.8005231 81.409436,73.3739531 C81.2962589,73.3817815 81.0699048,73.3974383 80.9567277,73.4033096 L80.9567277,73.4033096 Z" id="Shape" fill="#4A4A4A"></path>
                    <path d="M81.4113873,71.6536631 C81.4972458,71.6810625 81.6689627,71.7378183 81.7528699,71.7652177 C82.56072,72.146852 82.3675384,73.4228806 81.4640732,73.5266069 C81.2923563,73.489422 81.1225907,73.4483229 80.9567277,73.4033096 C81.0699048,73.3974383 81.2962589,73.3817815 81.409436,73.3739531 C81.4445599,72.8005231 81.4367546,72.2270931 81.4113873,71.6536631 L81.4113873,71.6536631 Z" id="Shape" fill="#4A4A4A"></path>
                    <path d="M12.8787698,73.8553995 C12.4982607,73.9395548 12.6563184,73.2115139 12.9802389,73.3993954 C12.9548717,73.5129072 12.9041371,73.7418878 12.8787698,73.8553995 L12.8787698,73.8553995 Z" id="Shape" fill="#000942"></path>
                    <path d="M12.7285175,74.4934138 C12.4338669,74.338803 12.4514288,74.2389909 12.7831547,74.1939777 C12.7694954,74.2703045 12.7421768,74.419044 12.7285175,74.4934138 L12.7285175,74.4934138 Z" id="Shape" fill="#000034"></path>
                    <path d="M12.3089818,76.3917999 C11.9050568,76.432899 12.0748224,75.6285313 12.4377695,75.7909705 C12.4045969,75.9925517 12.3616677,76.1921758 12.3089818,76.3917999 L12.3089818,76.3917999 Z" id="Shape" fill="#000B46"></path>
                    <path d="M80.9723384,76.7597345 C81.1460066,76.7205925 81.3196749,76.691236 81.4972458,76.6657938 C81.9304408,76.7753913 82.3636358,77.1217978 82.2621667,77.6247723 C82.3304632,78.1864597 81.7431132,78.3880409 81.3450422,78.587665 C81.2630863,78.5387375 81.0991747,78.4428397 81.0172189,78.3939122 C81.1108827,78.3978264 81.3021129,78.4076119 81.397728,78.4115261 C81.4406573,77.8772381 81.4484626,77.3390358 81.4250466,76.8027907 C81.3118696,76.7930052 81.0855154,76.76952 80.9723384,76.7597345 L80.9723384,76.7597345 Z" id="Shape" fill="#4A4A4A"></path>
                    <path d="M0.972981141,76.8575895 C1.18699242,76.9691441 1.26699664,77.3723065 0.922978505,77.3488213 C0.934979138,77.2255241 0.960980508,76.9808867 0.972981141,76.8575895 L0.972981141,76.8575895 Z" id="Shape" fill="#000245"></path>
                    <path d="M81.0172189,78.3939122 C80.3244972,78.1238325 80.3537671,77.0943984 80.9723384,76.7597345 C81.0855154,76.76952 81.3118696,76.7930052 81.4250466,76.8027907 C81.4484626,77.3390358 81.4406573,77.8772381 81.397728,78.4115261 C81.3021129,78.4076119 81.1108827,78.3978264 81.0172189,78.3939122 L81.0172189,78.3939122 Z" id="Shape" fill="#4A4A4A"></path>
                    <path d="M0.828265984,77.6423862 C1.02663672,77.7950399 1.09352918,78.1453606 0.759066889,78.211902 C0.777519981,78.0690338 0.812119528,77.7852544 0.828265984,77.6423862 L0.828265984,77.6423862 Z" id="Shape" fill="#000039"></path>
                    <path d="M11.5499149,80.1181165 C11.1635519,80.2237998 11.2845342,79.4820593 11.6260168,79.6699408 C11.6084548,79.7814954 11.5694282,80.0046047 11.5499149,80.1181165 L11.5499149,80.1181165 Z" id="Shape" fill="#00023C"></path>
                    <path d="M0.405876383,80.0183044 C0.554177369,80.364711 0.682965067,80.8383289 0.320017917,81.1084086 C0.175619589,80.7815731 0.232208123,80.325569 0.405876383,80.0183044 L0.405876383,80.0183044 Z" id="Shape" fill="#000B48"></path>
                    <path d="M11.1869678,82.2493973 C10.7927994,82.32181 10.8767065,81.4978713 11.2630696,81.650525 C11.247459,81.8501491 11.2220917,82.0497732 11.1869678,82.2493973 L11.1869678,82.2493973 Z" id="Shape" fill="#000547"></path>
                    <path d="M0.183424904,81.6152973 C0.470270232,82.775857 0.530761424,84.0499285 0.183424904,85.2026598 C0.0819558081,84.0127436 0.0878097943,82.8052135 0.183424904,81.6152973 L0.183424904,81.6152973 Z" id="Shape" fill="#000134"></path>
                    <path d="M80.5137761,82.7093156 C80.3713291,82.1476282 80.8962365,81.709238 81.403582,81.6446537 C81.4172413,82.1691563 81.421144,82.697573 81.4582192,83.2220756 C81.5382237,83.2612176 81.69433,83.3414586 81.7743345,83.3806006 C81.6689627,83.4040858 81.4582192,83.4530133 81.3508961,83.4764985 C80.9508737,83.408 80.5254841,83.1692339 80.5137761,82.7093156 L80.5137761,82.7093156 Z" id="Shape" fill="#4A4A4A"></path>
                    <path d="M81.403582,81.6446537 C81.4933431,81.6681389 81.6709141,81.7111951 81.7606752,81.7346803 C82.400711,82.0341165 82.4729102,83.1085638 81.7743345,83.3806006 C81.69433,83.3414586 81.5382237,83.2612176 81.4582192,83.2220756 C81.421144,82.697573 81.4172413,82.1691563 81.403582,81.6446537 L81.403582,81.6446537 Z" id="Shape" fill="#4A4A4A"></path>
                    <path d="M10.9489057,84.0323146 C10.5840072,83.9990439 10.6444984,83.1457487 11.0367155,83.1946762 C11.0132995,83.4725843 10.9859809,83.7524494 10.9489057,84.0323146 L10.9489057,84.0323146 Z" id="Shape" fill="#000440"></path>
                    <path d="M53.3259124,84.2593381 L53.5717799,84.0694995 C53.6947136,85.2555015 53.5834878,86.4532461 53.6049525,87.6451194 L53.370793,87.4435382 C53.4605541,86.3847476 53.4449435,85.3161716 53.3259124,84.2593381 L53.3259124,84.2593381 Z" id="Shape" fill="#00407B"></path>
                    <path d="M0.335628547,85.7643472 C0.733699615,85.8602451 0.534664081,86.3456057 0.400022396,86.5882859 C0.226354137,86.3769192 0.154154972,85.9854994 0.335628547,85.7643472 L0.335628547,85.7643472 Z" id="Shape" fill="#000949"></path>
                    <path d="M0.532712752,87.2360857 C0.813704094,87.2634851 0.833217382,87.6314197 0.640035834,87.7821164 C0.612717232,87.6451194 0.560031355,87.3730827 0.532712752,87.2360857 L0.532712752,87.2360857 Z" id="Shape" fill="#000741"></path>
                    <path d="M0.737739231,88.0619815 C1.04889403,88.1676649 1.04680574,88.2733482 0.735650944,88.3751174 C0.735650944,88.2968334 0.737739231,88.1402655 0.737739231,88.0619815 L0.737739231,88.0619815 Z" id="Shape" fill="#00003A"></path>
                    <path d="M3.01285161,95.2406209 C3.66654675,95.5263573 4.38658706,95.4598159 5.07930877,95.4578588 C14.0749344,95.4382879 23.0725113,95.4774298 32.0681369,95.4461163 L32.0603316,95.7122817 C22.5495552,95.7201101 13.0407301,95.7122817 3.52995373,95.7161959 C3.20017917,95.7553379 3.02846224,95.5968129 3.01285161,95.2406209 L3.01285161,95.2406209 Z" id="Shape" fill="#000948"></path>
                    <path d="M59.5194299,95.4754727 C60.0833639,95.4911295 60.6512006,95.440245 61.19367,95.2778057 C61.217086,95.8316648 60.6804705,95.7122817 60.3038641,95.7240243 C50.9121188,95.6868394 41.5164708,95.7690376 32.1266768,95.6829252 C32.3901061,95.5498425 32.6730488,95.440245 32.9755048,95.4559018 C41.8228294,95.4891724 50.6721053,95.4363308 59.5194299,95.4754727 L59.5194299,95.4754727 Z" id="Shape" fill="#004A7F"></path>
                </g>
            </g>
        </g>
    </g>
</svg>