<?xml version="1.0" encoding="UTF-8"?>
<svg width="400px" height="266px" viewBox="0 0 400 266" version="1.1" xmlns="http://www.w3.org/2000/svg" xmlns:xlink="http://www.w3.org/1999/xlink">
    <!-- Generator: Sketch 39 (31667) - http://www.bohemiancoding.com/sketch -->
    <title>SalaryBlock/Taxi</title>
    <desc>Created with Sketch.</desc>
    <defs></defs>
    <g id="Page-1" stroke="none" stroke-width="1" fill="none" fill-rule="evenodd">
        <g id="Главная" transform="translate(-919.000000, -1238.000000)">
            <g id="сколько-я-заработаю" transform="translate(0.000000, 1173.000000)">
                <g id="SalaryBlock/Taxi" transform="translate(1119.000000, 198.000000) scale(-1, 1) translate(-1119.000000, -198.000000) translate(919.000000, 65.000000)">
                    <polygon id="Fill-2" fill="#FDEDAD" points="296.376072 260.230788 333.947087 260.230788 333.947087 111.806432 296.376072 111.806432"></polygon>
                    <polygon id="Fill-3" fill="#FFFFFF" points="299.555059 124.114871 325.530141 124.114871 325.530141 121.717956 299.555059 121.717956"></polygon>
                    <polygon id="Fill-4" fill="#FFFFFF" points="299.555059 131.510837 325.530141 131.510837 325.530141 129.113922 299.555059 129.113922"></polygon>
                    <polygon id="Fill-5" fill="#FFFFFF" points="299.555059 138.938869 325.530141 138.938869 325.530141 136.541954 299.555059 136.541954"></polygon>
                    <polygon id="Fill-6" fill="#FFFFFF" points="299.555059 146.334835 325.530141 146.334835 325.530141 143.93792 299.555059 143.93792"></polygon>
                    <polygon id="Fill-7" fill="#FFFFFF" points="299.555059 160.025308 325.530141 160.025308 325.530141 157.628393 299.555059 157.628393"></polygon>
                    <polygon id="Fill-8" fill="#FFFFFF" points="299.555059 167.421275 325.530141 167.421275 325.530141 165.024359 299.555059 165.024359"></polygon>
                    <polygon id="Fill-9" fill="#FFFFFF" points="299.555059 174.849306 325.530141 174.849306 325.530141 172.452391 299.555059 172.452391"></polygon>
                    <polygon id="Fill-10" fill="#FFFFFF" points="299.555059 182.245272 325.530141 182.245272 325.530141 179.848357 299.555059 179.848357"></polygon>
                    <polygon id="Fill-11" fill="#FFFFFF" points="299.555059 195.934142 325.530141 195.934142 325.530141 193.537227 299.555059 193.537227"></polygon>
                    <polygon id="Fill-12" fill="#FFFFFF" points="299.555059 203.330108 325.530141 203.330108 325.530141 200.933193 299.555059 200.933193"></polygon>
                    <polygon id="Fill-13" fill="#FFFFFF" points="299.555059 210.75814 325.530141 210.75814 325.530141 208.361225 299.555059 208.361225"></polygon>
                    <polygon id="Fill-14" fill="#FFFFFF" points="299.555059 218.15571 325.530141 218.15571 325.530141 215.758795 299.555059 215.758795"></polygon>
                    <polygon id="Fill-15" fill="#EBBD0E" points="333.945484 260.230788 352.067635 260.230788 352.067635 101.93018 333.945484 101.93018"></polygon>
                    <polygon id="Fill-16" fill="#FBD133" points="310.580729 101.9305 352.067795 101.9305 333.947247 111.806752 292.521069 111.806752"></polygon>
                    <polygon id="Fill-17" fill="#A9A9A9" points="224.366562 260.654056 266.241387 260.654056 266.241387 72.8737973 224.366562 72.8737973"></polygon>
                    <polygon id="Fill-18" fill="#9B9B9B" points="224.366562 72.8737973 257.378999 72.8737973 257.378999 65.1571737 224.366562 65.1571737"></polygon>
                    <polygon id="Fill-19" fill="#A9A9A9" points="231.33662 65.158777 257.378999 65.158777 257.378999 57.4421534 231.33662 57.4421534"></polygon>
                    <g id="Group-172">
                        <path d="M303.695754,260.654377 L257.377717,260.654377 L257.377717,57.4424741 L279.441555,57.4424741 C292.836885,57.4424741 303.695754,68.3079546 303.695754,81.7098363 L303.695754,260.654377 L303.695754,260.654377 Z" id="Fill-20" fill="#DBDBDB"></path>
                        <polygon id="Fill-22" fill="#FFFFFF" points="263.355623 73.1688022 267.209184 73.1688022 267.209184 65.158777 263.355623 65.158777"></polygon>
                        <polygon id="Fill-24" fill="#FFFFFF" points="273.493452 73.1688022 277.347013 73.1688022 277.347013 65.158777 273.493452 65.158777"></polygon>
                        <polygon id="Fill-25" fill="#FFFFFF" points="263.355623 87.0869425 267.209184 87.0869425 267.209184 79.0769173 263.355623 79.0769173"></polygon>
                        <polygon id="Fill-26" fill="#FFFFFF" points="273.493452 87.0869425 277.347013 87.0869425 277.347013 79.0769173 273.493452 79.0769173"></polygon>
                        <polygon id="Fill-27" fill="#FFFFFF" points="283.189043 87.0869425 287.042603 87.0869425 287.042603 79.0769173 283.189043 79.0769173"></polygon>
                        <polygon id="Fill-28" fill="#FFFFFF" points="263.355623 101.93018 267.209184 101.93018 267.209184 93.9201545 263.355623 93.9201545"></polygon>
                        <polygon id="Fill-29" fill="#FFFFFF" points="273.493452 101.93018 277.347013 101.93018 277.347013 93.9201545 273.493452 93.9201545"></polygon>
                        <polygon id="Fill-30" fill="#FFFFFF" points="283.189043 101.93018 287.042603 101.93018 287.042603 93.9201545 283.189043 93.9201545"></polygon>
                        <polygon id="Fill-31" fill="#FFFFFF" points="292.520909 101.93018 296.374469 101.93018 296.374469 93.9201545 292.520909 93.9201545"></polygon>
                        <polygon id="Fill-32" fill="#FFFFFF" points="263.355623 130.611393 267.209184 130.611393 267.209184 122.601368 263.355623 122.601368"></polygon>
                        <polygon id="Fill-33" fill="#FFFFFF" points="273.493452 130.611393 277.347013 130.611393 277.347013 122.601368 273.493452 122.601368"></polygon>
                        <polygon id="Fill-34" fill="#FFFFFF" points="283.189043 130.611393 287.042603 130.611393 287.042603 122.601368 283.189043 122.601368"></polygon>
                        <polygon id="Fill-35" fill="#FFFFFF" points="292.520909 130.611393 296.374469 130.611393 296.374469 122.601368 292.520909 122.601368"></polygon>
                        <polygon id="Fill-36" fill="#FFFFFF" points="263.355623 144.627334 267.209184 144.627334 267.209184 136.617308 263.355623 136.617308"></polygon>
                        <polygon id="Fill-37" fill="#FFFFFF" points="273.493452 144.627334 277.347013 144.627334 277.347013 136.617308 273.493452 136.617308"></polygon>
                        <polygon id="Fill-38" fill="#FFFFFF" points="283.189043 144.627334 287.042603 144.627334 287.042603 136.617308 283.189043 136.617308"></polygon>
                        <polygon id="Fill-39" fill="#FFFFFF" points="292.520909 144.627334 296.374469 144.627334 296.374469 136.617308 292.520909 136.617308"></polygon>
                        <polygon id="Fill-40" fill="#FFFFFF" points="263.355623 159.178773 267.209184 159.178773 267.209184 151.168747 263.355623 151.168747"></polygon>
                        <polygon id="Fill-41" fill="#FFFFFF" points="273.493452 159.178773 277.347013 159.178773 277.347013 151.168747 273.493452 151.168747"></polygon>
                        <polygon id="Fill-42" fill="#FFFFFF" points="283.189043 159.178773 287.042603 159.178773 287.042603 151.168747 283.189043 151.168747"></polygon>
                        <polygon id="Fill-43" fill="#FFFFFF" points="292.520909 159.178773 296.374469 159.178773 296.374469 151.168747 292.520909 151.168747"></polygon>
                        <polygon id="Fill-44" fill="#FFFFFF" points="263.355623 173.196317 267.209184 173.196317 267.209184 165.186292 263.355623 165.186292"></polygon>
                        <polygon id="Fill-45" fill="#FFFFFF" points="273.493452 173.196317 277.347013 173.196317 277.347013 165.186292 273.493452 165.186292"></polygon>
                        <polygon id="Fill-46" fill="#FFFFFF" points="283.189043 173.196317 287.042603 173.196317 287.042603 165.186292 283.189043 165.186292"></polygon>
                        <polygon id="Fill-47" fill="#FFFFFF" points="292.520909 173.196317 296.374469 173.196317 296.374469 165.186292 292.520909 165.186292"></polygon>
                        <polygon id="Fill-48" fill="#FFFFFF" points="263.355623 200.162012 267.209184 200.162012 267.209184 192.151987 263.355623 192.151987"></polygon>
                        <polygon id="Fill-49" fill="#FFFFFF" points="273.493452 200.162012 277.347013 200.162012 277.347013 192.151987 273.493452 192.151987"></polygon>
                        <polygon id="Fill-50" fill="#FFFFFF" points="283.189043 200.162012 287.042603 200.162012 287.042603 192.151987 283.189043 192.151987"></polygon>
                        <polygon id="Fill-51" fill="#FFFFFF" points="292.520909 200.162012 296.374469 200.162012 296.374469 192.151987 292.520909 192.151987"></polygon>
                        <polygon id="Fill-52" fill="#FFFFFF" points="263.355623 214.177953 267.209184 214.177953 267.209184 206.167928 263.355623 206.167928"></polygon>
                        <polygon id="Fill-53" fill="#FFFFFF" points="273.493452 214.177953 277.347013 214.177953 277.347013 206.167928 273.493452 206.167928"></polygon>
                        <polygon id="Fill-54" fill="#FFFFFF" points="283.189043 214.177953 287.042603 214.177953 287.042603 206.167928 283.189043 206.167928"></polygon>
                        <polygon id="Fill-55" fill="#FFFFFF" points="292.520909 214.177953 296.374469 214.177953 296.374469 206.167928 292.520909 206.167928"></polygon>
                        <polygon id="Fill-56" fill="#FFFFFF" points="263.355623 229.423615 267.209184 229.423615 267.209184 221.41359 263.355623 221.41359"></polygon>
                        <polygon id="Fill-57" fill="#FFFFFF" points="273.493452 229.423615 277.347013 229.423615 277.347013 221.41359 273.493452 221.41359"></polygon>
                        <polygon id="Fill-58" fill="#FFFFFF" points="283.189043 229.423615 287.042603 229.423615 287.042603 221.41359 283.189043 221.41359"></polygon>
                        <polygon id="Fill-59" fill="#FFFFFF" points="292.520909 229.423615 296.374469 229.423615 296.374469 221.41359 292.520909 221.41359"></polygon>
                        <polygon id="Fill-60" fill="#FFFFFF" points="263.355623 243.439556 267.209184 243.439556 267.209184 235.429531 263.355623 235.429531"></polygon>
                        <polygon id="Fill-61" fill="#FFFFFF" points="273.493452 243.439556 277.347013 243.439556 277.347013 235.429531 273.493452 235.429531"></polygon>
                        <polygon id="Fill-62" fill="#FFFFFF" points="283.189043 243.439556 287.042603 243.439556 287.042603 235.429531 283.189043 235.429531"></polygon>
                        <polygon id="Fill-63" fill="#FFFFFF" points="292.520909 243.439556 296.374469 243.439556 296.374469 235.429531 292.520909 235.429531"></polygon>
                        <polygon id="Fill-64" fill="#A9A9A9" points="99.7611561 258.364561 137.119064 258.364561 137.119064 101.20389 99.7611561 101.20389"></polygon>
                        <polygon id="Fill-65" fill="#DBDBDB" points="132.37622 258.364561 186.845218 258.364561 186.845218 101.20389 132.37622 101.20389"></polygon>
                        <polygon id="Fill-66" fill="#FFFFFF" points="140.531988 110.275292 154.920751 110.275292 154.920751 108.216671 140.531988 108.216671"></polygon>
                        <polygon id="Fill-67" fill="#FFFFFF" points="140.531988 115.809841 154.920751 115.809841 154.920751 113.75122 140.531988 113.75122"></polygon>
                        <polygon id="Fill-68" fill="#FFFFFF" points="140.531988 121.342787 154.920751 121.342787 154.920751 119.284165 140.531988 119.284165"></polygon>
                        <polygon id="Fill-69" fill="#FFFFFF" points="140.531988 126.875733 154.920751 126.875733 154.920751 124.817111 140.531988 124.817111"></polygon>
                        <polygon id="Fill-70" fill="#FFFFFF" points="140.531988 132.408678 154.920751 132.408678 154.920751 130.350057 140.531988 130.350057"></polygon>
                        <polygon id="Fill-71" fill="#FFFFFF" points="140.531988 137.943227 154.920751 137.943227 154.920751 135.884606 140.531988 135.884606"></polygon>
                        <polygon id="Fill-72" fill="#FFFFFF" points="140.531988 143.476173 154.920751 143.476173 154.920751 141.417552 140.531988 141.417552"></polygon>
                        <polygon id="Fill-73" fill="#FFFFFF" points="140.531988 149.010722 154.920751 149.010722 154.920751 146.952101 140.531988 146.952101"></polygon>
                        <polygon id="Fill-74" fill="#FFFFFF" points="140.531988 154.543668 154.920751 154.543668 154.920751 152.485047 140.531988 152.485047"></polygon>
                        <polygon id="Fill-75" fill="#FFFFFF" points="140.531988 160.076614 154.920751 160.076614 154.920751 158.017992 140.531988 158.017992"></polygon>
                        <polygon id="Fill-76" fill="#FFFFFF" points="140.531988 165.611163 154.920751 165.611163 154.920751 163.552541 140.531988 163.552541"></polygon>
                        <polygon id="Fill-77" fill="#FFFFFF" points="140.531988 171.144108 154.920751 171.144108 154.920751 169.085487 140.531988 169.085487"></polygon>
                        <polygon id="Fill-78" fill="#FFFFFF" points="140.531988 176.677054 154.920751 176.677054 154.920751 174.618433 140.531988 174.618433"></polygon>
                        <polygon id="Fill-79" fill="#FFFFFF" points="140.531988 182.211603 154.920751 182.211603 154.920751 180.152982 140.531988 180.152982"></polygon>
                        <polygon id="Fill-80" fill="#FFFFFF" points="167.123961 110.275292 181.512724 110.275292 181.512724 108.216671 167.123961 108.216671"></polygon>
                        <polygon id="Fill-81" fill="#FFFFFF" points="167.123961 115.809841 181.512724 115.809841 181.512724 113.75122 167.123961 113.75122"></polygon>
                        <polygon id="Fill-82" fill="#FFFFFF" points="167.123961 121.342787 181.512724 121.342787 181.512724 119.284165 167.123961 119.284165"></polygon>
                        <polygon id="Fill-83" fill="#FFFFFF" points="167.123961 126.875733 181.512724 126.875733 181.512724 124.817111 167.123961 124.817111"></polygon>
                        <polygon id="Fill-84" fill="#FFFFFF" points="167.123961 132.408678 181.512724 132.408678 181.512724 130.350057 167.123961 130.350057"></polygon>
                        <polygon id="Fill-85" fill="#FFFFFF" points="167.123961 137.943227 181.512724 137.943227 181.512724 135.884606 167.123961 135.884606"></polygon>
                        <polygon id="Fill-86" fill="#FFFFFF" points="167.123961 143.476173 181.512724 143.476173 181.512724 141.417552 167.123961 141.417552"></polygon>
                        <polygon id="Fill-87" fill="#FFFFFF" points="167.123961 149.010722 181.512724 149.010722 181.512724 146.952101 167.123961 146.952101"></polygon>
                        <polygon id="Fill-88" fill="#FFFFFF" points="167.123961 154.543668 181.512724 154.543668 181.512724 152.485047 167.123961 152.485047"></polygon>
                        <polygon id="Fill-89" fill="#FFFFFF" points="167.123961 160.076614 181.512724 160.076614 181.512724 158.017992 167.123961 158.017992"></polygon>
                        <polygon id="Fill-90" fill="#FFFFFF" points="167.123961 165.611163 181.512724 165.611163 181.512724 163.552541 167.123961 163.552541"></polygon>
                        <polygon id="Fill-91" fill="#FFFFFF" points="167.123961 171.144108 181.512724 171.144108 181.512724 169.085487 167.123961 169.085487"></polygon>
                        <polygon id="Fill-92" fill="#FFFFFF" points="167.123961 176.677054 181.512724 176.677054 181.512724 174.618433 167.123961 174.618433"></polygon>
                        <polygon id="Fill-93" fill="#FFFFFF" points="167.123961 182.211603 181.512724 182.211603 181.512724 180.152982 167.123961 180.152982"></polygon>
                        <polygon id="Fill-94" fill="#9B9B9B" points="108.319105 101.202287 180.49846 101.202287 180.49846 94.2343989 108.319105 94.2343989"></polygon>
                        <polygon id="Fill-95" fill="#9B9B9B" points="114.574532 94.2343989 174.327956 94.2343989 174.327956 87.2665107 114.574532 87.2665107"></polygon>
                        <polygon id="Fill-96" fill="#EBBD0E" points="60.8682335 126.907798 105.16255 126.907798 105.16255 114.78053 60.8682335 114.78053"></polygon>
                        <polygon id="Fill-97" fill="#FDEDAD" points="67.7453572 258.364561 115.540726 258.364561 115.540726 126.160666 67.7453572 126.160666"></polygon>
                        <polygon id="Fill-98" fill="#EBBD0E" points="47.575452 258.364561 74.1626173 258.364561 74.1626173 126.160666 47.575452 126.160666"></polygon>
                        <polygon id="Fill-99" fill="#FFFFFF" points="82.9000254 258.101622 84.8500393 258.101622 84.8500393 126.160666 82.9000254 126.160666"></polygon>
                        <polygon id="Fill-100" fill="#FFFFFF" points="88.7324416 258.101622 90.6824555 258.101622 90.6824555 126.160666 88.7324416 126.160666"></polygon>
                        <polygon id="Fill-101" fill="#FFFFFF" points="94.2684301 258.101622 96.2184439 258.101622 96.2184439 126.160666 94.2684301 126.160666"></polygon>
                        <polygon id="Fill-102" fill="#FFFFFF" points="100.099244 258.101622 102.049258 258.101622 102.049258 126.160666 100.099244 126.160666"></polygon>
                        <polygon id="Fill-103" fill="#FFFFFF" points="105.519866 258.101622 107.46988 258.101622 107.46988 126.160666 105.519866 126.160666"></polygon>
                        <polygon id="Fill-104" fill="#222222" points="247.73308 257.697593 251.070696 257.697593 251.070696 173.172267 247.73308 173.172267"></polygon>
                        <path d="M250.967667,174.825097 L250.967667,145.329413 L247.734201,145.329413 L247.734201,145.356669 C246.939455,145.424007 246.163935,145.746268 245.556659,146.353914 L234.314837,157.60258 C232.948065,158.968582 232.948065,161.184325 234.314837,162.55193 L245.556659,173.800596 C246.163935,174.408242 246.939455,174.728899 247.734201,174.796237 L247.734201,174.825097 L250.967667,174.825097 Z" id="Fill-105" fill="#FDA800"></path>
                        <path d="M264.491182,162.551449 L253.24936,173.800115 C251.88419,175.166116 249.669794,175.166116 248.303022,173.800115 L237.0612,162.551449 C235.69603,161.185447 235.69603,158.969704 237.0612,157.6021 L248.303022,146.353433 C249.669794,144.987432 251.88419,144.987432 253.24936,146.353433 L264.491182,157.6021 C265.856352,158.969704 265.856352,161.185447 264.491182,162.551449" id="Fill-106" fill="#FBD133"></path>
                        <polygon id="Fill-107" fill="#000000" points="241.764467 163.204628 245.227064 163.204628 245.227064 159.739923 241.764467 159.739923"></polygon>
                        <polygon id="Fill-108" fill="#000000" points="248.68966 163.204628 252.152257 163.204628 252.152257 159.739923 248.68966 159.739923"></polygon>
                        <polygon id="Fill-109" fill="#000000" points="245.227064 159.703048 248.68966 159.703048 248.68966 156.238343 245.227064 156.238343"></polygon>
                        <polygon id="Fill-110" fill="#000000" points="255.614853 163.204628 259.07745 163.204628 259.07745 159.739923 255.614853 159.739923"></polygon>
                        <polygon id="Fill-111" fill="#000000" points="252.152257 159.703048 255.614853 159.703048 255.614853 156.238343 252.152257 156.238343"></polygon>
                        <path d="M184.347855,186.662811 C184.347855,186.662811 185.216308,184.12641 185.68899,182.542362 C186.161672,180.95671 187.323348,180.323411 189.712396,180.323411 L199.09874,180.323411 C201.33717,180.323411 202.255295,181.272558 202.739194,182.659402 C203.541952,184.963326 203.96336,186.662811 203.96336,186.662811 L184.347855,186.662811 Z" id="Fill-112" fill="#222222"></path>
                        <path d="M291.115841,245.199004 C291.115841,251.998547 285.796165,257.509047 279.233094,257.509047 C272.670024,257.509047 267.350348,251.998547 267.350348,245.199004 C267.350348,238.401064 272.670024,232.888961 279.233094,232.888961 C285.796165,232.888961 291.115841,238.401064 291.115841,245.199004" id="Fill-113" fill="#222222"></path>
                        <path d="M206.037874,245.199004 C206.037874,251.998547 200.718197,257.509047 194.155127,257.509047 C187.592056,257.509047 182.27238,251.998547 182.27238,245.199004 C182.27238,238.401064 187.592056,232.888961 194.155127,232.888961 C200.718197,232.888961 206.037874,238.401064 206.037874,245.199004" id="Fill-114" fill="#222222"></path>
                        <polygon id="Fill-115" fill="#FBD133" points="131.01153 202.089004 127.496058 195.400087 145.264097 190.413863"></polygon>
                        <path d="M294.124182,218.556532 C285.864263,209.387329 268.991916,207.875429 264.071216,204.870868 C259.150515,201.86791 244.893142,185.431005 218.374876,185.431005 C209.940305,185.431005 188.498164,185.886339 172.329232,185.886339 C160.871098,185.886339 152.0712,187.802267 145.262975,190.414023 C140.758876,192.142367 137.126434,194.173733 134.174975,196.155396 C141.399801,193.610979 150.696416,191.529911 161.119456,191.783231 C182.825979,192.309109 196.33347,204.357816 196.33347,204.357816 L205.525935,214.915465 C205.525935,214.915465 221.259038,215.471806 233.644911,222.000393 C241.888806,226.3437 243.992642,238.982416 244.531019,245.161487 C273.678679,245.118198 296.505218,244.773492 297.969731,243.827552 C302.188619,241.101963 298.830173,223.781646 294.124182,218.556532" id="Fill-116" fill="#FDEDAD"></path>
                        <path d="M233.645231,221.999592 C221.259358,215.471004 205.524653,214.916267 205.524653,214.916267 L196.333791,204.358618 C196.333791,204.358618 182.824697,192.309911 161.119777,191.782429 C150.695134,191.52911 141.398519,193.610177 134.175296,196.156198 C132.103506,197.546248 130.3666,198.913853 128.89728,200.132351 C123.646503,204.494897 123.625673,208.092675 122.922258,215.479021 C122.721969,217.577724 121.552281,222.972787 119.046265,228.470461 C118.118526,230.506636 119.268986,235.276417 120.286454,237.594771 C121.728535,240.881511 125.670223,244.400727 128.900484,244.400727 C153.515203,244.400727 204.06014,245.22161 244.53134,245.160685 C243.992963,238.983218 241.887525,226.344501 233.645231,221.999592" id="Fill-117" fill="#FBD133"></path>
                        <path d="M118.704812,233.579658 C118.704812,233.579658 118.704812,238.182697 121.340615,241.317124 C123.976419,244.453155 124.503579,245.830379 129.512407,245.830379 L293.752606,245.830379 C297.179952,245.830379 299.689172,242.86109 299.780504,239.704217 L125.295122,239.704217 C125.295122,239.704217 121.077836,236.949768 118.704812,233.579658" id="Fill-118" fill="#222222"></path>
                        <path d="M200.603952,204.358457 L182.326378,204.358457 C175.295432,204.358457 172.483374,215.299292 180.919548,215.456414 C189.355721,215.613537 210.004718,215.296086 210.004718,215.296086 L200.603952,204.358457 Z" id="Fill-119" fill="#FBD133"></path>
                        <polygon id="Fill-120" fill="#FBD133" points="161.119777 191.78291 146.115726 190.097855 132.853388 193.897646 132.853388 199.75125"></polygon>
                        <polygon id="Fill-121" fill="#000000" points="123.704026 208.716353 129.87453 203.119276 131.521707 206.97839 122.922097 215.479021"></polygon>
                        <path d="M156.619042,245.388352 C156.619042,252.186292 151.299366,257.698395 144.736295,257.698395 C138.173225,257.698395 132.853548,252.186292 132.853548,245.388352 C132.853548,238.590413 138.173225,233.07831 144.736295,233.07831 C151.299366,233.07831 156.619042,238.590413 156.619042,245.388352" id="Fill-122" fill="#222222"></path>
                        <path d="M152.742408,245.388352 C152.742408,249.811823 149.158036,253.398378 144.737257,253.398378 C140.314875,253.398378 136.730503,249.811823 136.730503,245.388352 C136.730503,240.964882 140.314875,237.378327 144.737257,237.378327 C149.158036,237.378327 152.742408,240.964882 152.742408,245.388352" id="Fill-123" fill="#FBD133"></path>
                        <path d="M146.845579,245.388352 C146.845579,246.553942 145.901817,247.498279 144.736936,247.498279 C143.572055,247.498279 142.628293,246.553942 142.628293,245.388352 C142.628293,244.222762 143.572055,243.278426 144.736936,243.278426 C145.901817,243.278426 146.845579,244.222762 146.845579,245.388352" id="Fill-124" fill="#222222"></path>
                        <path d="M236.276067,245.305142 C236.276067,252.104685 230.956391,257.615184 224.39332,257.615184 C217.831852,257.615184 212.510574,252.104685 212.510574,245.305142 C212.510574,238.507202 217.831852,232.995099 224.39332,232.995099 C230.956391,232.995099 236.276067,238.507202 236.276067,245.305142" id="Fill-125" fill="#222222"></path>
                        <path d="M232.399433,245.305142 C232.399433,249.730216 228.815061,253.31677 224.394282,253.31677 C219.9719,253.31677 216.387528,249.730216 216.387528,245.305142 C216.387528,240.881671 219.9719,237.295116 224.394282,237.295116 C228.815061,237.295116 232.399433,240.881671 232.399433,245.305142" id="Fill-126" fill="#FBD133"></path>
                        <path d="M226.502604,245.305142 C226.502604,246.470732 225.558842,247.415068 224.393961,247.415068 C223.22908,247.415068 222.285319,246.470732 222.285319,245.305142 C222.285319,244.139552 223.22908,243.195215 224.393961,243.195215 C225.558842,243.195215 226.502604,244.139552 226.502604,245.305142" id="Fill-127" fill="#222222"></path>
                        <path d="M291.871652,227.724772 L298.420302,227.724772 C298.420302,227.724772 297.482949,219.437378 294.124503,218.557173 C292.07835,220.30155 291.871652,227.724772 291.871652,227.724772" id="Fill-128" fill="#FFFFFF"></path>
                        <path d="M287.695546,230.868659 L265.372133,230.868659 C264.313005,230.868659 263.849936,230.868659 263.340401,232.741299 C262.910982,234.318934 261.77334,239.091921 261.77334,239.091921 C261.66919,240.287974 262.609747,241.317284 263.805072,241.317284 L289.623127,241.317284 C290.993104,241.317284 291.973719,239.986556 291.574743,238.670256 L289.64556,232.319634 C289.384383,231.457065 288.59284,230.868659 287.695546,230.868659" id="Fill-129" fill="#222222"></path>
                        <path d="M260.710847,220.844744 C260.710847,220.844744 261.721906,222.95467 262.776227,224.405646 C263.830548,225.856621 264.75348,227.302786 268.312215,227.305993 C271.870951,227.307596 281.230056,227.434256 283.73447,227.305993 C286.238884,227.176127 287.536757,226.303938 287.951755,224.104228 C288.246581,222.539419 288.611908,220.844744 288.611908,220.844744 L260.710847,220.844744 Z" id="Fill-130" fill="#222222"></path>
                        <path d="M225.352144,218.556532 C225.352144,218.556532 227.313374,226.550524 234.700033,227.363391 C242.08509,228.176258 251.835159,227.363391 251.835159,227.363391 C251.835159,227.363391 251.078868,221.384731 244.190528,219.78946 C237.302188,218.194188 225.352144,218.556532 225.352144,218.556532" id="Fill-131" fill="#FFFFFF"></path>
                        <path d="M192.168099,199.330868 C191.118585,198.147641 190.126754,197.071835 189.086853,196.111466 C183.861713,191.28557 177.425225,189.465839 156.314763,192.396649 C145.545623,193.890913 137.896185,201.564247 137.896185,201.564247 L139.427995,204.358778 L142.4804,209.928599 L200.604273,210.743069 C200.604273,210.743069 198.49563,206.468704 192.168099,199.330868" id="Fill-132" fill="#222222"></path>
                        <polygon id="Fill-133" fill="#000000" points="144.307036 224.398912 147.630231 224.398912 147.630231 221.073693 144.307036 221.073693"></polygon>
                        <polygon id="Fill-134" fill="#000000" points="147.630231 227.72413 150.953427 227.72413 150.953427 224.398912 147.630231 224.398912"></polygon>
                        <polygon id="Fill-135" fill="#000000" points="140.966215 227.72413 144.28941 227.72413 144.28941 224.398912 140.966215 224.398912"></polygon>
                        <polygon id="Fill-136" fill="#000000" points="150.953427 224.398912 154.276622 224.398912 154.276622 221.073693 150.953427 221.073693"></polygon>
                        <polygon id="Fill-137" fill="#000000" points="154.276622 227.72413 157.599817 227.72413 157.599817 224.398912 154.276622 224.398912"></polygon>
                        <polygon id="Fill-138" fill="#000000" points="157.599817 224.398912 160.923013 224.398912 160.923013 221.073693 157.599817 221.073693"></polygon>
                        <polygon id="Fill-139" fill="#000000" points="160.923013 227.72413 164.246208 227.72413 164.246208 224.398912 160.923013 224.398912"></polygon>
                        <polygon id="Fill-140" fill="#000000" points="164.246208 224.398912 167.569403 224.398912 167.569403 221.073693 164.246208 221.073693"></polygon>
                        <polygon id="Fill-141" fill="#000000" points="170.892599 224.398912 174.215794 224.398912 174.215794 221.073693 170.892599 221.073693"></polygon>
                        <polygon id="Fill-142" fill="#000000" points="167.569403 227.72413 170.892599 227.72413 170.892599 224.398912 167.569403 224.398912"></polygon>
                        <polygon id="Fill-143" fill="#000000" points="174.215794 227.72413 177.53899 227.72413 177.53899 224.398912 174.215794 224.398912"></polygon>
                        <polygon id="Fill-144" fill="#000000" points="177.53899 224.398912 180.862185 224.398912 180.862185 221.073693 177.53899 221.073693"></polygon>
                        <polygon id="Fill-145" fill="#000000" points="180.862185 227.72413 184.18538 227.72413 184.18538 224.398912 180.862185 224.398912"></polygon>
                        <polygon id="Fill-146" fill="#000000" points="184.18538 224.398912 187.508576 224.398912 187.508576 221.073693 184.18538 221.073693"></polygon>
                        <polygon id="Fill-147" fill="#000000" points="187.508576 227.72413 190.831771 227.72413 190.831771 224.398912 187.508576 224.398912"></polygon>
                        <polygon id="Fill-148" fill="#000000" points="190.831771 224.398912 194.154966 224.398912 194.154966 221.073693 190.831771 221.073693"></polygon>
                        <polygon id="Fill-149" fill="#000000" points="197.478162 224.398912 200.801357 224.398912 200.801357 221.073693 197.478162 221.073693"></polygon>
                        <polygon id="Fill-150" fill="#000000" points="194.154966 227.72413 197.478162 227.72413 197.478162 224.398912 194.154966 224.398912"></polygon>
                        <polygon id="Fill-151" fill="#000000" points="200.801357 227.72413 204.124553 227.72413 204.124553 224.398912 200.801357 224.398912"></polygon>
                        <path d="M243.487273,199.750929 C238.165994,196.029698 231.928193,193.025137 226.669405,190.843063 C210.489257,190.397349 191.465005,190.982549 191.465005,190.982549 L195.324975,195.765156 L206.228709,209.271251 L250.715303,208.827141 L253.892688,208.795075 C251.25368,206.059866 247.60842,202.632037 243.487273,199.750929" id="Fill-152" fill="#222222"></path>
                        <path d="M230.833173,190.98319 C229.477617,190.927075 228.083606,190.882183 226.668764,190.842101 C231.929155,193.025779 238.165354,196.028736 243.486632,199.75157 C247.607779,202.632678 251.253039,206.060507 253.892047,208.795716 L261.765809,208.717155 C261.765809,208.717155 247.70552,191.677414 230.833173,190.98319" id="Fill-153" fill="#FFFFFF"></path>
                        <polygon id="Fill-154" fill="#FFFFFF" points="268.09366 238.123054 286.371235 238.123054 286.371235 233.579337 268.09366 233.579337"></polygon>
                        <path d="M130.738336,160.256022 C129.852258,161.028806 128.288401,162.967181 128.259559,163.016883 C127.753229,163.940377 126.242248,166.109625 124.957194,167.425924 C120.29767,172.194102 109.751252,178.384395 106.695643,180.197714 C105.9041,180.350026 103.093645,180.733212 101.840637,180.580899 C101.457684,180.101516 101.432047,179.660612 101.374364,178.664971 C102.659418,178.408445 103.059996,176.817983 103.370845,175.721334 C103.760207,175.947398 104.256923,175.971447 104.652695,175.493668 C105.07891,174.975806 104.94752,174.571777 104.984373,174.13889 C105.545182,174.219054 106.363964,173.856711 106.432863,172.94444 C106.496956,172.094698 106.240586,171.605695 106.006648,170.84734 C106.235779,170.712664 106.618732,170.072952 106.235779,169.357886 C105.610877,168.189089 104.463622,167.762614 103.579145,166.928905 C102.995904,166.38058 102.662623,165.782554 102.040926,165.227817 C101.598688,164.831805 101.001025,164.926399 100.674154,165.285535 C99.5204888,165.001753 98.2770946,165.274312 97.5432356,166.192996 C96.1412125,165.832256 94.4427616,167.337743 93.7938252,168.283683 C91.8261859,171.147155 92.5872842,173.512004 92.5664541,175.059177 C92.2347755,176.030769 93.5342506,177.367911 94.1206969,177.03603 C94.3049628,178.381189 96.2709998,179.277427 97.262831,178.826903 C97.2323871,179.246964 97.0032564,180.407744 96.8846853,180.81017 C96.7565003,181.13243 92.8436541,181.494773 91.4688703,182.498431 C90.5619616,183.158986 89.2176217,187.409302 87.2019131,191.762228 C83.3691824,200.036795 74.0869882,211.719953 73.1496356,212.843857 C73.4925304,213.286365 74.783994,214.838347 74.783994,214.838347 C74.783994,214.838347 72.489483,218.445744 72.4846761,218.46338 C72.2411246,219.099886 71.9222645,220.46268 72.6881697,221.894416 C73.0006206,222.478013 74.5708865,221.945721 74.783994,221.536883 C75.4217142,220.311971 76.421557,217.060504 76.5881975,216.464081 C77.3124425,215.899724 89.2817142,201.462118 90.6757258,199.345778 C90.635668,199.948614 89.8200911,204.606165 89.8200911,204.606165 C89.8200911,204.606165 91.544179,204.970111 92.7202761,204.816196 C91.8454136,207.432761 91.821379,210.009245 92.2091385,212.741247 C92.8035963,216.932241 94.6622784,220.156452 96.452061,224.506172 C96.5530067,227.72397 95.4954807,234.978847 94.6110044,238.358577 C94.0421836,240.534239 89.9386622,250.251765 89.1519269,252.350469 C89.8970021,253.089584 91.0682923,253.559348 91.2894113,253.69723 C91.2445466,253.852749 91.9527686,257.331884 92.1113975,257.673384 C92.2652194,258.002058 96.7901489,257.5836 97.5127917,257.525881 C98.4084842,257.455337 98.1312842,256.142244 97.3044911,255.933817 C96.3479108,255.69172 95.0772772,255.900148 95.070868,255.896941 C95.5820055,252.3168 99.1631732,243.634997 100.026819,241.222049 C100.808748,239.039974 102.592121,233.92709 102.837275,233.078951 C103.787446,235.530378 104.859393,237.30682 105.868849,239.692513 C109.174419,247.49892 113.361261,255.856859 115.394595,257.968389 C116.99851,257.028862 120.515585,253.916881 121.930426,252.493161 C122.869381,251.550428 122.026565,250.410491 121.055564,250.994087 C120.461106,251.35162 119.974003,251.855053 119.365125,252.135628 C117.583354,252.958115 116.496986,251.686708 116.259844,251.794128 C116.82546,251.353224 118.322019,250.118692 118.322019,250.118692 C118.322019,250.118692 110.626114,229.853136 108.35724,225.012811 C108.334808,222.458773 108.749807,220.555671 108.139326,218.214871 C107.31734,215.053188 105.484295,206.228692 105.530762,205.478354 C106.69404,205.903225 107.972685,206.329699 109.991599,207.015907 C110.999453,203.814141 111.206151,198.840743 110.704628,194.160746 C110.445053,191.736575 109.669534,189.012589 109.174419,186.66217 C110.687002,185.068502 123.995807,176.051612 127.519291,170.864976 C127.468017,170.278173 127.307786,169.524628 127.059428,168.947444 C127.541723,168.546622 128.118556,168.264444 128.310833,167.951802 C131.10847,165.423418 133.060086,161.71822 133.133793,159.226711 C133.165839,158.158921 131.510651,159.61631 130.738336,160.256022" id="Fill-155" fill="#222222"></path>
                        <path d="M70.3894927,239.0233 C71.099317,236.6825 75.6899413,219.554578 75.7556361,219.081608 C75.8597864,218.324856 74.8022603,217.797375 74.425717,218.67277 C73.5556615,220.704135 68.6990534,235.860014 68.0901748,238.205624 C65.9703158,237.941081 63.9417887,237.327022 63.4466742,238.274565 C61.700154,241.615816 56.2875436,251.490465 55.4687621,253.032828 C56.1801887,254.100618 59.4152569,255.469825 61.6056176,256.026166 C61.5607528,256.154429 61.5238997,256.289105 61.5238997,256.433401 C61.5238997,257.124418 62.0847089,257.685569 62.7753054,257.685569 C63.4675043,257.685569 64.0267112,257.124418 64.0267112,256.433401 C64.0267112,256.196115 63.9449933,255.987687 63.8312291,255.798499 C65.8821887,253.986784 71.5623852,247.527138 72.4116106,241.272713 C72.4612823,240.903957 70.4728129,239.040936 70.3894927,239.0233" id="Fill-156" fill="#000000"></path>
                        <polygon id="Fill-157" fill="#9B9B9B" points="0 265.258698 400 265.258698 400 257.460307 0 257.460307"></polygon>
                        <path d="M65.1810169,66.6398941 L69.1227047,66.6398941 C69.4335533,66.6398941 69.734788,66.6799763 70.0280111,66.7473144 C70.3773151,63.835744 72.8448758,61.5526624 75.8428018,61.5526624 L81.4156435,61.5526624 C84.0915047,61.5526624 86.3395487,63.3739972 87.0477706,65.8318372 C87.1791602,65.8158043 87.3073452,65.791755 87.4419394,65.791755 L90.7122585,65.791755 C92.6126007,65.791755 94.1668435,67.346944 94.1668435,69.2484432 C94.1668435,69.6669013 94.0803186,70.0645166 93.9425198,70.4364793 L100.348564,70.4364793 C101.595163,70.4364793 102.615835,71.4577736 102.615835,72.7051314 C102.615835,73.9524892 101.595163,74.9737835 100.348564,74.9737835 L69.1227047,74.9737835 L67.6277475,74.9737835 L65.1810169,74.9737835 C62.8913128,74.9737835 61.0166076,73.0979369 61.0166076,70.8068388 C61.0166076,68.5157407 62.8913128,66.6398941 65.1810169,66.6398941" id="Fill-158" fill="#FFFFFF"></path>
                        <path d="M296.5621,22.6599497 L292.620412,22.6599497 C292.307961,22.6599497 292.008329,22.7000319 291.715106,22.7657667 C291.3642,19.8557996 288.898241,17.5711146 285.898713,17.5711146 L280.327474,17.5711146 C277.651612,17.5711146 275.403568,19.3940527 274.695346,21.8518927 C274.563957,21.8358598 274.435772,21.8118105 274.301178,21.8118105 L271.030858,21.8118105 C269.130516,21.8118105 267.576274,23.3669996 267.576274,25.2684987 C267.576274,25.6869568 267.662798,26.0845722 267.800597,26.4565349 L261.394553,26.4565349 C260.147954,26.4565349 259.127282,27.4778292 259.127282,28.725187 C259.127282,29.9725448 260.147954,30.993839 261.394553,30.993839 L292.620412,30.993839 L294.115369,30.993839 L296.5621,30.993839 C298.851804,30.993839 300.726509,29.1179924 300.726509,26.8268944 C300.726509,24.5357963 298.851804,22.6599497 296.5621,22.6599497" id="Fill-159" fill="#FFFFFF"></path>
                        <path d="M338.562547,40.7883234 L327.907171,40.7883234 C328.117074,40.2223628 328.248464,39.6195267 328.248464,38.9830215 C328.248464,36.0922938 325.886655,33.7290478 322.999289,33.7290478 L319.312369,33.7290478 C318.221194,30.0174368 314.782632,27.2854346 310.731987,27.2854346 L302.26537,27.2854346 C298.193895,27.2854346 294.744117,30.046296 293.670568,33.7867661 C293.483097,33.7659234 293.298831,33.7290478 293.104951,33.7290478 L288.136182,33.7290478 C285.247213,33.7290478 282.885405,36.0922938 282.885405,38.9830215 C282.885405,39.6195267 283.016794,40.2223628 283.226697,40.7883234 L273.491049,40.7883234 C271.595513,40.7883234 270.046077,42.3403059 270.046077,44.2353919 C270.046077,46.1320812 271.595513,47.6840637 273.491049,47.6840637 L288.833187,47.6840637 L323.220408,47.6840637 L338.562547,47.6840637 C340.458082,47.6840637 342.007518,46.1320812 342.007518,44.2353919 C342.007518,42.3403059 340.458082,40.7883234 338.562547,40.7883234" id="Fill-160" fill="#FDEDAD"></path>
                        <path d="M158.909227,36.4950397 L147.587289,36.4950397 C147.811613,35.8938068 147.951014,35.2524917 147.951014,34.5759043 C147.951014,31.5056084 145.440191,28.9932567 142.371763,28.9932567 L138.45411,28.9932567 C137.295638,25.0507723 133.642367,22.1472183 129.338556,22.1472183 L120.341574,22.1472183 C116.016933,22.1472183 112.349241,25.0812347 111.209997,29.0541816 C111.009708,29.0333388 110.814226,28.9932567 110.60913,28.9932567 L105.327909,28.9932567 C102.259481,28.9932567 99.748658,31.5056084 99.748658,34.5759043 C99.748658,35.2524917 99.8896615,35.8938068 100.112383,36.4950397 L89.7678557,36.4950397 C87.7537494,36.4950397 86.1065725,38.1432194 86.1065725,40.158552 C86.1065725,42.1722813 87.7537494,43.8220643 89.7678557,43.8220643 L106.069779,43.8220643 L142.607303,43.8220643 L158.909227,43.8220643 C160.923333,43.8220643 162.57051,42.1722813 162.57051,40.158552 C162.57051,38.1432194 160.923333,36.4950397 158.909227,36.4950397" id="Fill-161" fill="#FFFFFF"></path>
                        <path d="M240.354593,6.30593447 L236.166149,6.30593447 C235.836072,6.30593447 235.51561,6.34922323 235.204761,6.41976789 C234.831423,3.32542268 232.211642,0.899648438 229.024643,0.899648438 L223.105702,0.899648438 C220.261598,0.899648438 217.872551,2.83481666 217.119464,5.44657227 C216.980063,5.4305394 216.843867,5.40488679 216.701261,5.40488679 L213.225846,5.40488679 C211.206932,5.40488679 209.554949,7.05787638 209.554949,9.07801885 C209.554949,9.52212953 209.647883,9.94379419 209.793693,10.3398062 L202.987071,10.3398062 C201.661959,10.3398062 200.578796,11.425232 200.578796,12.7511509 C200.578796,14.0754665 201.661959,15.1608923 202.987071,15.1608923 L236.166149,15.1608923 L237.755642,15.1608923 L240.354593,15.1608923 C242.788505,15.1608923 244.778576,13.1680057 244.778576,10.734215 C244.778576,8.29882104 242.788505,6.30593447 240.354593,6.30593447" id="Fill-162" fill="#FDEDAD"></path>
                        <path d="M178.920663,48.5594587 L174.148978,48.5594587 C174.330039,48.1249678 174.432587,47.6503946 174.432587,47.1517722 C174.432587,45.1316297 172.780603,43.4786401 170.76169,43.4786401 L167.287877,43.4786401 C167.113225,43.4786401 166.944982,43.5074993 166.775137,43.5315486 C165.839387,41.3478708 163.666652,39.8055081 161.151022,39.8055081 L155.360266,39.8055081 C151.99541,39.8055081 149.242638,42.5615596 149.242638,45.9284637 C149.242638,46.8728001 149.476575,47.7578149 149.862733,48.5594587 L145.507648,48.5594587 C144.238617,48.5594587 143.198717,49.5983892 143.198717,50.8697963 L143.198717,51.3074938 C143.198717,52.5772976 144.238617,53.6162281 145.507648,53.6162281 L178.920663,53.6162281 C180.189695,53.6162281 181.229595,52.5772976 181.229595,51.3074938 L181.229595,50.8697963 C181.229595,49.5983892 180.189695,48.5594587 178.920663,48.5594587" id="Fill-163" fill="#FDEDAD"></path>
                    </g>
                </g>
            </g>
        </g>
    </g>
</svg>