<?xml version="1.0" encoding="UTF-8"?>
<svg width="149px" height="115px" viewBox="0 0 149 115" version="1.1" xmlns="http://www.w3.org/2000/svg" xmlns:xlink="http://www.w3.org/1999/xlink">
    <!-- Generator: Sketch 39 (31667) - http://www.bohemiancoding.com/sketch -->
    <title>DriverBlock/Time</title>
    <desc>Created with Sketch.</desc>
    <defs>
        <polygon id="path-1" points="0 68.7125192 96 68.7125192 96 -0.000360653358 0 -0.000360653358"></polygon>
    </defs>
    <g id="Page-1" stroke="none" stroke-width="1" fill="none" fill-rule="evenodd">
        <g id="Главная" transform="translate(-796.000000, -814.000000)">
            <g id="DriverBlock/Time" transform="translate(796.000000, 814.000000)">
                <circle id="Oval-6-Copy-2" fill="#DBDBDB" cx="60" cy="56" r="56"></circle>
                <polygon id="Fill-1" fill="#FFFFFF" transform="translate(134.711541, 110.296783) rotate(90.000000) translate(-134.711541, -110.296783) " points="130.414758 124.008325 139.008325 124.008325 139.008325 96.5852424 130.414758 96.5852424"></polygon>
                <g id="Group-10" transform="translate(83.000000, 18.000000)">
                    <path d="M14.2039333,25.68801 C14.4489333,25.97593 14.6834333,26.26503 14.9424333,26.56121 L15.0101,26.63555 L15.0661,26.72051 C15.5911,27.49931 15.8676,28.40319 15.8676,29.33185 C15.8676,30.25815 15.5911,31.16085 15.0661,31.94083 L15.0101,32.02461 L14.9424333,32.10249 C11.3934333,36.14281 9.3576,39.62853 9.3576,41.66167 C9.3576,43.83877 10.2151,45.92737 11.7294333,47.47317 L17.5359333,47.47317 L17.5359333,29.33185 L14.2039333,25.68801 Z" id="Fill-4" fill="#FFFFFF"></path>
                    <path d="M11.7293167,11.18817 C10.2149833,12.73515 9.35748333,14.82257 9.35748333,17.00085 C9.35748333,17.58613 9.54765,18.30475 9.87548333,19.11423 L17.5358167,19.11423 L17.5358167,11.18817 L11.7293167,11.18817 Z" id="Fill-6" fill="#FFFFFF"></path>
                    <path d="M11.7293167,47.47317 C10.2149833,45.92737 9.35748333,43.83877 9.35748333,41.66167 C9.35748333,39.62853 11.3933167,36.14281 14.9423167,32.10249 L15.01115,32.02461 L15.0659833,31.94083 C15.5909833,31.16085 15.8674833,30.25815 15.8674833,29.33185 C15.8674833,28.40319 15.5909833,27.49931 15.0659833,26.72051 L15.01115,26.63555 L14.9423167,26.56121 C11.3933167,22.52089 9.35748333,19.03399 9.35748333,17.00085 C9.35748333,14.82257 10.2149833,12.73515 11.7293167,11.18817 L17.5358167,11.18817 L17.5358167,19.11423 L25.19615,19.11423 C25.19615,19.11423 23.77515,22.37103 20.8689833,25.68447 C21.1163167,25.40363 20.63565,25.96177 20.8689833,25.68447 L17.5358167,29.33185 L17.5358167,47.47317 L11.7293167,47.47317 Z M21.7229833,31.53137 C21.1513167,30.97087 20.7943167,30.18617 20.7943167,29.31651 C20.7943167,28.66515 20.9949833,28.06099 21.3344833,27.56539 C24.06915,24.44547 27.2763167,20.12195 27.2763167,17.00085 C27.2763167,14.05321 25.9894833,11.41355 23.96065,9.60933 L11.1109833,9.60933 C9.08215,11.41355 7.79648333,14.05321 7.79648333,17.00085 C7.79648333,20.13729 11.0339833,24.48677 13.77565,27.60787 C14.1069833,28.10229 14.3064833,28.69111 14.3064833,29.33185 C14.3064833,29.97495 14.1058167,30.56141 13.77565,31.05465 C11.0328167,34.17575 7.79648333,38.52405 7.79648333,41.66167 C7.79648333,44.60813 9.08215,47.24661 11.1109833,49.05201 L23.96065,49.05201 C25.9894833,47.24661 27.2763167,44.60813 27.2763167,41.66167 C27.2763167,38.68807 24.36315,34.61943 21.7229833,31.54317 L21.7229833,31.53137 Z" id="Fill-8" fill="#D5D9D9"></path>
                    <polygon id="Fill-10" fill="#F2B741" points="8.7626 11.592556 13.7302667 11.592556 8.7626 6.566936"></polygon>
                    <path d="M18.5955,39.967898 C18.5955,40.560258 18.1206667,41.038158 17.5361667,41.038158 C16.9505,41.038158 16.4768333,40.560258 16.4768333,39.967898 C16.4768333,39.375538 16.9505,38.896458 17.5361667,38.896458 C18.1206667,38.896458 18.5955,39.375538 18.5955,39.967898" id="Fill-12" fill="#EBBD0E"></path>
                    <path d="M18.5955,35.681194 C18.5955,36.273554 18.1206667,36.751454 17.5361667,36.751454 C16.9505,36.751454 16.4768333,36.273554 16.4768333,35.681194 C16.4768333,35.088834 16.9505,34.609754 17.5361667,34.609754 C18.1206667,34.609754 18.5955,35.088834 18.5955,35.681194" id="Fill-14" fill="#EBBD0E"></path>
                    <path d="M18.5955,31.39449 C18.5955,31.98685 18.1206667,32.46711 17.5361667,32.46711 C16.9505,32.46711 16.4768333,31.98685 16.4768333,31.39449 C16.4768333,30.80213 16.9505,30.32305 17.5361667,30.32305 C18.1206667,30.32305 18.5955,30.80213 18.5955,31.39449" id="Fill-16" fill="#EBBD0E"></path>
                    <polygon id="Fill-18" fill="#263540" points="6.16035 6.567172 2.74085 6.567172 6.16035 10.025752"></polygon>
                    <polygon id="Fill-20" fill="#FBD133" points="0.2485 6.567408 17.535 6.567408 17.535 0.614308 0.2485 0.614308"></polygon>
                    <polygon id="Fill-22" fill="#EBBD0E" points="34.8223167 6.567172 34.8223167 0.614072 17.5358167 0.614072 17.5358167 6.567172 8.76248333 6.567172 13.73015 11.592792 26.3103167 11.592792 26.3103167 6.567172 28.9119833 6.567172 28.9119833 52.498672 17.5358167 52.498672 17.5358167 58.452952 34.8223167 58.452952 34.8223167 52.498672 32.33265 52.498672 32.33265 6.567172"></polygon>
                    <polygon id="Fill-23" fill="#FBD133" points="21.34125 47.47317 8.76225 47.47317 8.76225 52.49879 6.16058333 52.49879 6.16058333 10.02587 2.74108333 6.56729 2.74108333 52.49879 0.249083333 52.49879 0.249083333 58.45307 17.5355833 58.45307 17.5355833 52.49879 26.3100833 52.49879 26.3100833 47.47317"></polygon>
                    <path d="M25.19615,19.113994 L17.5358167,19.113994 L17.5358167,29.331614 L20.8689833,25.684234 C22.9899833,23.160214 24.4693167,20.900514 25.19615,19.113994" id="Fill-24" fill="#EBBD0E"></path>
                    <path d="M9.87571667,19.113994 C10.6013833,20.900514 12.0818833,23.162574 14.20405,25.687774 L17.53605,29.331614 L17.53605,19.113994 L9.87571667,19.113994 Z" id="Fill-25" fill="#FBD133"></path>
                    <polygon id="Fill-26" fill="#EBBD0E" points="17.5359333 42.26111 17.5359333 47.47317 23.3576 47.47317"></polygon>
                    <polygon id="Fill-27" fill="#FBD133" points="11.7139167 47.47317 17.5355833 47.47317 17.5355833 42.26111"></polygon>
                </g>
                <g id="Page-1" transform="translate(0.000000, 39.000000)">
                    <mask id="mask-2" fill="white">
                        <use xlink:href="#path-1"></use>
                    </mask>
                    <g id="Clip-4"></g>
                    <polygon id="Fill-3" fill="#F8F6F3" mask="url(#mask-2)" points="43.2012 44.668962 84.0012 44.668962 84.0012 15.8178956 43.2012 15.8178956"></polygon>
                    <path d="M55.2006,49.4776735 C55.2006,52.1332844 57.3498,54.2863849 60.0006,54.2863849 L91.2006,54.2863849 C93.8514,54.2863849 96.0006,52.1332844 96.0006,49.4776735 C96.0006,46.8220626 93.8514,44.668962 91.2006,44.668962 L60.0006,44.668962 C57.3498,44.668962 55.2006,46.8220626 55.2006,49.4776735" id="Fill-5" fill="#F8F6F3" mask="url(#mask-2)"></path>
                    <path d="M55.2006,39.8602506 C55.2006,42.5158615 57.3498,44.668962 60.0006,44.668962 L88.8006,44.668962 C91.4514,44.668962 93.6006,42.5158615 93.6006,39.8602506 C93.6006,37.2046397 91.4514,35.0527413 88.8006,35.0527413 L60.0006,35.0527413 C57.3498,35.0527413 55.2006,37.2046397 55.2006,39.8602506" id="Fill-6" fill="#F8F6F3" mask="url(#mask-2)"></path>
                    <path d="M52.8006,30.2434288 C52.8006,32.8990397 54.9498,35.0521403 57.6006,35.0521403 L86.4006,35.0521403 C89.0514,35.0521403 91.2006,32.8990397 91.2006,30.2434288 C91.2006,27.5878179 89.0514,25.4347174 86.4006,25.4347174 L57.6006,25.4347174 C54.9498,25.4347174 52.8006,27.5878179 52.8006,30.2434288" id="Fill-7" fill="#F8F6F3" mask="url(#mask-2)"></path>
                    <path d="M50.4006,20.626006 C50.4006,23.2816168 52.5498,25.4347174 55.2006,25.4347174 L84.0006,25.4347174 C86.6514,25.4347174 88.8006,23.2816168 88.8006,20.626006 C88.8006,17.9703951 86.6514,15.8172945 84.0006,15.8172945 L55.2006,15.8172945 C52.5498,15.8172945 50.4006,17.9703951 50.4006,20.626006" id="Fill-8" fill="#F8F6F3" mask="url(#mask-2)"></path>
                    <path d="M57.6006,54.2863849 C54.9498,54.2863849 52.8006,52.1332844 52.8006,49.4776735 C52.8006,46.8220626 54.9498,44.668962 57.6006,44.668962 C60.2514,44.668962 62.4006,46.8220626 62.4006,49.4776735 C62.4006,52.1332844 60.2514,54.2863849 57.6006,54.2863849" id="Fill-9" fill="#FFFFFF" mask="url(#mask-2)"></path>
                    <path d="M66.6006,44.668962 C65.9202,44.668962 65.2026,44.7194535 64.4634,44.8120212 C64.8618,44.2554128 65.1006,43.9176009 65.1006,43.9176009 L43.1994,35.8041025 L43.1994,49.4776735 C48.8994,49.4776735 55.2006,61.4994521 66.6006,61.4994521 C73.779,61.4994521 79.6002,57.7318266 79.6002,53.084207 C79.6002,48.4377896 73.779,44.668962 66.6006,44.668962" id="Fill-10" fill="#F8F6F3" mask="url(#mask-2)"></path>
                    <polygon id="Fill-11" fill="#F8F6F3" mask="url(#mask-2)" points="0 49.4776735 43.2 49.4776735 43.2 15.8178956 0 15.8178956"></polygon>
                    <path d="M78.56892,56.3738465 C78.99972,55.7162552 79.30452,55.0165877 79.46652,54.2868658 L67.20012,54.2868658 L78.56892,56.3738465 Z" id="Fill-12" fill="#3D3D3D" mask="url(#mask-2)"></path>
                    <polygon id="Fill-13" fill="#3D3D3D" mask="url(#mask-2)" points="16.8 51.8820292 40.8 51.8820292 40.8 13.4135399 16.8 13.4135399"></polygon>
                    <polygon id="Fill-14" fill="#535353" mask="url(#mask-2)" points="16.8 15.9681678 40.8 15.9681678 40.8 15.6676234 16.8 15.6676234"></polygon>
                    <polygon id="Fill-15" fill="#535353" mask="url(#mask-2)" points="16.8 20.7768793 40.8 20.7768793 40.8 20.4763348 16.8 20.4763348"></polygon>
                    <polygon id="Fill-16" fill="#535353" mask="url(#mask-2)" points="16.8 25.5855907 40.8 25.5855907 40.8 25.2850462 16.8 25.2850462"></polygon>
                    <polygon id="Fill-17" fill="#535353" mask="url(#mask-2)" points="16.8 30.3943021 40.8 30.3943021 40.8 30.0937577 16.8 30.0937577"></polygon>
                    <polygon id="Fill-18" fill="#535353" mask="url(#mask-2)" points="16.8 35.2030136 40.8 35.2030136 40.8 34.9024691 16.8 34.9024691"></polygon>
                    <polygon id="Fill-19" fill="#535353" mask="url(#mask-2)" points="16.8 40.0105228 40.8 40.0105228 40.8 39.7099784 16.8 39.7099784"></polygon>
                    <polygon id="Fill-20" fill="#535353" mask="url(#mask-2)" points="16.8 44.8192343 40.8 44.8192343 40.8 44.5186898 16.8 44.5186898"></polygon>
                    <polygon id="Fill-21" fill="#535353" mask="url(#mask-2)" points="16.8 49.6279457 40.8 49.6279457 40.8 49.3274012 16.8 49.3274012"></polygon>
                    <path d="M38.4,25.4347174 C38.4,30.7459392 34.1016,35.0521403 28.8,35.0521403 C23.4972,35.0521403 19.2,30.7459392 19.2,25.4347174 C19.2,20.1234956 23.4972,15.8172945 28.8,15.8172945 C34.1016,15.8172945 38.4,20.1234956 38.4,25.4347174" id="Fill-22" fill="#535353" mask="url(#mask-2)"></path>
                    <path d="M37.2,25.4347174 C37.2,30.082337 33.4392,33.8499624 28.8,33.8499624 C24.1608,33.8499624 20.4,30.082337 20.4,25.4347174 C20.4,20.7870978 24.1608,17.0194724 28.8,17.0194724 C33.4392,17.0194724 37.2,20.7870978 37.2,25.4347174" id="Fill-23" fill="#FFFFFF" mask="url(#mask-2)"></path>
                    <path d="M34.8,25.4347174 C34.8,28.7539305 32.1132,31.4456067 28.8,31.4456067 C25.4868,31.4456067 22.8,28.7539305 22.8,25.4347174 C22.8,22.1155043 25.4868,19.4238281 28.8,19.4238281 C32.1132,19.4238281 34.8,22.1155043 34.8,25.4347174" id="Fill-24" fill="#535353" mask="url(#mask-2)"></path>
                    <path d="M33.6,25.4347174 C33.6,28.0903283 31.4508,30.2434288 28.8,30.2434288 C26.1492,30.2434288 24,28.0903283 24,25.4347174 C24,22.7791065 26.1492,20.626006 28.8,20.626006 C31.4508,20.626006 33.6,22.7791065 33.6,25.4347174" id="Fill-25" fill="#FBD133" mask="url(#mask-2)"></path>
                    <path d="M37.11852,5.75145931 C35.52972,2.57410323 32.34252,0.601329365 28.80012,0.601329365 C25.25772,0.601329365 22.07052,2.57410323 20.48172,5.75145931 L19.94532,5.48217147 C21.63732,2.10044515 25.02972,0.000240435572 28.80012,0.000240435572 C32.57052,0.000240435572 35.96412,2.10044515 37.65492,5.48217147 L37.11852,5.75145931 Z" id="Fill-26" fill="#FFFFFF" mask="url(#mask-2)"></path>
                    <path d="M34.9716,8.02898526 C33.7932,5.67271666 31.428,4.20726185 28.8,4.20726185 C26.172,4.20726185 23.808,5.67271666 22.6284,8.02898526 L22.0932,7.75969742 C23.3736,5.19785641 25.944,3.60617292 28.8,3.60617292 C31.6572,3.60617292 34.2264,5.19785641 35.508,7.75969742 L34.9716,8.02898526 Z" id="Fill-27" fill="#FFFFFF" mask="url(#mask-2)"></path>
                    <path d="M31.7496,9.64326969 C31.1856,8.51562686 30.0552,7.81475717 28.8,7.81475717 C27.546,7.81475717 26.4156,8.51562686 25.8504,9.64326969 L25.3152,9.37398185 C25.9812,8.04196878 27.3168,7.21366824 28.8,7.21366824 C30.2832,7.21366824 31.6188,8.04196878 32.286,9.37398185 L31.7496,9.64326969 Z" id="Fill-28" fill="#FFFFFF" mask="url(#mask-2)"></path>
                    <polygon id="Fill-29" fill="#3D3D3D" mask="url(#mask-2)" points="40.8 15.8172945 43.2 49.4770724 40.8 49.4770724"></polygon>
                    <polygon id="Fill-30" fill="#3D3D3D" mask="url(#mask-2)" points="21.79392 26.1420788 21.08832 25.4351983 21.79392 24.7271155 22.00632 24.939901 21.51192 25.4351983 22.00632 25.9292934"></polygon>
                    <polygon id="Fill-31" fill="#3D3D3D" mask="url(#mask-2)" points="35.80608 26.1420788 35.59368 25.9292934 36.08808 25.4351983 35.59368 24.939901 35.80608 24.7271155 36.51168 25.4351983"></polygon>
                    <polygon id="Fill-32" fill="#FFFFFF" mask="url(#mask-2)" points="25.2 25.7358629 32.4 25.7358629 32.4 25.134774 25.2 25.134774"></polygon>
                    <polygon id="Fill-33" fill="#FFFFFF" mask="url(#mask-2)" points="26.4 24.5336851 31.2 24.5336851 31.2 23.9325962 26.4 23.9325962"></polygon>
                    <polygon id="Fill-34" fill="#FFFFFF" mask="url(#mask-2)" points="26.4 26.9380408 31.2 26.9380408 31.2 26.3369519 26.4 26.3369519"></polygon>
                </g>
            </g>
        </g>
    </g>
</svg>